<?xml version="1.0" encoding="utf-8"?>
<!-- Generator: Adobe Illustrator 27.5.0, SVG Export Plug-In . SVG Version: 6.00 Build 0)  -->
<svg version="1.1" xmlns="http://www.w3.org/2000/svg" xmlns:xlink="http://www.w3.org/1999/xlink" x="0px" y="0px"
	 viewBox="0 0 499.999 500" style="enable-background:new 0 0 499.999 500;" xml:space="preserve">
<g id="BACKGROUND">
	<rect style="fill:#9EBECF;" width="499.999" height="500.001"/>
</g>
<g id="OBJECTS">
	<g>
		<defs>
			<rect id="SVGID_1_" width="499.999" height="500.002"/>
		</defs>
		<clipPath id="SVGID_00000088092940745374022930000013252949780884070326_">
			<use xlink:href="#SVGID_1_"  style="overflow:visible;"/>
		</clipPath>
		<g style="clip-path:url(#SVGID_00000088092940745374022930000013252949780884070326_);">
			<polygon style="opacity:0.1;" points="295.3,268.535 244.801,239.375 159.41,239.375 149.326,276.897 133.858,267.965 
				83.359,297.125 93.334,326.486 133.858,326.283 183.759,297.473 244.801,297.693 			"/>
			<g>
				<g>
					<polygon style="fill:#E0E5E8;" points="143.836,237.459 194.335,208.302 194.335,268.172 143.836,297.328 					"/>
					<g>
						<polygon style="fill:#C7CCCE;" points="147.278,257.801 192.239,231.839 192.239,246.433 147.278,272.393 						"/>
						<g>
							<polygon style="fill:#BBB9BD;" points="181.188,247.056 181.188,249.306 164.712,258.82 164.712,256.57 							"/>
							<polygon style="fill:#D4D2D7;" points="164.712,258.82 164.712,256.57 162.251,255.125 162.214,256.01 163.491,258.1 							
								"/>
							<polygon style="fill:#EEEBF0;" points="178.734,245.607 181.188,247.056 164.712,256.57 162.251,255.125 							"/>
						</g>
					</g>
					<g>
						<polygon style="fill:#C7CCCE;" points="147.278,277.705 192.239,251.746 192.239,266.342 147.278,292.299 						"/>
						<g>
							<polygon style="fill:#BBB9BD;" points="181.188,266.965 181.188,269.211 164.712,278.723 164.712,276.477 							"/>
							<polygon style="fill:#D4D2D7;" points="164.712,278.723 164.712,276.477 162.251,275.03 162.214,275.916 163.491,278.006 
															"/>
							<polygon style="fill:#EEEBF0;" points="178.734,265.516 181.188,266.965 164.712,276.477 162.251,275.03 							"/>
						</g>
					</g>
					<g>
						<polygon style="fill:#C7CCCE;" points="147.278,237.895 192.239,211.932 192.239,226.526 147.278,252.487 						"/>
						<g>
							<polygon style="fill:#BBB9BD;" points="181.188,227.15 181.188,229.397 164.712,238.914 164.712,236.665 							"/>
							<polygon style="fill:#D4D2D7;" points="164.712,238.914 164.712,236.665 162.251,235.217 162.214,236.102 163.491,238.192 
															"/>
							<polygon style="fill:#EEEBF0;" points="178.734,225.701 181.188,227.15 164.712,236.665 162.251,235.217 							"/>
						</g>
					</g>
					<polygon style="fill:#F2F1F6;" points="143.836,237.459 93.334,208.302 93.334,268.172 143.836,297.328 					"/>
					<polygon style="fill:#FAFAFA;" points="143.836,237.459 93.334,208.302 143.836,179.143 194.335,208.302 					"/>
				</g>
				<g>
					<polygon style="fill:#E0E5E8;" points="143.836,196.729 194.335,167.571 194.335,208.3 143.836,237.459 					"/>
					<g>
						<polygon style="fill:#C7CCCE;" points="147.278,197.93 192.239,171.968 192.239,186.562 147.278,212.524 						"/>
						<g>
							<polygon style="fill:#BBB9BD;" points="181.188,187.186 181.188,189.433 164.712,198.949 164.712,196.702 							"/>
							<polygon style="fill:#D4D2D7;" points="164.712,198.949 164.712,196.702 162.251,195.253 162.214,196.14 163.491,198.229 
															"/>
							<polygon style="fill:#EEEBF0;" points="178.734,185.737 181.188,187.186 164.712,196.702 162.251,195.253 							"/>
						</g>
					</g>
					<g>
						<polygon style="fill:#C7CCCE;" points="147.278,217.837 192.239,191.874 192.239,206.469 147.278,232.432 						"/>
						<g>
							<polygon style="fill:#BBB9BD;" points="181.188,207.093 181.188,209.339 164.712,218.855 164.712,216.608 							"/>
							<polygon style="fill:#D4D2D7;" points="164.712,218.855 164.712,216.608 162.251,215.16 162.214,216.046 163.491,218.135 
															"/>
							<polygon style="fill:#EEEBF0;" points="178.734,205.645 181.188,207.093 164.712,216.608 162.251,215.16 							"/>
						</g>
					</g>
					<polygon style="fill:#F2F1F6;" points="143.836,196.729 93.334,167.571 93.334,208.3 143.836,237.459 					"/>
					<polygon style="fill:#FAFAFA;" points="143.836,196.729 93.334,167.571 143.836,138.411 194.335,167.571 					"/>
				</g>
				<g>
					<polygon style="fill:#F2F1F6;" points="93.334,285.758 42.835,256.602 42.835,297.328 93.334,326.486 					"/>
					<polygon style="fill:#E0E5E8;" points="93.334,285.758 143.836,256.602 143.836,297.328 93.334,326.486 					"/>
					<g>
						<polygon style="fill:#C7CCCE;" points="96.778,286.957 141.74,260.998 141.74,275.591 96.778,301.549 						"/>
						<g>
							<polygon style="fill:#BBB9BD;" points="130.687,276.216 130.687,278.461 114.213,287.977 114.213,285.728 							"/>
							<polygon style="fill:#D4D2D7;" points="114.213,287.977 114.213,285.728 111.752,284.281 111.715,285.166 112.992,287.256 
															"/>
							<polygon style="fill:#EEEBF0;" points="128.232,274.77 130.687,276.216 114.213,285.728 111.752,284.281 							"/>
						</g>
					</g>
					<g>
						<polygon style="fill:#C7CCCE;" points="96.778,306.861 141.74,280.902 141.74,295.496 96.778,321.457 						"/>
						<g>
							<polygon style="fill:#BBB9BD;" points="130.687,296.121 130.687,298.367 114.213,307.883 114.213,305.637 							"/>
							<polygon style="fill:#D4D2D7;" points="114.213,307.883 114.213,305.637 111.752,304.185 111.715,305.072 112.992,307.162 
															"/>
							<polygon style="fill:#EEEBF0;" points="128.232,294.672 130.687,296.121 114.213,305.637 111.752,304.185 							"/>
						</g>
					</g>
					<polygon style="fill:#FAFAFA;" points="93.334,285.758 42.835,256.602 93.334,227.442 143.836,256.602 					"/>
				</g>
				<path style="opacity:0.1;" d="M143.836,244.7v5.639l-3.499,4.242l-27.408,15.425c-1.458,0.832-3.351,0.5-5.778,0.5H90.224
					c-1.265-0.744-4.798-14.951-3.337-15.775l33.352-18.778c1.452-0.828,2.669-3.528,3.938-2.785L143.836,244.7z"/>
				<g>
					<g>
						
							<linearGradient id="SVGID_00000019670875745600158160000007344746485522198697_" gradientUnits="userSpaceOnUse" x1="65.874" y1="244.6162" x2="127.689" y2="244.6162">
							<stop  offset="0" style="stop-color:#404040"/>
							<stop  offset="0.8763" style="stop-color:#1A1A1A"/>
						</linearGradient>
						<path style="fill:url(#SVGID_00000019670875745600158160000007344746485522198697_);" d="M127.689,232.31
							c0,0-0.054,15.867-0.054,16.904c0,0.644-0.265,1.325-1.173,1.847l-33.355,18.775c-1.454,0.828-3.684,0.9-4.948,0.154
							l-21.447-12.578c-0.671-0.398-0.834-0.932-0.834-1.494c0-1.35-0.004-16.988-0.004-16.988l34.392-19.536
							c1.457-0.826,3.686-0.897,4.953-0.155L127.689,232.31z"/>
						<path style="fill:#FFFFFF;" d="M126.818,231.002c1.265,0.747,1.108,2.03-0.348,2.864l-33.354,18.771
							c-1.459,0.83-3.688,0.9-4.95,0.156L66.722,240.22c-1.265-0.744-1.11-2.034,0.35-2.858l33.352-18.777
							c1.452-0.828,3.688-0.901,4.957-0.16L126.818,231.002z"/>
					</g>
					<g>
						
							<linearGradient id="SVGID_00000107560776855923910750000010710555304245569672_" gradientUnits="userSpaceOnUse" x1="65.874" y1="234.1772" x2="127.689" y2="234.1772">
							<stop  offset="0" style="stop-color:#404040"/>
							<stop  offset="0.8763" style="stop-color:#1A1A1A"/>
						</linearGradient>
						<path style="fill:url(#SVGID_00000107560776855923910750000010710555304245569672_);" d="M127.689,229.867
							c0,0-0.054-0.124-0.054,0.91c0,0.644-0.265,1.326-1.173,1.845l-33.355,18.778c-1.454,0.831-3.684,0.902-4.948,0.154
							l-21.447-12.58c-0.671-0.396-0.834-0.929-0.834-1.492c0-1.348-0.004-0.996-0.004-0.996l34.392-19.535
							c1.457-0.827,3.686-0.897,4.953-0.155L127.689,229.867z"/>
						<path style="fill:#FFFFFF;" d="M126.818,228.559c1.265,0.748,1.108,2.032-0.348,2.864l-33.354,18.771
							c-1.459,0.831-3.688,0.902-4.95,0.16l-21.443-12.578c-1.265-0.744-1.11-2.034,0.35-2.858l33.352-18.777
							c1.452-0.828,3.688-0.9,4.957-0.156L126.818,228.559z"/>
					</g>
					<g>
						<path style="fill:#FFFFFF;" d="M97.16,212.652c0,0,0.1,0.094-0.365-0.19c-0.296-0.177-0.677-0.24-1.165,0.029l-17.651,9.968
							c-0.773,0.432-1.354,1.388-1.521,2.142l-3.803,9.865l0.646,0.383l26.746-15.596L97.16,212.652z"/>
						<path style="fill:#E0E5E8;" d="M97.699,213.42c-0.394-0.858-0.804-1.073-1.581-0.64l-17.647,9.969
							c-0.777,0.433-1.281,1.184-1.614,2.107l-3.555,9.995l27.293-15.395L97.699,213.42z"/>
					</g>
					<polygon style="fill:#292523;" points="77.994,239.124 76.814,238.432 105.504,222.28 106.681,222.974 					"/>
					<path style="fill:#FFFFFF;" d="M92.08,202.826c10.901,0.921,8.513,16.42,11.042,22.128
						c-9.157,5.239-11.363,6.477-21.376,12.049c-2.54-5.711-0.292-20.936-11.192-21.857
						C79.713,209.904,82.925,208.067,92.08,202.826z"/>
					<path style="fill:#FFFFFF;" d="M99.472,254.289c0-0.918-0.746-1.397-1.663-1.076c-0.915,0.324-1.658,1.33-1.658,2.245
						c0,0.917,0.744,1.398,1.658,1.073C98.727,256.209,99.472,255.204,99.472,254.289z"/>
				</g>
				<polygon style="opacity:0.1;" points="134.337,186.104 162.874,186.104 194.335,167.571 158.32,146.672 				"/>
				<g>
					<g>
						<polygon style="fill:#335F78;" points="166.702,127.819 173.823,123.565 173.865,161.981 166.742,166.339 						"/>
						<polygon style="fill:#49809E;" points="140.936,113.005 166.702,127.819 166.742,166.339 140.929,151.403 						"/>
						<polygon style="fill:#5697BA;" points="140.936,113.005 166.702,127.819 173.823,123.565 148.009,108.629 						"/>
						<polygon style="fill:#FFFFFF;" points="168.061,129.115 172.481,126.475 172.504,150.316 170.45,154.04 168.085,153.021 
													"/>
						<path style="fill:#FFFFFF;" d="M172.504,157.329c0-1.005-0.814-1.53-1.821-1.178c-0.998,0.354-1.813,1.456-1.813,2.459
							c0,1.004,0.815,1.529,1.813,1.175C171.69,159.433,172.504,158.332,172.504,157.329z"/>
					</g>
					<g>
						<polygon style="fill:#335F78;" points="158.599,132.761 165.723,128.506 165.764,166.922 158.641,171.28 						"/>
						<polygon style="fill:#49809E;" points="132.835,117.947 158.599,132.761 158.641,171.28 132.827,156.344 						"/>
						<polygon style="fill:#5697BA;" points="132.835,117.947 158.599,132.761 165.723,128.506 139.908,113.57 						"/>
						<polygon style="fill:#FFFFFF;" points="159.96,134.056 164.379,131.415 164.404,155.257 162.35,158.981 159.985,157.962 
													"/>
						<path style="fill:#FFFFFF;" d="M164.404,162.27c0-1.005-0.817-1.53-1.821-1.178c-1.002,0.355-1.817,1.456-1.817,2.461
							c0,1.003,0.814,1.528,1.817,1.174C163.587,164.374,164.404,163.274,164.404,162.27z"/>
					</g>
					<g>
						<polygon style="fill:#335F78;" points="150.498,137.702 157.62,133.448 157.66,171.863 150.538,176.221 						"/>
						<polygon style="fill:#49809E;" points="124.732,122.888 150.498,137.702 150.538,176.221 124.726,161.285 						"/>
						<polygon style="fill:#5697BA;" points="124.732,122.888 150.498,137.702 157.62,133.448 131.808,118.511 						"/>
						<polygon style="fill:#FFFFFF;" points="151.857,138.998 156.278,136.356 156.301,160.199 154.247,163.922 151.882,162.903 
													"/>
						<path style="fill:#FFFFFF;" d="M156.301,167.21c0-1.005-0.815-1.53-1.821-1.178c-1.001,0.355-1.815,1.456-1.815,2.461
							c0,1.004,0.814,1.529,1.815,1.175C155.486,169.316,156.301,168.215,156.301,167.21z"/>
					</g>
					<g>
						<polygon style="fill:#335F78;" points="142.396,142.643 149.518,138.389 149.559,176.805 142.438,181.162 						"/>
						<polygon style="fill:#49809E;" points="116.63,127.829 142.396,142.643 142.438,181.162 116.623,166.226 						"/>
						<polygon style="fill:#5697BA;" points="116.63,127.829 142.396,142.643 149.518,138.389 123.705,123.454 						"/>
						<polygon style="fill:#FFFFFF;" points="143.754,143.938 148.176,141.297 148.201,165.14 146.146,168.863 143.782,167.844 
													"/>
						<path style="fill:#FFFFFF;" d="M148.201,172.151c0-1.004-0.817-1.529-1.821-1.178c-1.002,0.355-1.817,1.456-1.817,2.461
							c0,1.004,0.814,1.529,1.817,1.175C147.384,174.257,148.201,173.156,148.201,172.151z"/>
					</g>
					<g>
						<polygon style="fill:#335F78;" points="134.295,147.585 141.417,143.33 141.457,181.745 134.337,186.104 						"/>
						<polygon style="fill:#49809E;" points="108.527,132.77 134.295,147.585 134.337,186.104 108.523,171.168 						"/>
						<polygon style="fill:#5697BA;" points="108.527,132.77 134.295,147.585 141.417,143.33 115.603,128.395 						"/>
						<polygon style="fill:#FFFFFF;" points="135.654,148.879 140.075,146.239 140.098,170.081 138.044,173.805 135.677,172.786 
													"/>
						<path style="fill:#FFFFFF;" d="M140.098,177.094c0-1.005-0.815-1.531-1.821-1.178c-1,0.354-1.814,1.454-1.814,2.46
							c0,1.004,0.814,1.528,1.814,1.175C139.283,179.198,140.098,178.097,140.098,177.094z"/>
					</g>
				</g>
			</g>
		</g>
		<g style="clip-path:url(#SVGID_00000088092940745374022930000013252949780884070326_);">
			<polygon style="opacity:0.1;" points="275.577,301.527 368.024,301.527 320.484,263.699 			"/>
			<g>
				<g style="opacity:0.1;">
					<g>
						<g>
							<path style="fill:#211915;" d="M548.708,401.66c-0.125-0.264-27.143-20.063-55.958-26.027
								c-3.555-0.787-6.842-1.486-9.893-2.115c2.959,0.469,6.117,0.947,9.505,1.43c28.256,4.461,33.469-9.447,33.377-9.705
								c-0.096-0.113-11.029-2.695-27.218-1.365c-1.055,0.103-2.176,0.197-3.342,0.287c9.746-6.176,10.342-16.4,10.717-16.357
								c-8.367,4.646-17.067,8.414-26.348,11.318c8.889-8.861,7.13-22.363,7.863-22.049c-3.446,3.508-6.772,6.768-10.088,9.787
								c2.679-7.523,2.524-14.494,2.866-15.611c-10.272,12.234-17.31,22.541-26.359,29.988c-3.446-2.701-8.931-4.465-15.135-4.465
								c-0.846,0-1.675,0.043-2.496,0.107v-0.012l-0.229,0.031c-1.175,0.1-2.316,0.26-3.408,0.48l-15.827,2.227l-3.773,17.504
								l21.442,1.478c1.379,0.188,2.813,0.297,4.292,0.297c7.184,0,13.426-2.342,16.626-5.783
								c20.877,13.766,45.49,31.553,65.671,51.867c0.555,0.283-1.763-7.736-12.189-18.639c7.01,4.945,14.006,10.135,20.881,15.553
								c0.733,0.313-8.209-14.473-29.765-29.141c15.302,7.525,31.152,15.877,47.324,25.084c0.43,0.057-16.905-16.537-41.882-29.443
								c3.3,1.19,6.488,2.359,9.45,3.473C537.711,400.334,548.808,401.773,548.708,401.66z M459.965,369.326
								c0.12,0.023,0.241,0.051,0.366,0.076c-0.179-0.027-0.358-0.055-0.533-0.082C459.852,369.322,459.911,369.322,459.965,369.326
								z"/>
							<path style="fill:#211915;" d="M480.191,331.252c0.046-0.057,0.088-0.109,0.138-0.164
								C480.27,331.059,480.229,331.129,480.191,331.252z"/>
						</g>
					</g>
					<polygon style="fill:#211915;" points="500.155,325.367 357.699,243.111 354.75,244.813 351.804,243.111 287.133,280.449 
						429.591,362.707 435.484,362.707 					"/>
					<polygon style="fill:#211915;" points="426.537,359.494 348.269,314.299 345.047,314.299 309.514,334.813 387.784,380.008 
						391.005,380.008 					"/>
					<polygon style="fill:#211915;" points="486.242,322.191 436.147,356.332 500.188,356.332 533.491,336.975 507.589,322.191 
											"/>
				</g>
				<g>
					<g>
						<path style="fill:#C7CCCE;" d="M235.407,285.27c0,0-1.133,1.978-3.358,1.978c-2.231,0-3.303-1.978-3.303-1.978v-63.871h6.661
							V285.27z"/>
						<path style="fill:#C7CCCE;" d="M296.701,248.992c0,0-1.136,1.981-3.36,1.981c-2.231,0-3.305-1.981-3.305-1.981v-63.871h6.665
							V248.992z"/>
					</g>
					<polygon style="fill:#E0E5E8;" points="275.577,241.656 225.077,212.499 225.077,272.369 275.577,301.527 					"/>
					<g>
						<polygon style="fill:#C7CCCE;" points="272.134,261.997 227.173,236.036 227.173,250.63 272.134,276.59 						"/>
						<g>
							<polygon style="fill:#BBB9BD;" points="238.224,251.253 238.224,253.503 254.7,263.018 254.7,260.768 							"/>
							<polygon style="fill:#D4D2D7;" points="254.7,263.018 254.7,260.768 257.161,259.32 257.198,260.207 255.918,262.297 							
								"/>
							<polygon style="fill:#EEEBF0;" points="240.678,249.805 238.224,251.253 254.7,260.768 257.161,259.32 							"/>
						</g>
					</g>
					<g>
						<polygon style="fill:#C7CCCE;" points="272.134,281.902 227.173,255.943 227.173,270.537 272.134,296.5 						"/>
						<g>
							<polygon style="fill:#BBB9BD;" points="238.224,271.162 238.224,273.408 254.7,282.924 254.7,280.676 							"/>
							<polygon style="fill:#D4D2D7;" points="254.7,282.924 254.7,280.676 257.161,279.227 257.198,280.113 255.918,282.203 
															"/>
							<polygon style="fill:#EEEBF0;" points="240.678,269.713 238.224,271.162 254.7,280.676 257.161,279.227 							"/>
						</g>
					</g>
					<g>
						<path style="fill:#C7CCCE;" d="M370.939,360.94c0,0-1.134,1.978-3.358,1.978c-2.232,0-3.303-1.978-3.303-1.978v-63.871h6.661
							V360.94z"/>
						<path style="fill:#C7CCCE;" d="M432.234,324.662c0,0-1.137,1.98-3.361,1.98c-2.232,0-3.305-1.98-3.305-1.98v-63.871h6.666
							V324.662z"/>
					</g>
					<polygon style="fill:#D3D3D3;" points="275.512,248.49 275.577,301.527 321.434,275.073 					"/>
					<g>
						<polygon style="fill:#E0E5E8;" points="248.446,270.523 248.446,274.294 326.715,319.484 326.715,315.717 						"/>
						<polygon style="fill:#D3D3D3;" points="326.715,319.484 326.715,315.717 362.247,295.203 362.247,298.967 						"/>
						<polygon style="fill:#F2F1F6;" points="283.979,250.009 248.446,270.523 326.715,315.717 362.247,295.203 						"/>
					</g>
					<g>
						<polygon style="fill:#E0E5E8;" points="225.077,212.499 225.077,219.354 367.535,301.609 367.535,294.756 						"/>
						<polygon style="fill:#D3D3D3;" points="367.535,301.609 367.535,294.756 432.205,257.418 432.205,264.266 						"/>
						<polygon style="fill:#FAFAFA;" points="289.749,175.161 225.077,212.499 367.535,294.756 432.205,257.418 						"/>
					</g>
					<path style="fill:#FFFFFF;" d="M354.08,250.007c0.603,0.354,0.529,0.965-0.162,1.358l-21.633,12.289
						c-0.694,0.393-1.757,0.424-2.351,0.072l-10.182-5.969c-0.603-0.355-0.525-0.965,0.166-1.357l21.631-12.29
						c0.692-0.394,1.746-0.427,2.354-0.075L354.08,250.007z"/>
					<path style="fill:#FFFFFF;" d="M354.08,250.007c0.603,0.354,0.529,0.965-0.162,1.358l-21.633,12.289
						c-0.694,0.393-1.757,0.424-2.351,0.072l-10.182-5.969c-0.603-0.355-0.525-0.965,0.166-1.357l21.631-12.29
						c0.692-0.394,1.746-0.427,2.354-0.075L354.08,250.007z"/>
					<path style="opacity:0.1;" d="M324.71,222.576c1.013,0.597,0.886,1.621-0.276,2.286l-26.636,14.991
						c-1.166,0.665-2.95,0.721-3.954,0.127l-17.122-10.043c-1.013-0.598-0.89-1.623,0.279-2.283l26.633-14.995
						c1.163-0.664,2.942-0.721,3.959-0.127L324.71,222.576z"/>
					<g>
						<polygon style="fill:#C7CCCE;" points="272.134,242.092 227.173,216.129 227.173,230.723 272.134,256.685 						"/>
						<g>
							<polygon style="fill:#BBB9BD;" points="238.224,231.347 238.224,233.594 254.7,243.11 254.7,240.862 							"/>
							<polygon style="fill:#D4D2D7;" points="254.7,243.11 254.7,240.862 257.161,239.414 257.198,240.301 255.918,242.39 							
								"/>
							<polygon style="fill:#EEEBF0;" points="240.678,229.899 238.224,231.347 254.7,240.862 257.161,239.414 							"/>
						</g>
					</g>
					<g>
						<polygon style="fill:#999999;" points="312.21,297.1 328.074,287.797 328.074,286.543 279.318,260.098 263.458,268.152 
							263.458,269.404 						"/>
						<polygon style="fill:#FAFAFA;" points="312.21,295.846 328.074,286.543 279.318,258.845 263.458,268.152 						"/>
						
							<linearGradient id="SVGID_00000153667654088127412460000012470828546707314817_" gradientUnits="userSpaceOnUse" x1="267.3107" y1="267.7434" x2="282.0532" y2="267.7434">
							<stop  offset="0" style="stop-color:#404040"/>
							<stop  offset="0.8763" style="stop-color:#1A1A1A"/>
						</linearGradient>
						<path style="fill:url(#SVGID_00000153667654088127412460000012470828546707314817_);" d="M267.576,267.127
							c-0.395,0.235-0.34,0.639,0.11,0.898l6.619,3.762c0.465,0.257,1.163,0.283,1.557,0.051l5.921-3.476
							c0.397-0.233,0.355-0.64-0.108-0.899l-6.612-3.762c-0.457-0.262-1.161-0.283-1.557-0.05L267.576,267.127z"/>
						
							<linearGradient id="SVGID_00000179636451367093313580000006287153635447079832_" gradientUnits="userSpaceOnUse" x1="308.7456" y1="287.7143" x2="319.347" y2="287.7143">
							<stop  offset="0" style="stop-color:#404040"/>
							<stop  offset="0.8763" style="stop-color:#1A1A1A"/>
						</linearGradient>
						<path style="fill:url(#SVGID_00000179636451367093313580000006287153635447079832_);" d="M309.016,285.879
							c-0.398,0.236-0.352,0.639,0.11,0.898l6.617,3.762c0.456,0.262,1.156,0.283,1.561,0.049l1.769-1.045
							c0.404-0.236,0.355-0.639-0.103-0.895l-6.619-3.762c-0.457-0.26-1.159-0.279-1.557-0.045L309.016,285.879z"/>
						
							<linearGradient id="SVGID_00000102525340978565766150000005656626033099700642_" gradientUnits="userSpaceOnUse" x1="304.0126" y1="283.7267" x2="310.045" y2="283.7267">
							<stop  offset="0" style="stop-color:#404040"/>
							<stop  offset="0.8763" style="stop-color:#1A1A1A"/>
						</linearGradient>
						<path style="fill:url(#SVGID_00000102525340978565766150000005656626033099700642_);" d="M304.283,283.19
							c-0.404,0.238-0.344,0.641,0.108,0.898l2.054,1.168c0.456,0.256,1.156,0.281,1.555,0.045l1.775-1.039
							c0.399-0.234,0.35-0.639-0.108-0.898l-2.046-1.162c-0.457-0.262-1.163-0.283-1.561-0.051L304.283,283.19z"/>
						
							<linearGradient id="SVGID_00000085233312084740402200000015241537122209084573_" gradientUnits="userSpaceOnUse" x1="299.3627" y1="281.085" x2="305.3947" y2="281.085">
							<stop  offset="0" style="stop-color:#404040"/>
							<stop  offset="0.8763" style="stop-color:#1A1A1A"/>
						</linearGradient>
						<path style="fill:url(#SVGID_00000085233312084740402200000015241537122209084573_);" d="M299.634,280.549
							c-0.402,0.234-0.351,0.637,0.108,0.9l2.05,1.162c0.456,0.26,1.161,0.285,1.555,0.047l1.774-1.037
							c0.404-0.234,0.353-0.637-0.107-0.904l-2.044-1.158c-0.463-0.262-1.163-0.283-1.557-0.047L299.634,280.549z"/>
						
							<linearGradient id="SVGID_00000133517954274222932930000011437414985530625166_" gradientUnits="userSpaceOnUse" x1="294.7124" y1="278.4417" x2="300.7437" y2="278.4417">
							<stop  offset="0" style="stop-color:#404040"/>
							<stop  offset="0.8763" style="stop-color:#1A1A1A"/>
						</linearGradient>
						<path style="fill:url(#SVGID_00000133517954274222932930000011437414985530625166_);" d="M294.98,277.908
							c-0.396,0.234-0.346,0.637,0.108,0.898l2.05,1.162c0.46,0.262,1.158,0.283,1.557,0.053l1.781-1.049
							c0.397-0.23,0.346-0.635-0.112-0.895l-2.046-1.163c-0.459-0.261-1.163-0.286-1.561-0.05L294.98,277.908z"/>
						
							<linearGradient id="SVGID_00000166652694166368490740000004792474961877453244_" gradientUnits="userSpaceOnUse" x1="290.061" y1="275.7999" x2="296.0898" y2="275.7999">
							<stop  offset="0" style="stop-color:#404040"/>
							<stop  offset="0.8763" style="stop-color:#1A1A1A"/>
						</linearGradient>
						<path style="fill:url(#SVGID_00000166652694166368490740000004792474961877453244_);" d="M290.332,275.268
							c-0.402,0.228-0.348,0.635,0.108,0.899l2.048,1.161c0.458,0.262,1.158,0.283,1.559,0.049l1.773-1.045
							c0.397-0.234,0.352-0.639-0.108-0.897l-2.047-1.166c-0.458-0.259-1.156-0.281-1.556-0.047L290.332,275.268z"/>
						
							<linearGradient id="SVGID_00000054264157225632060790000012788838899346369169_" gradientUnits="userSpaceOnUse" x1="285.4101" y1="273.1571" x2="291.4406" y2="273.1571">
							<stop  offset="0" style="stop-color:#404040"/>
							<stop  offset="0.8763" style="stop-color:#1A1A1A"/>
						</linearGradient>
						<path style="fill:url(#SVGID_00000054264157225632060790000012788838899346369169_);" d="M285.679,272.623
							c-0.402,0.233-0.344,0.637,0.11,0.899l2.046,1.164c0.458,0.258,1.156,0.281,1.561,0.046l1.779-1.04
							c0.392-0.232,0.348-0.637-0.119-0.897l-2.039-1.165c-0.461-0.26-1.165-0.279-1.563-0.048L285.679,272.623z"/>
						
							<linearGradient id="SVGID_00000137124119861215928380000011090277560797123721_" gradientUnits="userSpaceOnUse" x1="280.7589" y1="270.5161" x2="286.7885" y2="270.5161">
							<stop  offset="0" style="stop-color:#404040"/>
							<stop  offset="0.8763" style="stop-color:#1A1A1A"/>
						</linearGradient>
						<path style="fill:url(#SVGID_00000137124119861215928380000011090277560797123721_);" d="M281.025,269.977
							c-0.395,0.238-0.346,0.641,0.116,0.902l2.044,1.165c0.461,0.259,1.16,0.281,1.561,0.048l1.777-1.042
							c0.394-0.233,0.344-0.64-0.11-0.899l-2.05-1.163c-0.459-0.257-1.157-0.279-1.56-0.052L281.025,269.977z"/>
						
							<linearGradient id="SVGID_00000177445440555832709220000012489491248678096288_" gradientUnits="userSpaceOnUse" x1="299.9006" y1="288.8132" x2="315.1959" y2="288.8132">
							<stop  offset="0" style="stop-color:#404040"/>
							<stop  offset="0.8763" style="stop-color:#1A1A1A"/>
						</linearGradient>
						<path style="fill:url(#SVGID_00000177445440555832709220000012489491248678096288_);" d="M300.169,285.65
							c-0.397,0.229-0.348,0.635,0.107,0.897l11.311,6.426c0.462,0.262,1.171,0.283,1.568,0.049l1.772-1.043
							c0.397-0.234,0.348-0.633-0.108-0.896l-11.317-6.428c-0.459-0.262-1.159-0.285-1.557-0.047L300.169,285.65z"/>
						
							<linearGradient id="SVGID_00000035508119613759067730000016561174225329947322_" gradientUnits="userSpaceOnUse" x1="295.2115" y1="283.5185" x2="301.2415" y2="283.5185">
							<stop  offset="0" style="stop-color:#404040"/>
							<stop  offset="0.8763" style="stop-color:#1A1A1A"/>
						</linearGradient>
						<path style="fill:url(#SVGID_00000035508119613759067730000016561174225329947322_);" d="M295.482,282.984
							c-0.402,0.232-0.348,0.639,0.11,0.902l2.052,1.16c0.452,0.262,1.157,0.281,1.553,0.049l1.777-1.045
							c0.396-0.23,0.348-0.633-0.112-0.897l-2.049-1.162c-0.456-0.262-1.156-0.285-1.552-0.053L295.482,282.984z"/>
						
							<linearGradient id="SVGID_00000133492151265019088930000000489619030432818108_" gradientUnits="userSpaceOnUse" x1="290.5637" y1="280.8761" x2="296.595" y2="280.8761">
							<stop  offset="0" style="stop-color:#404040"/>
							<stop  offset="0.8763" style="stop-color:#1A1A1A"/>
						</linearGradient>
						<path style="fill:url(#SVGID_00000133492151265019088930000000489619030432818108_);" d="M290.832,280.342
							c-0.396,0.234-0.348,0.639,0.108,0.898l2.048,1.164c0.463,0.26,1.163,0.281,1.563,0.047l1.773-1.041
							c0.402-0.232,0.35-0.635-0.108-0.896l-2.05-1.164c-0.457-0.262-1.163-0.283-1.557-0.049L290.832,280.342z"/>
						
							<linearGradient id="SVGID_00000141431649179591274040000010508467539580821634_" gradientUnits="userSpaceOnUse" x1="285.9084" y1="278.2349" x2="291.9384" y2="278.2349">
							<stop  offset="0" style="stop-color:#404040"/>
							<stop  offset="0.8763" style="stop-color:#1A1A1A"/>
						</linearGradient>
						<path style="fill:url(#SVGID_00000141431649179591274040000010508467539580821634_);" d="M286.179,277.701
							c-0.4,0.23-0.351,0.637,0.108,0.895l2.052,1.168c0.454,0.258,1.156,0.279,1.557,0.045l1.775-1.039
							c0.394-0.234,0.348-0.639-0.108-0.898l-2.051-1.164c-0.46-0.259-1.16-0.279-1.554-0.049L286.179,277.701z"/>
						
							<linearGradient id="SVGID_00000163758826394737930160000011832862738233891223_" gradientUnits="userSpaceOnUse" x1="281.2615" y1="275.5927" x2="287.2906" y2="275.5927">
							<stop  offset="0" style="stop-color:#404040"/>
							<stop  offset="0.8763" style="stop-color:#1A1A1A"/>
						</linearGradient>
						<path style="fill:url(#SVGID_00000163758826394737930160000011832862738233891223_);" d="M281.531,275.059
							c-0.397,0.23-0.35,0.635,0.108,0.898l2.042,1.162c0.46,0.262,1.165,0.283,1.566,0.05l1.775-1.046
							c0.396-0.228,0.348-0.635-0.11-0.896l-2.057-1.166c-0.452-0.254-1.152-0.277-1.557-0.046L281.531,275.059z"/>
						
							<linearGradient id="SVGID_00000101098239143846570740000014190895178229253020_" gradientUnits="userSpaceOnUse" x1="276.6094" y1="272.9493" x2="282.6381" y2="272.9493">
							<stop  offset="0" style="stop-color:#404040"/>
							<stop  offset="0.8763" style="stop-color:#1A1A1A"/>
						</linearGradient>
						<path style="fill:url(#SVGID_00000101098239143846570740000014190895178229253020_);" d="M276.874,272.416
							c-0.393,0.234-0.344,0.639,0.114,0.899l2.048,1.162c0.457,0.264,1.156,0.284,1.553,0.053l1.783-1.048
							c0.393-0.231,0.344-0.638-0.11-0.896l-2.053-1.163c-0.464-0.265-1.16-0.286-1.556-0.05L276.874,272.416z"/>
						
							<linearGradient id="SVGID_00000064346880793740010810000000899013735353644170_" gradientUnits="userSpaceOnUse" x1="317.4672" y1="286.5764" x2="323.4991" y2="286.5764">
							<stop  offset="0" style="stop-color:#404040"/>
							<stop  offset="0.8763" style="stop-color:#1A1A1A"/>
						</linearGradient>
						<path style="fill:url(#SVGID_00000064346880793740010810000000899013735353644170_);" d="M317.738,286.041
							c-0.398,0.234-0.353,0.637,0.108,0.9l2.05,1.164c0.456,0.258,1.158,0.279,1.555,0.045l1.779-1.039
							c0.399-0.232,0.348-0.637-0.111-0.9l-2.048-1.164c-0.46-0.256-1.156-0.279-1.554-0.047L317.738,286.041z"/>
						
							<linearGradient id="SVGID_00000057107619660311417950000000437056802796728468_" gradientUnits="userSpaceOnUse" x1="312.8168" y1="283.9345" x2="318.8478" y2="283.9345">
							<stop  offset="0" style="stop-color:#404040"/>
							<stop  offset="0.8763" style="stop-color:#1A1A1A"/>
						</linearGradient>
						<path style="fill:url(#SVGID_00000057107619660311417950000000437056802796728468_);" d="M313.087,283.398
							c-0.4,0.236-0.351,0.639,0.11,0.898l2.048,1.164c0.456,0.262,1.154,0.283,1.557,0.051l1.774-1.047
							c0.4-0.229,0.353-0.633-0.112-0.893l-2.044-1.166c-0.46-0.26-1.162-0.281-1.56-0.049L313.087,283.398z"/>
						
							<linearGradient id="SVGID_00000040544776327833749070000007407838481034238879_" gradientUnits="userSpaceOnUse" x1="308.1669" y1="281.2914" x2="314.196" y2="281.2914">
							<stop  offset="0" style="stop-color:#404040"/>
							<stop  offset="0.8763" style="stop-color:#1A1A1A"/>
						</linearGradient>
						<path style="fill:url(#SVGID_00000040544776327833749070000007407838481034238879_);" d="M308.439,280.762
							c-0.404,0.229-0.35,0.633,0.108,0.895l2.046,1.16c0.46,0.262,1.158,0.287,1.555,0.053l1.781-1.045
							c0.396-0.234,0.346-0.637-0.112-0.898l-2.049-1.162c-0.458-0.26-1.156-0.283-1.561-0.049L308.439,280.762z"/>
						
							<linearGradient id="SVGID_00000164475218566650565970000011105422027766249113_" gradientUnits="userSpaceOnUse" x1="303.5121" y1="278.6491" x2="309.5429" y2="278.6491">
							<stop  offset="0" style="stop-color:#404040"/>
							<stop  offset="0.8763" style="stop-color:#1A1A1A"/>
						</linearGradient>
						<path style="fill:url(#SVGID_00000164475218566650565970000011105422027766249113_);" d="M303.785,278.115
							c-0.4,0.234-0.357,0.637,0.11,0.896l2.048,1.166c0.458,0.258,1.158,0.281,1.557,0.053l1.775-1.049
							c0.397-0.23,0.348-0.637-0.115-0.896l-2.037-1.162c-0.467-0.262-1.167-0.285-1.567-0.05L303.785,278.115z"/>
						
							<linearGradient id="SVGID_00000152235085446932713890000004288868002337237144_" gradientUnits="userSpaceOnUse" x1="298.8616" y1="276.0064" x2="304.893" y2="276.0064">
							<stop  offset="0" style="stop-color:#404040"/>
							<stop  offset="0.8763" style="stop-color:#1A1A1A"/>
						</linearGradient>
						<path style="fill:url(#SVGID_00000152235085446932713890000004288868002337237144_);" d="M299.128,275.473
							c-0.394,0.232-0.348,0.636,0.121,0.898l2.04,1.16c0.465,0.264,1.165,0.285,1.563,0.053l1.77-1.044
							c0.402-0.231,0.351-0.638-0.11-0.893l-2.044-1.165c-0.456-0.263-1.158-0.286-1.558-0.052L299.128,275.473z"/>
						
							<linearGradient id="SVGID_00000098182757130265473890000014802557922282492848_" gradientUnits="userSpaceOnUse" x1="294.2123" y1="273.3648" x2="300.241" y2="273.3648">
							<stop  offset="0" style="stop-color:#404040"/>
							<stop  offset="0.8763" style="stop-color:#1A1A1A"/>
						</linearGradient>
						<path style="fill:url(#SVGID_00000098182757130265473890000014802557922282492848_);" d="M294.478,272.829
							c-0.395,0.237-0.344,0.638,0.112,0.896l2.05,1.168c0.454,0.258,1.156,0.283,1.557,0.047l1.773-1.039
							c0.4-0.236,0.352-0.641-0.105-0.9l-2.049-1.162c-0.46-0.261-1.16-0.281-1.558-0.051L294.478,272.829z"/>
						
							<linearGradient id="SVGID_00000023239079141789632250000002933785411194977412_" gradientUnits="userSpaceOnUse" x1="289.5608" y1="270.7222" x2="295.5891" y2="270.7222">
							<stop  offset="0" style="stop-color:#404040"/>
							<stop  offset="0.8763" style="stop-color:#1A1A1A"/>
						</linearGradient>
						<path style="fill:url(#SVGID_00000023239079141789632250000002933785411194977412_);" d="M289.83,270.19
							c-0.398,0.231-0.349,0.638,0.114,0.895l2.044,1.164c0.456,0.262,1.16,0.285,1.561,0.052l1.773-1.044
							c0.396-0.23,0.348-0.637-0.113-0.897l-2.046-1.161c-0.454-0.266-1.158-0.285-1.561-0.049L289.83,270.19z"/>
						
							<linearGradient id="SVGID_00000181088648074437435530000010035278464128227003_" gradientUnits="userSpaceOnUse" x1="284.9094" y1="268.0796" x2="290.9402" y2="268.0796">
							<stop  offset="0" style="stop-color:#404040"/>
							<stop  offset="0.8763" style="stop-color:#1A1A1A"/>
						</linearGradient>
						<path style="fill:url(#SVGID_00000181088648074437435530000010035278464128227003_);" d="M285.179,267.55
							c-0.4,0.228-0.348,0.634,0.108,0.892l2.054,1.166c0.457,0.26,1.152,0.279,1.551,0.051l1.777-1.046
							c0.4-0.233,0.352-0.638-0.108-0.896l-2.049-1.165c-0.458-0.259-1.162-0.281-1.558-0.048L285.179,267.55z"/>
						
							<linearGradient id="SVGID_00000057140351942944879740000011689019819292625813_" gradientUnits="userSpaceOnUse" x1="280.2558" y1="265.4376" x2="286.2869" y2="265.4376">
							<stop  offset="0" style="stop-color:#404040"/>
							<stop  offset="0.8763" style="stop-color:#1A1A1A"/>
						</linearGradient>
						<path style="fill:url(#SVGID_00000057140351942944879740000011689019819292625813_);" d="M280.527,264.904
							c-0.4,0.232-0.353,0.637,0.112,0.895l2.048,1.163c0.459,0.263,1.158,0.288,1.557,0.052l1.771-1.043
							c0.402-0.231,0.353-0.638-0.103-0.897l-2.051-1.164c-0.456-0.259-1.156-0.283-1.554-0.053L280.527,264.904z"/>
						
							<linearGradient id="SVGID_00000084527864553666100510000004530438525092339106_" gradientUnits="userSpaceOnUse" x1="275.6065" y1="262.7948" x2="281.6353" y2="262.7948">
							<stop  offset="0" style="stop-color:#404040"/>
							<stop  offset="0.8763" style="stop-color:#1A1A1A"/>
						</linearGradient>
						<path style="fill:url(#SVGID_00000084527864553666100510000004530438525092339106_);" d="M275.87,262.26
							c-0.393,0.235-0.337,0.635,0.111,0.9l2.056,1.162c0.452,0.261,1.159,0.281,1.557,0.051l1.773-1.043
							c0.397-0.232,0.348-0.639-0.108-0.899l-2.044-1.163c-0.463-0.26-1.167-0.283-1.567-0.05L275.87,262.26z"/>
					</g>
					<g>
						
							<linearGradient id="SVGID_00000173120027055689409180000011329974813156807070_" gradientUnits="userSpaceOnUse" x1="322.4697" y1="298.933" x2="341.9259" y2="298.933">
							<stop  offset="0" style="stop-color:#404040"/>
							<stop  offset="0.8763" style="stop-color:#1A1A1A"/>
						</linearGradient>
						<path style="fill:url(#SVGID_00000173120027055689409180000011329974813156807070_);" d="M341.272,299.539l-6.45,3.779
							c-3.217,1.865-7.954,1.834-10.865,0.471c-1.777-0.828-2.443-4.412,0.768-6.277l7.012-4.066
							C334.954,291.584,344.49,297.676,341.272,299.539z"/>
						<path style="fill:#FAFAFA;" d="M341.869,299.141c0,0-2.619-0.799-7.047,2.164c-3.696,2.471-8.075,4.088-10.865,2.484
							c-2.796-1.604-2.443-6.43,0.768-8.293l7.012-4.07c1.833-1.057,6.327-0.908,8.904,1.391
							C342.593,294.56,343.256,298.338,341.869,299.141z"/>
					</g>
					<g>
						
							<linearGradient id="SVGID_00000170263163358821677240000001060271785156097927_" gradientUnits="userSpaceOnUse" x1="275.0933" y1="226.1145" x2="324.4585" y2="226.1145">
							<stop  offset="0" style="stop-color:#404040"/>
							<stop  offset="0.8763" style="stop-color:#1A1A1A"/>
						</linearGradient>
						<path style="fill:url(#SVGID_00000170263163358821677240000001060271785156097927_);" d="M324.458,222.669
							c0,0-0.041-0.092-0.041,0.733c0,0.514-0.213,1.06-0.938,1.473l-26.64,14.997c-1.163,0.661-2.942,0.717-3.948,0.124
							l-17.128-10.048c-0.538-0.316-0.667-0.742-0.667-1.194c0-1.075-0.004-0.796-0.004-0.796l27.464-15.602
							c1.163-0.661,2.942-0.717,3.959-0.124L324.458,222.669z"/>
						<path style="fill:#FFFFFF;" d="M323.761,221.626c1.012,0.597,0.885,1.621-0.277,2.286l-26.636,14.991
							c-1.166,0.665-2.95,0.721-3.954,0.127l-17.122-10.042c-1.013-0.598-0.89-1.623,0.279-2.284l26.633-14.995
							c1.163-0.664,2.942-0.721,3.959-0.127L323.761,221.626z"/>
						
							<linearGradient id="SVGID_00000063618355993390898650000004537404509706440351_" gradientUnits="userSpaceOnUse" x1="280.6333" y1="224.3692" x2="322.273" y2="224.3692">
							<stop  offset="0" style="stop-color:#C4C4C4"/>
							<stop  offset="0.8763" style="stop-color:#1A1A1A"/>
						</linearGradient>
						<polygon style="fill:url(#SVGID_00000063618355993390898650000004537404509706440351_);" points="280.633,225.449 
							299.534,236.185 322.273,223.294 303.368,212.553 						"/>
						<path style="fill:#231E1B;" d="M285.185,232.181c0-0.583,0.84-1.058,1.882-1.058c1.044,0,1.888,0.474,1.888,1.058
							c0,0.575-0.844,1.05-1.888,1.05C286.025,233.23,285.185,232.756,285.185,232.181z"/>
					</g>
					<g>
						<polygon style="fill:#335F78;" points="280.623,205.932 280.533,214.226 313.742,194.922 313.92,186.577 						"/>
						<polygon style="fill:#49809E;" points="254.848,191.128 280.623,205.932 313.92,186.577 288.023,171.791 						"/>
						<polygon style="fill:#5697BA;" points="254.848,191.128 280.623,205.932 280.533,214.226 254.631,199.445 						"/>
						<polygon style="fill:#FFFFFF;" points="282.422,206.455 282.367,211.605 302.982,199.62 305.162,195.972 303.095,194.441 
													"/>
						<path style="fill:#FFFFFF;" d="M309.039,196.092c-0.866,0.506-1.733,0.065-1.936-0.981c-0.197-1.042,0.347-2.301,1.213-2.808
							c0.869-0.506,1.729-0.063,1.928,0.979C310.448,194.326,309.906,195.585,309.039,196.092z"/>
					</g>
					<polygon style="opacity:0.1;" points="392.739,276.617 398.952,276.617 432.205,257.418 419.653,250.17 					"/>
					<polygon style="opacity:0.1;" points="288.512,214.256 280.533,214.226 313.742,194.922 321.811,194.901 					"/>
					<g>
						<path style="opacity:0.1;" d="M270.794,211.396c-0.11-0.754-1.096-0.751-1.096-0.751l-1.739,0.25
							c-0.825-2.628-4.746-4.636-9.488-4.636c-5.349,0-9.655,2.545-9.655,5.657c0,3.108,4.307,5.642,9.655,5.642
							c4.406,0,8.075-1.735,9.24-4.083c0.715-0.241,1.436-0.514,1.998-0.799C270.378,212.336,270.903,212.152,270.794,211.396z"/>
						<g>
							
								<linearGradient id="SVGID_00000052782979883504197490000005322560743723730609_" gradientUnits="userSpaceOnUse" x1="239.395" y1="212.4816" x2="261.6626" y2="212.4816">
								<stop  offset="0" style="stop-color:#E6E6E6"/>
								<stop  offset="0.8763" style="stop-color:#BFBFBF"/>
							</linearGradient>
							<path style="fill:url(#SVGID_00000052782979883504197490000005322560743723730609_);" d="M239.395,212.492
								c0-3.591,4.958-6.523,11.132-6.523c6.158,0,11.136,2.932,11.136,6.523c0,3.583-4.978,6.502-11.136,6.502
								C244.353,218.994,239.395,216.074,239.395,212.492z"/>
							
								<linearGradient id="SVGID_00000116215416421273945280000003134100632177885369_" gradientUnits="userSpaceOnUse" x1="240.7534" y1="212.481" x2="260.3062" y2="212.481">
								<stop  offset="0.1237" style="stop-color:#D9D9D9"/>
								<stop  offset="1" style="stop-color:#E6E6E6"/>
							</linearGradient>
							<path style="fill:url(#SVGID_00000116215416421273945280000003134100632177885369_);" d="M240.753,212.488
								c0-3.002,4.357-5.461,9.774-5.461c5.404,0,9.779,2.458,9.779,5.461c0,3.003-4.375,5.447-9.779,5.447
								C245.11,217.935,240.753,215.491,240.753,212.488z"/>
							<g>
								
									<linearGradient id="SVGID_00000148634307409979435090000004211442654745613476_" gradientUnits="userSpaceOnUse" x1="260.1888" y1="201.1782" x2="260.4671" y2="212.7759">
									<stop  offset="0" style="stop-color:#E6E6E6"/>
									<stop  offset="0.8763" style="stop-color:#878787"/>
								</linearGradient>
								<path style="fill:url(#SVGID_00000148634307409979435090000004211442654745613476_);" d="M257.796,210.061l-1.051-1.496
									c1.979-1.387,5.157-4.256,5.259-6.052c0.023-0.38-0.048-0.569-0.098-0.603c-0.261-0.171-1.219,0.046-1.982,0.443
									l-0.848-1.621c0.401-0.208,2.477-1.221,3.818-0.357c0.467,0.302,1.011,0.936,0.934,2.245
									C263.64,205.878,258.392,209.644,257.796,210.061z"/>
							</g>
							
								<linearGradient id="SVGID_00000044155430741192852890000004968944610861386166_" gradientUnits="userSpaceOnUse" x1="240.8491" y1="209.4182" x2="260.2153" y2="209.4182">
								<stop  offset="0" style="stop-color:#FFFFFF"/>
								<stop  offset="0.8763" style="stop-color:#BFBFBF"/>
							</linearGradient>
							<path style="fill:url(#SVGID_00000044155430741192852890000004968944610861386166_);" d="M240.849,203.801l1.669,7.007
								c0.746,2.843,3.573,4.676,8.009,4.676c4.432,0,7.226-1.833,8.013-4.676l1.676-7.456L240.849,203.801z"/>
							
								<linearGradient id="SVGID_00000145016238424053362210000006299329688652004539_" gradientUnits="userSpaceOnUse" x1="240.8491" y1="203.3448" x2="260.2153" y2="203.3448">
								<stop  offset="0" style="stop-color:#E6E6E6"/>
								<stop  offset="0.8763" style="stop-color:#B3B3B3"/>
							</linearGradient>
							<path style="fill:url(#SVGID_00000145016238424053362210000006299329688652004539_);" d="M240.849,203.352
								c0-3.121,4.316-5.672,9.678-5.672c5.356,0,9.688,2.551,9.688,5.672c0,3.115-4.332,5.657-9.688,5.657
								C245.165,209.009,240.849,206.467,240.849,203.352z"/>
							
								<linearGradient id="SVGID_00000180337531288720141920000003469315330695610518_" gradientUnits="userSpaceOnUse" x1="242.0308" y1="203.3443" x2="259.0318" y2="203.3443">
								<stop  offset="0.1237" style="stop-color:#878787"/>
								<stop  offset="1" style="stop-color:#E6E6E6"/>
							</linearGradient>
							<path style="fill:url(#SVGID_00000180337531288720141920000003469315330695610518_);" d="M242.031,203.352
								c0-2.613,3.787-4.75,8.496-4.75c4.7,0,8.505,2.138,8.505,4.75c0,2.609-3.805,4.736-8.505,4.736
								C245.818,208.087,242.031,205.961,242.031,203.352z"/>
							<path style="fill:#735540;" d="M250.527,201.551c-3.775,0-6.919,1.384-8.036,3.273c1.117,1.888,4.261,3.263,8.036,3.263
								c3.768,0,6.923-1.375,8.042-3.263C257.45,202.935,254.295,201.551,250.527,201.551z"/>
						</g>
					</g>
					<path style="opacity:0.1;" d="M355.276,251.203c0.602,0.355,0.528,0.965-0.163,1.359l-21.633,12.288
						c-0.693,0.394-1.756,0.425-2.35,0.073l-10.183-5.97c-0.602-0.354-0.524-0.964,0.167-1.356l21.631-12.29
						c0.691-0.394,1.746-0.427,2.354-0.075L355.276,251.203z"/>
					<g>
						
							<linearGradient id="SVGID_00000077307495102414956840000004072530890812823178_" gradientUnits="userSpaceOnUse" x1="319.3501" y1="255.0841" x2="354.4946" y2="255.0841">
							<stop  offset="0" style="stop-color:#404040"/>
							<stop  offset="0.8763" style="stop-color:#1A1A1A"/>
						</linearGradient>
						<path style="fill:url(#SVGID_00000077307495102414956840000004072530890812823178_);" d="M354.495,250.627
							c0,0-0.023,0.569-0.023,1.063c0,0.306-0.127,0.632-0.563,0.877l-21.631,12.288c-0.691,0.392-1.75,0.426-2.348,0.075
							l-10.182-5.974c-0.321-0.189-0.398-0.441-0.398-0.71c0-0.64,0-1.103,0-1.103l22.195-11.831
							c0.691-0.394,1.75-0.425,2.353-0.075L354.495,250.627z"/>
						<path style="fill:#FFFFFF;" d="M354.08,250.007c0.603,0.354,0.529,0.965-0.162,1.358l-21.633,12.289
							c-0.694,0.393-1.757,0.424-2.351,0.072l-10.182-5.969c-0.603-0.355-0.525-0.965,0.166-1.357l21.631-12.29
							c0.692-0.394,1.746-0.427,2.354-0.075L354.08,250.007z"/>
						
							<linearGradient id="SVGID_00000113313624061330964940000011974794603263115155_" gradientUnits="userSpaceOnUse" x1="322.7437" y1="253.2063" x2="353.4751" y2="253.2063">
							<stop  offset="0" style="stop-color:#C4C4C4"/>
							<stop  offset="0.8763" style="stop-color:#1A1A1A"/>
						</linearGradient>
						<polygon style="fill:url(#SVGID_00000113313624061330964940000011974794603263115155_);" points="322.744,254.799 
							335.307,261.94 353.475,251.613 340.906,244.473 						"/>
						<path style="fill:#231E1B;" d="M325.64,259.676c0-0.425,0.619-0.774,1.388-0.774c0.763,0,1.383,0.35,1.383,0.774
							c0,0.424-0.62,0.77-1.383,0.77C326.259,260.445,325.64,260.1,325.64,259.676z"/>
					</g>
					<path style="opacity:0.1;" d="M419.221,242.95c4.982,0-2.039-6.399-4.527-7.836l-54.72-31.592
						c-2.484-1.439-44.427,0.69-44.427,0.69c0,2.872,0,5.017,4.522,7.835l54.721,31.591
						C374.79,243.639,414.24,242.95,419.221,242.95z"/>
					<g>
						
							<linearGradient id="SVGID_00000052067929142736401140000003641168016016617633_" gradientUnits="userSpaceOnUse" x1="338.1792" y1="202.6066" x2="338.1792" y2="242.159">
							<stop  offset="0.1237" style="stop-color:#1A1A1A"/>
							<stop  offset="1" style="stop-color:#404040"/>
						</linearGradient>
						<path style="fill:url(#SVGID_00000052067929142736401140000003641168016016617633_);" d="M339.193,203.523v18.993
							c0,1.433-1.017,3.197-2.263,3.917l-12.113,7.104l12.342,7.204l12.12-7.11c1.246-0.714,2.263-2.48,2.263-3.917v-18.992
							L339.193,203.523z"/>
						<g>
							
								<linearGradient id="SVGID_00000080907432090258248190000012752813987817893536_" gradientUnits="userSpaceOnUse" x1="312.605" y1="196.0374" x2="377.9829" y2="196.0374">
								<stop  offset="0" style="stop-color:#404040"/>
								<stop  offset="0.8763" style="stop-color:#1A1A1A"/>
							</linearGradient>
							<path style="fill:url(#SVGID_00000080907432090258248190000012752813987817893536_);" d="M373.46,186.814l-54.725-31.599
								c-1.14-0.658-2.175-0.744-2.975-0.388l-0.009-0.013l-0.073,0.044c-0.096,0.047-0.185,0.102-0.271,0.164l-2.803,1.683
								l1.608,2.137v36.97c0,2.872,2.042,6.402,4.522,7.836l51.697,29.851l2.982,3.958l2.93-1.788
								c0.241-0.095,0.46-0.226,0.656-0.399l0.073-0.045l-0.009-0.009c0.568-0.546,0.919-1.415,0.919-2.583v-37.983
								C377.983,191.775,375.947,188.246,373.46,186.814z"/>
							<path style="fill:#FFFFFF;" d="M374.749,196.557c0-2.874-2.04-6.399-4.527-7.836l-54.721-31.592
								c-2.483-1.439-4.522-0.263-4.522,2.61v37.984c0,2.872,2.038,6.396,4.522,7.835l54.721,31.591
								c2.487,1.439,4.527,0.263,4.527-2.611V196.557z"/>
							
								<linearGradient id="SVGID_00000054224160876681496220000014002691656346047124_" gradientUnits="userSpaceOnUse" x1="310.98" y1="215.3836" x2="374.7495" y2="215.3836">
								<stop  offset="0" style="stop-color:#FFFFFF"/>
								<stop  offset="0.8763" style="stop-color:#BFBFBF"/>
							</linearGradient>
							<path style="fill:url(#SVGID_00000054224160876681496220000014002691656346047124_);" d="M310.98,193.003v4.72
								c0,2.872,2.038,6.396,4.522,7.835l54.721,31.591c2.487,1.439,4.527,0.263,4.527-2.611v-4.713L310.98,193.003z"/>
							<g>
								<polygon style="fill:#FA4949;" points="325.998,197.78 318.956,193.715 318.956,178.776 325.998,182.841 								"/>
								<polygon style="fill:#FAFA49;" points="351.72,212.632 344.678,208.567 344.678,186.692 351.72,190.756 								"/>
								<polygon style="fill:#36B868;" points="364.582,220.058 357.54,215.993 357.54,187.088 364.582,191.153 								"/>
								<polygon style="fill:#49BFFA;" points="338.859,205.206 331.817,201.141 331.817,190.205 338.859,194.269 								"/>
							</g>
							<g>
								<g>
									<path style="fill:#CCCBC9;" d="M313.493,157.581c0.433,0,0.942,0.163,1.476,0.472l54.721,31.592
										c2.165,1.25,3.994,4.415,3.994,6.912v37.982c0,0.649-0.142,2.159-1.449,2.159c-0.434,0-0.944-0.163-1.479-0.472
										l-54.72-31.59c-2.162-1.253-3.989-4.418-3.989-6.912V159.74C312.046,159.091,312.188,157.581,313.493,157.581
										 M313.493,156.515c-1.485,0-2.513,1.184-2.513,3.225v37.984c0,2.872,2.038,6.396,4.522,7.835l54.721,31.591
										c0.721,0.417,1.404,0.614,2.012,0.614c1.487,0,2.516-1.184,2.516-3.225v-37.982c0-2.874-2.04-6.399-4.527-7.836
										l-54.721-31.592C314.782,156.712,314.099,156.515,313.493,156.515L313.493,156.515z"/>
								</g>
							</g>
						</g>
					</g>
					<g>
						<g>
							<polygon style="fill:#335F78;" points="392.831,268.32 392.739,276.617 425.947,257.311 426.13,248.965 							"/>
							<polygon style="fill:#49809E;" points="367.057,253.52 392.831,268.32 426.13,248.965 400.231,234.181 							"/>
							<polygon style="fill:#5697BA;" points="367.057,253.52 392.831,268.32 392.739,276.617 366.836,261.832 							"/>
							<polygon style="fill:#FFFFFF;" points="394.632,268.844 394.576,273.992 415.188,262.012 417.372,258.361 415.3,256.83 
															"/>
							<path style="fill:#FFFFFF;" d="M421.247,258.482c-0.867,0.504-1.731,0.061-1.934-0.983c-0.197-1.044,0.342-2.3,1.209-2.804
								c0.87-0.507,1.735-0.069,1.931,0.975C422.655,256.716,422.118,257.975,421.247,258.482z"/>
						</g>
						<g>
							<polygon style="fill:#335F78;" points="393.02,258.832 392.93,267.127 426.141,247.823 426.32,239.478 							"/>
							<polygon style="fill:#49809E;" points="367.245,244.029 393.02,258.832 426.32,239.478 400.422,224.692 							"/>
							<polygon style="fill:#5697BA;" points="367.245,244.029 393.02,258.832 392.93,267.127 367.029,252.347 							"/>
							<polygon style="fill:#FFFFFF;" points="394.822,259.355 394.766,264.506 415.379,252.521 417.561,248.874 415.492,247.344 
															"/>
							<path style="fill:#FFFFFF;" d="M421.438,248.992c-0.866,0.506-1.733,0.067-1.938-0.979c-0.197-1.044,0.346-2.303,1.213-2.809
								c0.871-0.506,1.73-0.063,1.929,0.979C422.844,247.227,422.303,248.486,421.438,248.992z"/>
						</g>
						<g>
							<polygon style="fill:#335F78;" points="393.21,249.349 393.118,257.641 426.332,238.335 426.511,229.99 							"/>
							<polygon style="fill:#49809E;" points="367.439,234.541 393.21,249.349 426.511,229.99 400.61,215.206 							"/>
							<polygon style="fill:#5697BA;" points="367.439,234.541 393.21,249.349 393.118,257.641 367.218,242.856 							"/>
							<polygon style="fill:#FFFFFF;" points="395.013,249.869 394.957,255.02 415.569,243.036 417.753,239.385 415.679,237.855 
															"/>
							<path style="fill:#FFFFFF;" d="M421.628,239.505c-0.868,0.507-1.73,0.065-1.933-0.98c-0.198-1.045,0.341-2.301,1.208-2.808
								c0.871-0.505,1.733-0.066,1.932,0.977C423.037,237.739,422.497,239,421.628,239.505z"/>
						</g>
					</g>
				</g>
			</g>
			<g>
				<g>
					
						<linearGradient id="SVGID_00000080205749944250977790000009616413375793889168_" gradientUnits="userSpaceOnUse" x1="394.0679" y1="359.6114" x2="431.8716" y2="359.6114">
						<stop  offset="0" style="stop-color:#FFFFFF"/>
						<stop  offset="0.8763" style="stop-color:#BFBFBF"/>
					</linearGradient>
					<path style="fill:url(#SVGID_00000080205749944250977790000009616413375793889168_);" d="M394.068,342.988l3.267,24.994
						c0,5.031,6.97,9.131,15.628,9.131c8.651,0,15.641-4.1,15.641-9.131l3.269-25.873L394.068,342.988z"/>
					
						<linearGradient id="SVGID_00000168103318635366817470000006949691744275259028_" gradientUnits="userSpaceOnUse" x1="394.0679" y1="342.0967" x2="431.8716" y2="342.0967">
						<stop  offset="0" style="stop-color:#E6E6E6"/>
						<stop  offset="0.8763" style="stop-color:#B3B3B3"/>
					</linearGradient>
					<path style="fill:url(#SVGID_00000168103318635366817470000006949691744275259028_);" d="M394.068,342.109
						c0-6.086,8.419-11.07,18.895-11.07c10.453,0,18.909,4.984,18.909,11.07c0,6.086-8.456,11.045-18.909,11.045
						C402.487,353.154,394.068,348.195,394.068,342.109z"/>
					<path style="fill:#475F4F;" d="M396.378,342.109c0-5.104,7.392-9.272,16.584-9.272c9.174,0,16.598,4.168,16.598,9.272
						c0,5.096-7.424,9.246-16.598,9.246C403.77,351.355,396.378,347.205,396.378,342.109z"/>
				</g>
				<g>
					<defs>
						<path id="SVGID_00000155118474314305514660000004837653395787194265_" d="M396.378,342.109
							c0-1.264-39.821-27.588-39.001-33.525c2.496-18.045,47.892-49.361,54.81-49.361c6.112,0,54.853,21.428,57.736,39.711
							c1.441,9.16-40.364,41.473-40.364,43.176c0,5.096-7.424,9.246-16.598,9.246C403.77,351.355,396.378,347.205,396.378,342.109z"
							/>
					</defs>
					<clipPath id="SVGID_00000117649024158315153750000010109627751712281759_">
						<use xlink:href="#SVGID_00000155118474314305514660000004837653395787194265_"  style="overflow:visible;"/>
					</clipPath>
					<g style="clip-path:url(#SVGID_00000117649024158315153750000010109627751712281759_);">
						
							<linearGradient id="SVGID_00000011749407912109143720000006498678988411035315_" gradientUnits="userSpaceOnUse" x1="396.4109" y1="277.5694" x2="414.9401" y2="346.8087">
							<stop  offset="0" style="stop-color:#0A8C48"/>
							<stop  offset="0.8763" style="stop-color:#1A5532"/>
						</linearGradient>
						<path style="fill:url(#SVGID_00000011749407912109143720000006498678988411035315_);" d="M408.733,348.943
							c0.231-0.137-5.792-28.768-10.932-44.549c-4.915-15.912-4.329-25.473-4.224-25.527c0.271,0.002,16.989,9.719,17.956,35.178
							c1.436,25.285,0.052,36.617,0.135,36.568C410.707,350.049,409.727,349.492,408.733,348.943z"/>
						
							<linearGradient id="SVGID_00000106114704932485950280000013621869292731634591_" gradientUnits="userSpaceOnUse" x1="370.0533" y1="330.4873" x2="413.9146" y2="330.4873">
							<stop  offset="0" style="stop-color:#0A8C48"/>
							<stop  offset="0.8763" style="stop-color:#1A5532"/>
						</linearGradient>
						<path style="fill:url(#SVGID_00000106114704932485950280000013621869292731634591_);" d="M411.319,355.111
							c-9.426-17.422-23.181-31.873-41.264-49.248c-0.225,0.678,19.164,4.404,31.294,20.547
							c11.729,16.992,12.28,28.684,12.565,28.563C413.05,355.018,412.183,355.066,411.319,355.111z"/>
						
							<linearGradient id="SVGID_00000177477177875604094000000010077387243740103101_" gradientUnits="userSpaceOnUse" x1="378.1997" y1="324.3346" x2="413.8999" y2="324.3346">
							<stop  offset="0" style="stop-color:#0CA555"/>
							<stop  offset="0.8763" style="stop-color:#216E42"/>
						</linearGradient>
						<path style="fill:url(#SVGID_00000177477177875604094000000010077387243740103101_);" d="M410.918,355.904
							c-6.879-23.06-17.784-43.566-32.719-64.035c0.04,0.465,20.912,7.59,28.36,30.211c7.484,23.053,7.088,34.861,7.34,34.719
							C412.915,356.498,411.923,356.197,410.918,355.904z"/>
						
							<linearGradient id="SVGID_00000085235396812972458850000003235453255188062119_" gradientUnits="userSpaceOnUse" x1="425.0724" y1="268.1006" x2="412.0692" y2="349.6904">
							<stop  offset="0" style="stop-color:#0A8C48"/>
							<stop  offset="0.8763" style="stop-color:#1A5532"/>
						</linearGradient>
						<path style="fill:url(#SVGID_00000085235396812972458850000003235453255188062119_);" d="M415.511,348.391
							c-0.231,0.137,5.371-30.908,10.267-50.016c4.672-18.975,3.942-29.077,3.836-29.023c-0.271,0.031-16.786,19.078-17.393,44.557
							c-1.075,25.703,0.467,36.584,0.381,36.633C413.556,349.832,414.528,349.115,415.511,348.391z"/>
						
							<linearGradient id="SVGID_00000172440932237632296860000013039023204394344832_" gradientUnits="userSpaceOnUse" x1="364.8271" y1="331.4307" x2="411.9956" y2="331.4307">
							<stop  offset="0" style="stop-color:#0CA555"/>
							<stop  offset="0.8763" style="stop-color:#216E42"/>
						</linearGradient>
						<path style="fill:url(#SVGID_00000172440932237632296860000013039023204394344832_);" d="M409.569,352.277
							c-10.966-13.818-25.877-25.105-44.738-41.693c-0.286,0.615,17.095,4.619,31.285,17.506
							c13.689,13.697,15.626,23.57,15.88,23.531C411.183,351.846,410.375,352.063,409.569,352.277z"/>
						
							<linearGradient id="SVGID_00000096751869789922263660000013695039610068558227_" gradientUnits="userSpaceOnUse" x1="411.8918" y1="347.2374" x2="452.8498" y2="291.0026">
							<stop  offset="0.1237" style="stop-color:#1A5532"/>
							<stop  offset="1" style="stop-color:#0A8C48"/>
						</linearGradient>
						<path style="fill:url(#SVGID_00000096751869789922263660000013695039610068558227_);" d="M414.644,353.098
							c9.573-18.578,23.477-40.117,41.704-58.686c0.225-0.686-19.348,4.037-31.614,26.453c-11.86,21.563-12.44,32.277-12.726,32.396
							C412.887,353.205,413.767,353.148,414.644,353.098z"/>
						
							<linearGradient id="SVGID_00000047028904292129824600000008397010781357215128_" gradientUnits="userSpaceOnUse" x1="412.023" y1="315.6642" x2="448.0806" y2="315.6642">
							<stop  offset="0.1237" style="stop-color:#216E42"/>
							<stop  offset="1" style="stop-color:#0CA555"/>
						</linearGradient>
						<path style="fill:url(#SVGID_00000047028904292129824600000008397010781357215128_);" d="M415.052,353.859
							c6.981-24.158,17.994-50.861,33.028-77.595c-0.037-0.469-21.094,14.956-28.621,41.698
							c-7.569,26.313-7.187,36.967-7.437,37.111C413.023,354.674,414.034,354.266,415.052,353.859z"/>
						
							<linearGradient id="SVGID_00000132078531016073798220000010077849598468835508_" gradientUnits="userSpaceOnUse" x1="413.9566" y1="326.7504" x2="461.6563" y2="326.7504">
							<stop  offset="0.1237" style="stop-color:#216E42"/>
							<stop  offset="1" style="stop-color:#0CA555"/>
						</linearGradient>
						<path style="fill:url(#SVGID_00000132078531016073798220000010077849598468835508_);" d="M416.421,349.975
							c11.13-15.512,26.205-33.551,45.231-46.213c0.287-0.615-17.272-1.441-31.616,17.672
							c-13.845,18.297-15.826,28.186-16.08,28.225C414.784,349.762,415.602,349.865,416.421,349.975z"/>
					</g>
				</g>
			</g>
		</g>
		<g style="clip-path:url(#SVGID_00000088092940745374022930000013252949780884070326_);">
			<path style="opacity:0.1;" d="M286.979,410.832l2.494-1.469c0.439-0.26,0.744-0.549,0.928-0.859
				c0.365-0.625,0.168-1.301-0.602-1.746l-36.728-21.23c-1.154-0.662-3.172-0.584-4.504,0.188l-26.664,15.703
				c-7.127-0.404-13.568-0.688-18.287-0.742l6.432-9.77v-2.775l-12.335,11.4l-28.083-12.826l-2.548,4.547l23.141,10.746
				c-0.252,0.18-0.46,0.371-0.631,0.572l-40.103,4.406v2.775c0,0,41.77-3.488,43.538-2.504l-2.644,14.354v2.775l7.695-14.34
				c12.591,6.906,34.98,18.824,39.565,18.824c6.457,0,14.346-0.051,14.346-0.051l0.127,0.074c0.186,0.105,0.619,0.059,1.191-0.078
				l57.564-0.203l5.406-3.414L286.979,410.832z"/>
			<g>
				<g>
					<path style="fill:#404142;" d="M181.144,425.877c0-2.893,2.342-5.236,5.24-5.236c2.89,0,5.238,2.344,5.238,5.236
						c0,2.896-2.349,5.236-5.238,5.236C183.486,431.113,181.144,428.773,181.144,425.877z"/>
					<g>
						<path style="fill:#404142;" d="M231.336,407.016c-0.773-2.895-3.746-5.238-6.639-5.238c-2.893,0-4.609,2.344-3.838,5.238
							c0.777,2.895,3.748,5.238,6.641,5.238C230.397,412.254,232.114,409.91,231.336,407.016z"/>
						<path style="fill:#404142;" d="M229.088,408.445c-0.769-2.895-3.74-5.242-6.635-5.242c-2.895,0-4.609,2.348-3.838,5.242
							c0.779,2.893,3.752,5.236,6.641,5.236C228.153,413.682,229.87,411.338,229.088,408.445z"/>
					</g>
					<g>
						<path style="fill:#404142;" d="M142.005,406.978c0.775-2.893,3.748-5.24,6.642-5.24c2.894,0,4.608,2.348,3.835,5.24
							c-0.779,2.893-3.748,5.236-6.64,5.236C142.947,412.215,141.228,409.871,142.005,406.978z"/>
						<path style="fill:#404142;" d="M144.253,408.408c0.771-2.897,3.742-5.242,6.636-5.242c2.894,0,4.611,2.346,3.838,5.242
							c-0.777,2.893-3.748,5.234-6.642,5.234C145.191,413.643,143.472,411.301,144.253,408.408z"/>
					</g>
					<g>
						<path style="fill:#404142;" d="M170.915,386.014c-0.775-2.893-3.744-5.238-6.64-5.238c-2.892,0-4.608,2.346-3.837,5.238
							c0.779,2.896,3.75,5.238,6.644,5.238C169.976,391.252,171.693,388.91,170.915,386.014z"/>
						<path style="fill:#404142;" d="M168.672,387.443c-0.775-2.896-3.746-5.24-6.638-5.24c-2.894,0-4.613,2.344-3.838,5.24
							c0.775,2.896,3.746,5.236,6.64,5.236C167.732,392.68,169.449,390.34,168.672,387.443z"/>
					</g>
					<g>
						<path style="fill:#404142;" d="M201.018,386.709c0.775-2.897,3.742-5.24,6.637-5.24s4.611,2.344,3.838,5.24
							c-0.777,2.893-3.748,5.232-6.641,5.232C201.956,391.941,200.241,389.602,201.018,386.709z"/>
						<path style="fill:#404142;" d="M203.26,388.133c0.775-2.891,3.748-5.24,6.639-5.24c2.895,0,4.613,2.35,3.838,5.24
							c-0.775,2.896-3.746,5.236-6.643,5.236C204.2,393.369,202.485,391.029,203.26,388.133z"/>
					</g>
					<g>
						
							<linearGradient id="SVGID_00000024721711866422015880000007649002440298012841_" gradientUnits="userSpaceOnUse" x1="180.9517" y1="385.6055" x2="191.8071" y2="385.6055">
							<stop  offset="0" style="stop-color:#FFFFFF"/>
							<stop  offset="0.8763" style="stop-color:#BFBFBF"/>
						</linearGradient>
						<path style="fill:url(#SVGID_00000024721711866422015880000007649002440298012841_);" d="M186.383,370.943
							c-3,0-5.432,1.662-5.432,3.713v21.902c0,2.051,2.432,3.709,5.432,3.709c2.992,0,5.424-1.658,5.424-3.709v-21.902
							C191.807,372.605,189.375,370.943,186.383,370.943z"/>
						<path style="fill:#E0E5E8;" d="M180.952,374.656c0-2.051,2.432-3.713,5.432-3.713c2.992,0,5.424,1.662,5.424,3.713
							c0,2.051-2.432,3.709-5.424,3.709C183.383,378.365,180.952,376.707,180.952,374.656z"/>
					</g>
					<g>
						<path style="fill:#404142;" d="M186.383,360.924c-1.502,0-2.719,0.826-2.719,1.852v10.957c0,1.025,1.217,1.852,2.719,1.852
							c1.498,0,2.713-0.826,2.713-1.852v-10.957C189.096,361.75,187.881,360.924,186.383,360.924z"/>
					</g>
					<rect x="185.291" y="387.815" style="fill:#E0E5E8;" width="2.176" height="35.176"/>
					
						<linearGradient id="SVGID_00000090995714388080892310000012069565640218218425_" gradientUnits="userSpaceOnUse" x1="191.8071" y1="395.8838" x2="225.8032" y2="395.8838">
						<stop  offset="0.1237" style="stop-color:#BFBFBF"/>
						<stop  offset="1" style="stop-color:#FFFFFF"/>
					</linearGradient>
					<polygon style="fill:url(#SVGID_00000090995714388080892310000012069565640218218425_);" points="191.807,387.27 
						225.803,401.234 225.803,404.498 191.807,396.338 					"/>
					
						<linearGradient id="SVGID_00000039093697494880473310000001903515077172628610_" gradientUnits="userSpaceOnUse" x1="163.9922" y1="387.9034" x2="180.9038" y2="387.9034">
						<stop  offset="0" style="stop-color:#FFFFFF"/>
						<stop  offset="0.8763" style="stop-color:#BFBFBF"/>
					</linearGradient>
					<polygon style="fill:url(#SVGID_00000039093697494880473310000001903515077172628610_);" points="180.904,387.27 
						163.992,379.469 163.992,382.734 180.904,396.338 					"/>
					
						<linearGradient id="SVGID_00000178164438188114608030000010646864064724355249_" gradientUnits="userSpaceOnUse" x1="191.8071" y1="387.9034" x2="208.3794" y2="387.9034">
						<stop  offset="0.1237" style="stop-color:#BFBFBF"/>
						<stop  offset="1" style="stop-color:#FFFFFF"/>
					</linearGradient>
					<polygon style="fill:url(#SVGID_00000178164438188114608030000010646864064724355249_);" points="191.807,387.27 
						208.379,379.469 208.379,382.734 191.807,396.338 					"/>
					
						<linearGradient id="SVGID_00000039834359946273890820000012203731244017554616_" gradientUnits="userSpaceOnUse" x1="146.5659" y1="395.8838" x2="180.9038" y2="395.8838">
						<stop  offset="0" style="stop-color:#FFFFFF"/>
						<stop  offset="0.8763" style="stop-color:#BFBFBF"/>
					</linearGradient>
					<polygon style="fill:url(#SVGID_00000039834359946273890820000012203731244017554616_);" points="180.904,387.27 
						146.566,401.234 146.566,404.498 180.904,396.338 					"/>
				</g>
				<g>
					<g>
						<path style="fill:#335F78;" d="M186.615,331.766c-1.15-0.66-3.175-0.58-4.509,0.186c0,0-32.7,10.688-33.496,11.158
							c-1.663,0.977-2.523,1.129-2.51,3.5c0.012,1.865,1.471,3.066,2.837,3.818l36.729,21.225c1.15,0.672,3.176,0.58,4.505-0.186
							l32.849-19.338c1.465-1.035,2.525-1.916,2.516-3.945c-0.01-2.234-1.113-3.125-2.24-3.758
							C221.055,343.174,186.615,331.766,186.615,331.766z"/>
					</g>
					<path style="fill:#335F78;" d="M186.567,323.195c-1.154-0.662-3.173-0.582-4.505,0.188l-32.854,19.35
						c-1.327,0.754-1.469,1.93-0.325,2.594l36.73,21.227c1.158,0.668,3.186,0.588,4.511-0.18l32.848-19.34
						c1.334-0.768,1.473-1.941,0.324-2.607L186.567,323.195z"/>
					
						<linearGradient id="SVGID_00000176031577188647286920000015062005359325863317_" gradientUnits="userSpaceOnUse" x1="148.109" y1="344.7322" x2="224.0755" y2="344.7322">
						<stop  offset="0.2675" style="stop-color:#335F78"/>
						<stop  offset="0.8966" style="stop-color:#49809E"/>
					</linearGradient>
					<path style="fill:url(#SVGID_00000176031577188647286920000015062005359325863317_);" d="M223.899,346.172
						c0.363-0.625,0.168-1.299-0.604-1.746l-36.728-21.23c-1.154-0.662-3.173-0.582-4.505,0.188l-32.854,19.35
						c-0.436,0.248-0.748,0.539-0.921,0.852c-0.365,0.621-0.171,1.297,0.596,1.742l36.73,21.227
						c1.158,0.668,1.173-0.785,4.511-2.855c3.336-2.078,7.001-1.445,7.001-1.445s4.015-4.483,6.97-6.779
						c2.955-2.293,6.42-1.104,6.42-1.104s3.563-4.408,5.92-6.162c2.354-1.754,6.537-1.174,6.537-1.174
						C223.411,346.772,223.715,346.482,223.899,346.172L223.899,346.172z"/>
				</g>
				<g>
					<g>
						
							<linearGradient id="SVGID_00000044170939330132470840000016457773965573853597_" gradientUnits="userSpaceOnUse" x1="144.3452" y1="329.2021" x2="194.9146" y2="329.2021">
							<stop  offset="0.3333" style="stop-color:#49809E"/>
							<stop  offset="0.8763" style="stop-color:#335F78"/>
						</linearGradient>
						<path style="fill:url(#SVGID_00000044170939330132470840000016457773965573853597_);" d="M148.612,347.94
							c0,1.328,1.088,3.037,2.417,3.808l35.867,28.533c0,0,2.586-0.762,4.636-1.963c1.611-0.939,2.744-2.352,2.936-2.508
							c0.281-0.24,0.447-0.621,0.447-1.141c0,0-0.637-8.82-0.637-12.896c0-4.068-4.713-10.945-4.713-26.219
							c0-15.273,2.175-20.389,2.175-25.469c0-5.076-0.375-7.623-0.375-7.623c0-1.328-6.767-12.957-18.52-19.648
							c-11.602-6.604-20.489-4.363-20.93-4.178c-0.213,0.094-2.332,0.531-4.086,1.557c-1.923,1.133-3.483,2.848-3.483,2.848
							L148.612,347.94z"/>
					</g>
					<path style="fill:#8A7E76;" d="M141.222,352.266c0,1.328,1.085,3.045,2.417,3.807l41.463,23.945
						c1.336,0.766,2.415,0.307,2.415-1.018l-3.553-72.211c0-1.324-1.077-3.031-2.413-3.801l-35.323-19.746
						c-1.331-0.77-2.417-0.305-2.417,1.016L141.222,352.266z"/>
					
						<linearGradient id="SVGID_00000018221279525704577270000004305078262113722789_" gradientUnits="userSpaceOnUse" x1="164.3696" y1="283.3318" x2="164.3696" y2="369.6088">
						<stop  offset="0.3333" style="stop-color:#5697BA"/>
						<stop  offset="0.8763" style="stop-color:#49809E"/>
					</linearGradient>
					<path style="fill:url(#SVGID_00000018221279525704577270000004305078262113722789_);" d="M145.02,282.875
						c-0.721,0-1.208,0.498-1.208,1.383l-2.589,68.008c0,1.328,1.756,4.928,19.739,16.547c7.14,4.611,24.141,11.205,24.141,11.205
						c0.448,0.246,0.856,0.371,1.207,0.371c0.725,0,1.208-0.502,1.208-1.389l-3.553-72.211c0-1.324-1.971-10.201-15.634-17.988
						C154.666,281.02,145.376,282.875,145.02,282.875L145.02,282.875z"/>
				</g>
			</g>
		</g>
	</g>
</g>
<g id="DESIGNED_BY_FREEPIK">
	<g>
		<g id="XMLID_29_">
			<g id="XMLID_48_">
				<path id="XMLID_56_" style="fill:#F9FBFC;" d="M261.441,39.231c-0.488,0.502-0.91,1.055-1.254,1.646l-0.527-0.273
					c-0.076-0.336-0.397-0.568-0.746-0.527c-0.375,0.043-0.643,0.383-0.6,0.758c0.045,0.375,0.385,0.643,0.76,0.6
					c0.072-0.01,0.143-0.029,0.207-0.061l0.512,0.266c-0.285,0.627-0.49,1.289-0.611,1.975l0.846,0.15
					c0.26-1.48,0.961-2.84,2.029-3.934L261.441,39.231z"/>
				<path id="XMLID_55_" style="fill:#F9FBFC;" d="M267.656,36.625c-0.193,0-0.387,0.006-0.578,0.018l-0.082-0.709
					c0.211-0.168,0.334-0.44,0.301-0.729c-0.053-0.445-0.455-0.764-0.9-0.711c-0.445,0.051-0.764,0.455-0.711,0.9
					c0.033,0.287,0.213,0.521,0.457,0.639l0.084,0.707c-0.809,0.131-1.59,0.375-2.332,0.73l0.369,0.775
					c1.059-0.508,2.199-0.764,3.393-0.764c0.563,0,1.123,0.061,1.67,0.18l0.182-0.84C268.902,36.692,268.279,36.625,267.656,36.625z
					"/>
				<path id="XMLID_54_" style="fill:#F9FBFC;" d="M275.132,39.51c0.375-0.047,0.641-0.387,0.596-0.762
					c-0.047-0.375-0.387-0.641-0.762-0.596c-0.351,0.043-0.607,0.344-0.6,0.689l-0.473,0.41c-0.473-0.486-1.006-0.92-1.594-1.289
					l-0.457,0.726c1.285,0.809,2.287,1.955,2.902,3.313l0.783-0.354c-0.285-0.629-0.644-1.215-1.068-1.75l0.455-0.398
					C274.986,39.514,275.058,39.518,275.132,39.51z"/>
				<path id="XMLID_53_" style="fill:#F9FBFC;" d="M267.035,48.184c-0.436,0.026-0.877,0.04-1.309,0.04
					c-0.998,0-1.963-0.069-2.807-0.203c-0.443-0.07-0.959-0.176-1.439-0.331c1.186,2.108,3.477,3.539,6.102,3.539
					c3.234,0,5.959-2.17,6.738-5.101c-0.773,0.509-1.705,0.935-2.785,1.271C270.201,47.817,268.642,48.087,267.035,48.184z"/>
				<path id="XMLID_49_" style="fill:#F9FBFC;" d="M267.656,38.342c-3.797,0-6.885,3.02-6.885,6.73c0,0.48,0.053,0.96,0.156,1.427
					c0.762,0.547,3.063,1.008,6.055,0.828c3.26-0.196,5.998-1.084,7.555-2.444c-0.006-0.221-0.023-0.441-0.051-0.658
					C274.056,40.872,271.119,38.342,267.656,38.342z M265.21,45.718c-1.154,0-2.096-0.938-2.096-2.095
					c0-1.154,0.941-2.094,2.096-2.094c1.154,0,2.094,0.939,2.094,2.094C267.304,44.78,266.365,45.718,265.21,45.718z M270.576,44.69
					c-0.85,0-1.541-0.689-1.541-1.539c0-0.85,0.691-1.541,1.541-1.541c0.85,0,1.539,0.691,1.539,1.541
					C272.115,44,271.425,44.69,270.576,44.69z"/>
			</g>
			<path id="XMLID_46_" style="fill:#F9FBFC;" d="M285.779,40.456c-0.334-0.131-0.914-0.35-1.566-0.268
				c-0.623,0.076-0.955,0.385-0.955,1.139v0.98h2.521v1.945h-2.521v6.177h-2.188v-6.177h-1.517v-1.945h1.517v-1.006
				c0-1.902,1.014-3.15,2.908-3.15c0.727,0,1.311,0.137,1.801,0.35V40.456z"/>
			<path id="XMLID_44_" style="fill:#F9FBFC;" d="M291.103,44.229c-0.199-0.033-0.404-0.053-0.596-0.053
				c-1.014,0-1.709,0.621-1.709,1.827v4.426h-2.188v-8.122h2.119v0.889c0.512-0.762,1.291-1.105,2.289-1.105
				c0.469,0,0.959,0.145,1.238,0.381L291.103,44.229z"/>
			<path id="XMLID_41_" style="fill:#F9FBFC;" d="M299.785,46.356c0,0.251-0.016,0.553-0.041,0.737h-5.758
				c0.234,1.173,1.057,1.685,2.086,1.685c0.705,0,1.467-0.285,2.055-0.779l1.281,1.408c-0.922,0.846-2.096,1.231-3.461,1.231
				c-2.488,0-4.215-1.693-4.215-4.249c0-2.557,1.676-4.299,4.105-4.299C298.175,42.09,299.777,43.825,299.785,46.356z
				 M293.994,45.601h3.596c-0.201-1.038-0.83-1.626-1.768-1.626C294.79,43.975,294.187,44.596,293.994,45.601z"/>
			<path id="XMLID_38_" style="fill:#F9FBFC;" d="M308.453,46.356c0,0.251-0.018,0.553-0.043,0.737h-5.758
				c0.234,1.173,1.057,1.685,2.088,1.685c0.703,0,1.467-0.285,2.053-0.779l1.283,1.408c-0.922,0.846-2.096,1.231-3.463,1.231
				c-2.488,0-4.215-1.693-4.215-4.249c0-2.557,1.676-4.299,4.105-4.299C306.843,42.09,308.443,43.825,308.453,46.356z
				 M302.66,45.601h3.596c-0.201-1.038-0.83-1.626-1.768-1.626C303.457,43.975,302.853,44.596,302.66,45.601z"/>
			<path id="XMLID_35_" style="fill:#F9FBFC;" d="M317.902,46.364c0,2.439-1.691,4.274-3.93,4.274c-1.09,0-1.861-0.428-2.389-1.056
				v4.199h-2.18V42.307h2.137v0.899c0.529-0.662,1.309-1.115,2.424-1.115C316.21,42.09,317.902,43.926,317.902,46.364z
				 M311.474,46.364c0,1.282,0.846,2.238,2.088,2.238c1.289,0,2.094-0.998,2.094-2.238c0-1.24-0.805-2.236-2.094-2.236
				C312.32,44.127,311.474,45.083,311.474,46.364z"/>
			<path id="XMLID_32_" style="fill:#F9FBFC;" d="M321.417,39.651c0,0.787-0.613,1.391-1.4,1.391s-1.391-0.604-1.391-1.391
				c0-0.787,0.603-1.408,1.391-1.408S321.417,38.864,321.417,39.651z M321.124,50.429h-2.188v-8.122h2.188V50.429z"/>
			<path id="XMLID_30_" style="fill:#F9FBFC;" d="M324.775,45.199l3.059-2.892h2.682l-3.94,3.822l3.965,4.3h-2.689l-3.076-3.286
				v3.286h-2.188V38.36h2.188V45.199z"/>
		</g>
		<g>
			<path style="fill:#F9FBFC;" d="M175.728,50.355v-1.194c-0.598,0.813-1.576,1.394-2.703,1.394c-2.091,0-3.566-1.592-3.566-4.196
				c0-2.555,1.459-4.213,3.566-4.213c1.078,0,2.057,0.531,2.703,1.41v-4.264h1.244v11.063H175.728z M175.728,48.182v-3.631
				c-0.447-0.697-1.41-1.295-2.405-1.295c-1.608,0-2.571,1.326-2.571,3.102c0,1.774,0.963,3.085,2.571,3.085
				C174.318,49.443,175.281,48.879,175.728,48.182z"/>
			<path style="fill:#F9FBFC;" d="M178.582,46.341c0-2.321,1.658-4.196,3.947-4.196c2.422,0,3.848,1.891,3.848,4.296v0.315h-6.484
				c0.1,1.509,1.16,2.77,2.886,2.77c0.912,0,1.841-0.365,2.472-1.012l0.597,0.813c-0.796,0.797-1.874,1.228-3.185,1.228
				C180.29,50.554,178.582,48.846,178.582,46.341z M182.512,43.174c-1.708,0-2.554,1.443-2.62,2.669h5.258
				C185.132,44.649,184.337,43.174,182.512,43.174z"/>
			<path style="fill:#F9FBFC;" d="M187.273,49.293l0.646-0.896c0.531,0.614,1.543,1.145,2.637,1.145c1.229,0,1.892-0.58,1.892-1.377
				c0-1.94-4.96-0.746-4.96-3.716c0-1.242,1.078-2.305,2.986-2.305c1.359,0,2.322,0.514,2.969,1.162l-0.58,0.861
				c-0.481-0.58-1.361-1.012-2.389-1.012c-1.096,0-1.775,0.547-1.775,1.262c0,1.757,4.959,0.596,4.959,3.714
				c0,1.344-1.077,2.422-3.15,2.422C189.197,50.554,188.085,50.156,187.273,49.293z"/>
			<path style="fill:#F9FBFC;" d="M195.052,40.37c0-0.463,0.381-0.846,0.829-0.846c0.464,0,0.846,0.383,0.846,0.846
				c0,0.465-0.382,0.83-0.846,0.83C195.433,41.2,195.052,40.834,195.052,40.37z M195.267,50.355v-8.011h1.244v8.011H195.267z"/>
			<path style="fill:#F9FBFC;" d="M198.568,52.412l0.631-0.929c0.663,0.797,1.459,1.095,2.604,1.095
				c1.327,0,2.571-0.646,2.571-2.404v-1.146c-0.581,0.813-1.559,1.427-2.688,1.427c-2.09,0-3.565-1.559-3.565-4.146
				c0-2.571,1.459-4.163,3.565-4.163c1.079,0,2.04,0.531,2.688,1.41v-1.211h1.244v7.779c0,2.653-1.858,3.483-3.815,3.483
				C200.443,53.607,199.513,53.341,198.568,52.412z M204.373,48.049v-3.498c-0.432-0.697-1.393-1.295-2.389-1.295
				c-1.608,0-2.571,1.277-2.571,3.052c0,1.758,0.963,3.052,2.571,3.052C202.98,49.36,203.942,48.747,204.373,48.049z"/>
			<path style="fill:#F9FBFC;" d="M213.098,50.355v-5.241c0-1.41-0.713-1.857-1.792-1.857c-0.979,0-1.907,0.598-2.371,1.244v5.854
				h-1.244v-8.011h1.244v1.162c0.564-0.664,1.658-1.361,2.853-1.361c1.675,0,2.555,0.846,2.555,2.588v5.622H213.098z"/>
			<path style="fill:#F9FBFC;" d="M215.951,46.341c0-2.321,1.659-4.196,3.948-4.196c2.421,0,3.849,1.891,3.849,4.296v0.315h-6.486
				c0.1,1.509,1.161,2.77,2.887,2.77c0.912,0,1.841-0.365,2.471-1.012l0.598,0.813c-0.797,0.797-1.875,1.228-3.184,1.228
				C217.66,50.554,215.951,48.846,215.951,46.341z M219.882,43.174c-1.709,0-2.555,1.443-2.621,2.669h5.258
				C222.503,44.649,221.707,43.174,219.882,43.174z"/>
			<path style="fill:#F9FBFC;" d="M231.145,50.355v-1.194c-0.597,0.813-1.575,1.394-2.704,1.394c-2.09,0-3.566-1.592-3.566-4.196
				c0-2.555,1.46-4.213,3.566-4.213c1.078,0,2.057,0.531,2.704,1.41v-4.264h1.243v11.063H231.145z M231.145,48.182v-3.631
				c-0.448-0.697-1.41-1.295-2.405-1.295c-1.609,0-2.57,1.326-2.57,3.102c0,1.774,0.961,3.085,2.57,3.085
				C229.735,49.443,230.697,48.879,231.145,48.182z"/>
			<path style="fill:#F9FBFC;" d="M238.327,50.355V39.292h1.243v4.264c0.648-0.879,1.609-1.41,2.705-1.41
				c2.09,0,3.566,1.658,3.566,4.213c0,2.604-1.477,4.196-3.566,4.196c-1.129,0-2.107-0.58-2.705-1.394v1.194H238.327z
				 M241.958,49.443c1.627,0,2.589-1.311,2.589-3.085c0-1.775-0.962-3.102-2.589-3.102c-0.979,0-1.957,0.598-2.389,1.295v3.631
				C240.001,48.879,240.98,49.443,241.958,49.443z"/>
			<path style="fill:#F9FBFC;" d="M247.201,52.363c0.182,0.083,0.48,0.133,0.68,0.133c0.547,0,0.912-0.183,1.195-0.847l0.53-1.211
				l-3.351-8.094h1.344l2.67,6.568l2.654-6.568h1.359l-4.014,9.637c-0.48,1.161-1.293,1.609-2.355,1.626
				c-0.266,0-0.68-0.05-0.912-0.116L247.201,52.363z"/>
		</g>
	</g>
</g>
</svg>
