<?xml version="1.0" encoding="utf-8"?>
<!-- Generator: Adobe Illustrator 27.5.0, SVG Export Plug-In . SVG Version: 6.00 Build 0)  -->
<svg version="1.1" xmlns="http://www.w3.org/2000/svg" xmlns:xlink="http://www.w3.org/1999/xlink" x="0px" y="0px"
	 viewBox="0 0 500 500" style="enable-background:new 0 0 500 500;" xml:space="preserve">
<g id="BACKGROUND">
	<rect style="fill:#FFFFFF;" width="500" height="500"/>
</g>
<g id="OBJECTS">
	<g>
		<defs>
			<rect id="SVGID_1_" width="500" height="500"/>
		</defs>
		<clipPath id="SVGID_00000150087445243811846970000016161705593282486437_">
			<use xlink:href="#SVGID_1_"  style="overflow:visible;"/>
		</clipPath>
		<g style="clip-path:url(#SVGID_00000150087445243811846970000016161705593282486437_);">
			<circle style="fill:#F0F4F7;" cx="184.082" cy="212.423" r="160.192"/>
			<g>
				<rect x="208.325" y="404.075" style="fill:#CDD9E8;" width="169.613" height="33.277"/>
				<rect x="233.086" y="387.436" style="fill:#E2EAF2;" width="120.092" height="16.639"/>
			</g>
			<rect x="-8.192" y="437.352" style="fill:#E2EAF2;" width="516.454" height="86.82"/>
			<g>
				<g>
					<rect x="150.387" y="31.272" style="fill:#DAE6EF;" width="9.787" height="428.275"/>
					<rect x="288.853" y="31.272" style="fill:#DAE6EF;" width="9.787" height="428.275"/>
					<g>
						<rect x="160.174" y="31.272" style="fill:#9FB7CE;" width="128.68" height="35.532"/>
						<rect x="165.47" y="36.216" style="fill:#DAE6EF;" width="119.324" height="25.643"/>
						<g>
							<rect x="171.346" y="40.263" style="fill:#FFFFFF;" width="49.782" height="6.235"/>
							<rect x="171.346" y="51.578" style="fill:#FFFFFF;" width="49.782" height="6.235"/>
						</g>
						<rect x="224.513" y="40.263" style="fill:#9FB7CE;" width="4.048" height="17.549"/>
						<rect x="231.062" y="40.263" style="fill:#9FB7CE;" width="4.048" height="17.549"/>
						<rect x="237.61" y="40.263" style="fill:#9FB7CE;" width="4.048" height="17.549"/>
						<rect x="244.159" y="40.263" style="fill:#9FB7CE;" width="4.048" height="17.549"/>
						<rect x="250.707" y="40.263" style="fill:#9FB7CE;" width="4.048" height="17.549"/>
						<rect x="257.256" y="40.263" style="fill:#9FB7CE;" width="4.048" height="17.549"/>
						<path style="fill:#FFFFFF;" d="M276.924,49.038c0,2.827-2.292,5.119-5.119,5.119c-2.827,0-5.12-2.292-5.12-5.119
							c0-2.827,2.292-5.119,5.12-5.119C274.632,43.918,276.924,46.211,276.924,49.038z"/>
					</g>
					<g>
						<rect x="160.174" y="72.349" style="fill:#9FB7CE;" width="128.68" height="35.532"/>
						<rect x="165.47" y="77.294" style="fill:#DAE6EF;" width="119.324" height="25.643"/>
						<g>
							<rect x="171.346" y="81.341" style="fill:#FFFFFF;" width="49.782" height="6.235"/>
							<rect x="171.346" y="92.655" style="fill:#FFFFFF;" width="49.782" height="6.235"/>
						</g>
						<rect x="224.513" y="81.341" style="fill:#9FB7CE;" width="4.048" height="17.549"/>
						<rect x="231.062" y="81.341" style="fill:#9FB7CE;" width="4.048" height="17.549"/>
						<rect x="237.61" y="81.341" style="fill:#9FB7CE;" width="4.048" height="17.549"/>
						<rect x="244.159" y="81.341" style="fill:#9FB7CE;" width="4.048" height="17.549"/>
						<rect x="250.707" y="81.341" style="fill:#9FB7CE;" width="4.048" height="17.549"/>
						<rect x="257.256" y="81.341" style="fill:#9FB7CE;" width="4.048" height="17.549"/>
						<path style="fill:#FFFFFF;" d="M276.924,90.115c0,2.827-2.292,5.119-5.119,5.119c-2.827,0-5.12-2.292-5.12-5.119
							s2.292-5.119,5.12-5.119C274.632,84.996,276.924,87.288,276.924,90.115z"/>
					</g>
					<g>
						<rect x="160.174" y="113.427" style="fill:#9FB7CE;" width="128.68" height="35.532"/>
						<rect x="165.47" y="118.371" style="fill:#DAE6EF;" width="119.324" height="25.643"/>
						<g>
							<rect x="171.346" y="122.418" style="fill:#FFFFFF;" width="49.782" height="6.235"/>
							<rect x="171.346" y="133.733" style="fill:#FFFFFF;" width="49.782" height="6.235"/>
						</g>
						<rect x="224.513" y="122.418" style="fill:#9FB7CE;" width="4.048" height="17.549"/>
						<rect x="231.062" y="122.418" style="fill:#9FB7CE;" width="4.048" height="17.549"/>
						<rect x="237.61" y="122.418" style="fill:#9FB7CE;" width="4.048" height="17.549"/>
						<rect x="244.159" y="122.418" style="fill:#9FB7CE;" width="4.048" height="17.549"/>
						<rect x="250.707" y="122.418" style="fill:#9FB7CE;" width="4.048" height="17.549"/>
						<rect x="257.256" y="122.418" style="fill:#9FB7CE;" width="4.048" height="17.549"/>
						<path style="fill:#FFFFFF;" d="M276.924,131.193c0,2.827-2.292,5.119-5.119,5.119c-2.827,0-5.12-2.292-5.12-5.119
							c0-2.827,2.292-5.119,5.12-5.119C274.632,126.073,276.924,128.365,276.924,131.193z"/>
					</g>
					<g>
						<rect x="160.174" y="255.718" style="fill:#9FB7CE;" width="128.68" height="35.532"/>
						<rect x="165.47" y="260.663" style="fill:#DAE6EF;" width="119.324" height="25.643"/>
						<g>
							<rect x="171.346" y="264.709" style="fill:#FFFFFF;" width="49.782" height="6.235"/>
							<rect x="171.346" y="276.024" style="fill:#FFFFFF;" width="49.782" height="6.235"/>
						</g>
						<rect x="224.513" y="264.709" style="fill:#9FB7CE;" width="4.048" height="17.549"/>
						<rect x="231.062" y="264.709" style="fill:#9FB7CE;" width="4.048" height="17.549"/>
						<rect x="237.61" y="264.709" style="fill:#9FB7CE;" width="4.048" height="17.549"/>
						<rect x="244.159" y="264.709" style="fill:#9FB7CE;" width="4.048" height="17.549"/>
						<rect x="250.707" y="264.709" style="fill:#9FB7CE;" width="4.048" height="17.549"/>
						<rect x="257.256" y="264.709" style="fill:#9FB7CE;" width="4.048" height="17.549"/>
						<path style="fill:#FFFFFF;" d="M276.924,273.484c0,2.827-2.292,5.119-5.119,5.119c-2.827,0-5.12-2.292-5.12-5.119
							s2.292-5.12,5.12-5.12C274.632,268.365,276.924,270.657,276.924,273.484z"/>
					</g>
					<g>
						<rect x="160.174" y="296.679" style="fill:#9FB7CE;" width="128.68" height="35.532"/>
						<rect x="165.47" y="301.624" style="fill:#DAE6EF;" width="119.324" height="25.643"/>
						<g>
							<rect x="171.346" y="305.67" style="fill:#FFFFFF;" width="49.782" height="6.235"/>
							<rect x="171.346" y="316.985" style="fill:#FFFFFF;" width="49.782" height="6.235"/>
						</g>
						<rect x="224.513" y="305.67" style="fill:#9FB7CE;" width="4.048" height="17.549"/>
						<rect x="231.062" y="305.67" style="fill:#9FB7CE;" width="4.048" height="17.549"/>
						<rect x="237.61" y="305.67" style="fill:#9FB7CE;" width="4.048" height="17.549"/>
						<rect x="244.159" y="305.67" style="fill:#9FB7CE;" width="4.048" height="17.549"/>
						<rect x="250.707" y="305.67" style="fill:#9FB7CE;" width="4.048" height="17.549"/>
						<rect x="257.256" y="305.67" style="fill:#9FB7CE;" width="4.048" height="17.549"/>
						<path style="fill:#FFFFFF;" d="M276.924,314.445c0,2.827-2.292,5.12-5.119,5.12c-2.827,0-5.12-2.292-5.12-5.12
							c0-2.827,2.292-5.119,5.12-5.119C274.632,309.326,276.924,311.618,276.924,314.445z"/>
					</g>
					<rect x="160.174" y="238.614" style="fill:#DAE6EF;" width="128.68" height="7.616"/>
					<g>
						<rect x="164.135" y="152.991" style="fill:#9FB7CE;" width="120.658" height="76.301"/>
						<rect x="211.551" y="211.684" style="fill:#9FB7CE;" width="25.827" height="26.93"/>
						<rect x="167.446" y="156.788" style="fill:#425666;" width="113.243" height="68.359"/>
						<polygon style="fill:#556977;" points="243.452,156.788 167.446,221.158 167.446,197.275 209.131,156.788 						"/>
						<path style="fill:#556977;" d="M280.69,156.788v18.926c-22.844,15.35-52.608,35.33-73.765,49.433H189.71
							c21.785-18.014,60.205-49.825,82.277-68.359H280.69z"/>
					</g>
					
						<rect x="288.853" y="31.272" style="fill:none;stroke:#708699;stroke-linecap:round;stroke-miterlimit:10;" width="9.787" height="428.275"/>
					
						<rect x="150.387" y="31.272" style="fill:none;stroke:#708699;stroke-linecap:round;stroke-miterlimit:10;" width="9.787" height="428.275"/>
				</g>
				<g>
					<path style="fill:#F9D5BF;" d="M142.126,205.613c0,0,7.596,17.407,9.495,19.939c1.899,2.532,41.46,29.433,41.46,29.433
						l-6.292,12.877c0,0-49.409-17.624-53.84-23.954c-4.431-6.33-14.558-35.13-14.558-35.13L142.126,205.613z"/>
					<path style="fill:#5C7FBC;" d="M116.49,153.393c0,0,5.064,1.266,12.026,10.128c6.963,8.862,16.457,38.295,16.457,38.295
						l-24.37,13.925L116.49,153.393z"/>
					<g>
						<path style="fill:#351A16;" d="M175.143,459.467c-5.87,6.91-13.41,7.96-23.26,9.01c-9.85,1.05-20.11-2.3-20.11-2.3l-0.44-3.24
							l-1.38-10.21l-1.12-8.35l18.65-2.72c0,0-0.31-0.06,1.79,5.81c8.5-1.21,20.65,1.55,24.92,9.63
							C174.583,457.827,174.903,458.617,175.143,459.467z"/>
						<path style="fill:#FFFFFF;" d="M149.273,447.467c0,0-4.76,7.44-19.32,5.26l-1.12-8.35l18.65-2.72
							C147.483,441.657,147.173,441.597,149.273,447.467z"/>
						<path style="fill:#210E0C;" d="M175.143,459.467c-5.87,6.91-13.41,7.96-23.26,9.01c-9.85,1.05-20.11-2.3-20.11-2.3l-0.44-3.24
							c7.98,2.28,26.58,5.54,42.86-5.84C174.583,457.827,174.903,458.617,175.143,459.467z"/>
						<path style="fill:#210E0C;" d="M152.61,445.496c0,0-3.34,5.465-2.732,7.438c0.607,1.973,7.286,1.973,8.045,0.455
							c0.759-1.518,2.581-5.617,1.67-7.135C158.682,444.737,152.61,445.496,152.61,445.496z"/>
					</g>
					<g>
						<path style="fill:#351A16;" d="M58.992,473.187c-8.87,1.877-15.478-1.904-23.913-7.098
							c-8.435-5.194-14.504-14.119-14.504-14.119l1.634-2.832l5.153-8.922l4.221-7.291l16.419,9.255c0,0-0.208-0.237-2.137,5.691
							c7.465,4.241,15.389,13.856,13.826,22.86C59.552,471.547,59.322,472.367,58.992,473.187z"/>
						<path style="fill:#FFFFFF;" d="M45.864,447.87c0,0-8.316,2.975-18.502-7.655l4.221-7.291l16.419,9.255
							C48.001,442.179,47.793,441.942,45.864,447.87z"/>
						<path style="fill:#210E0C;" d="M58.992,473.187c-8.87,1.877-15.478-1.904-23.913-7.098
							c-8.435-5.194-14.504-14.119-14.504-14.119l1.634-2.832c4.919,6.685,17.641,20.64,37.481,21.594
							C59.552,471.547,59.322,472.367,58.992,473.187z"/>
						<path style="fill:#210E0C;" d="M49.71,448.351c0,0-5.984,2.281-6.711,4.214c-0.726,1.933,4.558,6.018,6.087,5.281
							c1.529-0.737,5.477-2.865,5.685-4.623C54.978,451.465,49.71,448.351,49.71,448.351z"/>
					</g>
					<path style="fill:#502C26;" d="M62.326,262.78c0,0-3.117,25.456-2.597,34.807s-8.312,63.38-8.832,71.172
						s-21.819,66.497-21.819,66.497s7.273,13.507,24.936,10.91c15.585-32.729,26.495-67.016,29.092-74.809
						c2.598-7.793,15.066-50.392,15.066-50.392s12.988,48.314,14.027,56.626s14.546,69.614,14.546,69.614s11.429,5.715,22.858-4.675
						c-5.195-68.056-21.819-179.23-21.819-179.23L62.326,262.78z"/>
					<path style="fill:#6B8BD1;" d="M128.893,268.192c-22.54,13.23-67.48,0.33-67.48,0.33s-0.29-44.46,0.44-77.28
						c-7.51-14.45-8.27-32.14,3.11-37.97c0.8-0.41,6.29-2.9,10.93-4.31c7.23-2.2,16.88-2.97,16.88-2.97
						c16.19,0.86,32.48,7.5,35.23,24.05C131.103,188.612,129.453,211.422,128.893,268.192z"/>
					<path style="fill:none;stroke:#4264A0;stroke-linecap:round;stroke-miterlimit:10;" d="M127.562,167.956
						c2.226,25.981,1.168,88.933,1.168,88.933"/>
					<path style="fill:#5A2402;" d="M126.349,101.289c0,0,2.73,8.018,0,16.89c-6.142-8.018-8.36-19.108-8.36-19.108L126.349,101.289
						z"/>
					<path style="fill:#F9D5BF;" d="M87.42,154.577c5.513,5.39,19.851,8.761,22.187,6.814c1.136-0.946,1.303-4.744,1.184-8.4
						c-0.135-3.854-0.604-7.558-0.604-7.558s-10.387-2.599-17.071-6.652c-1.295-0.779-6.437-7.066-7.351-7.949
						C83.625,146.403,83.041,150.296,87.42,154.577z"/>
					<path style="fill:#FCA695;" d="M90.724,138.225c0,0,1.367,6.04,7.009,10.705c3.656,3.028,9.441,3.854,13.057,4.061
						c-0.135-3.854-0.604-7.558-0.604-7.558s-10.387-2.599-17.071-6.652L90.724,138.225z"/>
					<path style="fill:#F9D5BF;" d="M126.715,110.938c0.563,5.888,1.432,28.681-4.651,34.103c-8.953,7.98-30.699,1.561-36.59-13.04
						c-4.997-12.385-4.457-33.495,9.241-37.445C111.369,89.753,125.155,94.636,126.715,110.938z"/>
					<path style="fill:none;stroke:#DB7665;stroke-linecap:round;stroke-miterlimit:10;" d="M110.824,148.503
						c-8.339,1.252-20.744-7.238-24.459-14.602"/>
					<path style="fill:none;stroke:#DB7665;stroke-linecap:round;stroke-miterlimit:10;" d="M113.694,118.036
						c0,0,2.128,9.343,2.044,11.824c-0.085,2.48-4.817,1.46-5.839,0.146"/>
					<ellipse style="fill:#5A2402;" cx="118.803" cy="119.058" rx="1.752" ry="2.336"/>
					<path style="fill:#5A2402;" d="M123.278,102.654c0,0-7.336,3.071-15.866,2.389c-8.53-0.682-15.013-2.218-15.013-2.218
						s6.824,11.431,2.9,13.307c-3.924,1.877-0.341,11.26-0.341,11.26L84.21,126.88c0,0-4.265-11.431-2.559-22.349
						c1.706-10.919,13.69-16.635,24.738-15.354c11.772,1.365,17.402,8.018,19.961,12.113
						C124.984,102.313,123.278,102.654,123.278,102.654z"/>
					<path style="fill:#5A2402;" d="M101.433,119.642c0,1.29,0.784,2.336,1.752,2.336s1.752-1.046,1.752-2.336
						s-0.784-2.335-1.752-2.335S101.433,118.352,101.433,119.642z"/>
					<path style="fill:#F9D5BF;" d="M88.879,122.269c0,0-2.481-4.671-6.277-3.065c-3.32,1.405-2.773,4.817-1.752,7.444
						c1.022,2.628,4.087,5.255,6.277,5.109C89.317,131.611,91.507,128.838,88.879,122.269z"/>
					<path style="fill:#FCA695;" d="M88.15,127.67c0,0-3.649,1.606-4.525-3.503c-0.584-2.773,1.752-2.773,1.752-2.773
						S88.296,123.583,88.15,127.67z"/>
					<path style="fill:#5A2402;" d="M116.614,108.256c2.702-0.601,5.06,0.292,5.45,1.46c0.389,1.168-0.779,2.238-2.238,1.752
						c-1.46-0.487-2.919,0.876-4.087,0.389C114.57,111.37,113.986,108.84,116.614,108.256z"/>
					<path style="fill:#5A2402;" d="M104.316,109.035c-2.702-0.6-5.06,0.292-5.45,1.46c-0.389,1.168,0.779,2.238,2.238,1.752
						c1.46-0.487,2.919,0.876,4.087,0.389C106.36,112.149,106.944,109.619,104.316,109.035z"/>
					<path style="fill:none;stroke:#DB7665;stroke-linecap:round;stroke-miterlimit:10;" d="M87.566,128.692
						c1.411-1.314,0.301-5.945-2.19-7.298c-2.238-1.216-3.211,1.898-3.211,1.898"/>
					<path style="fill:none;stroke:#DB7665;stroke-linecap:round;stroke-miterlimit:10;" d="M87.42,123.68
						c0,0-2.53-0.292-2.822,2.044"/>
					<path style="fill:#FFFFFF;" d="M112.517,133.68c0,0-3.157,0.132-5.394-1.447c-2.236-1.579-2.302-0.197-1.908,0.987
						c0.395,1.184,2.302,2.697,4.473,3.026C111.859,136.574,113.569,134.469,112.517,133.68z"/>
					<path style="fill:#F9D5BF;" d="M110.12,198.24l14.102,12.255c0,0,42.291-20.283,44.881-21.577
						c2.589-1.295,9.063,10.789,9.063,10.789s-40.997,37.113-57.396,34.092c-16.399-3.021-27.158-15.987-27.158-15.987l10.211-9.701
						L110.12,198.24z"/>
					<path style="fill:none;stroke:#DB7665;stroke-linecap:round;stroke-miterlimit:10;" d="M103.492,226.441
						c11.041,6.87,17.842,9.568,28.994,5.791c8.485-2.874,45.679-32.525,45.679-32.525s7.269-2.198,13.543-10.355"/>
					<path style="fill:none;stroke:#4264A0;stroke-linecap:round;stroke-miterlimit:10;" d="M83.472,158.292l29.177,35.765
						c0,0-9.412,19.137-22.902,26.667c-14.745-12.863-26.667-28.236-26.667-28.236"/>
					<path style="fill:#F9D5BF;" d="M169.102,188.918c0,0,7.233-10.547,9.115-13.37c1.882-2.824,14.431-11.294,17.569-12.549
						s3.451,0.314,2.196,2.196c-1.255,1.882-7.843,7.843-7.843,7.843s6.275,4.706,7.843,8.157c1.569,3.451,1.569,6.275-0.941,8.157
						c-2.51,1.882-5.333,0-5.333,0s-6.38,10.044-13.543,10.355C170.375,195.626,169.102,188.918,169.102,188.918z"/>
					<path style="fill:none;stroke:#351A16;stroke-miterlimit:10;" d="M74.671,273.916c0,0,3.143,12.886-6.915,15.401"/>
					<path style="fill:none;stroke:#351A16;stroke-miterlimit:10;" d="M67.442,271.087c0,0-3.143,45.259-3.457,55.631
						c-0.314,10.372-5.343,44.316-5.343,44.316l-22.315,66.317"/>
					<path style="fill:none;stroke:#351A16;stroke-miterlimit:10;" d="M107.673,280.202c0,0-0.629,22.63-2.514,28.916
						c-1.886,6.286-6.915,10.372-6.915,10.372s3.143-12.572,3.457-17.915s-0.314-20.115-0.314-20.115L107.673,280.202z"/>
					<path style="fill:#F9D5BF;" d="M185.035,265.708c0,0,1.86,5.812,3.952,7.905c2.092,2.092,11.159,6.277,11.392,5.58
						c0.232-0.697,8.602-17.436,7.905-17.436c-0.698,0-18.134-6.045-18.134-6.045L185.035,265.708z"/>
					<path style="fill:none;stroke:#351A16;stroke-miterlimit:10;" d="M119.93,274.545c0,0,1.257,8.8,8.8,11.315"/>
					<g>
						<path style="fill:#425666;" d="M223.971,316.401l-34.409-16.66c-1.766-0.855-2.504-2.98-1.649-4.745l26.387-54.497
							c0.855-1.766,2.98-2.504,4.745-1.649l34.409,16.66c1.766,0.855,2.504,2.98,1.649,4.746l-26.387,54.496
							C227.861,316.517,225.737,317.256,223.971,316.401z"/>
						
							<rect x="202.89" y="249.036" transform="matrix(0.9 0.4358 -0.4358 0.9 143.2159 -68.7113)" style="fill:#FFFFFF;" width="37.014" height="57.634"/>
						
							<rect x="220.885" y="248.76" transform="matrix(0.9 0.4358 -0.4358 0.9 133.1167 -76.8181)" style="fill:none;stroke:#DAE6EF;stroke-miterlimit:10;" width="26.271" height="6.045"/>
						
							<rect x="225.522" y="245.185" transform="matrix(0.9 0.4358 -0.4358 0.9 131.7314 -77.93)" style="fill:#9FB7CE;" width="20.459" height="6.045"/>
					</g>
					<path style="fill:#F9D5BF;" d="M191.778,255.246c0,0,9.532-5.347,13.252-4.882c3.72,0.465,9.532,3.487,11.624,4.65
						c2.092,1.162,0.697,5.115-3.952,3.952c-4.65-1.163-6.045-1.86-6.045-1.86s-3.487,6.045-7.672,6.277
						c-4.185,0.233-12.554-0.233-12.322-0.93C186.895,261.756,191.778,255.246,191.778,255.246z"/>
					<path style="fill:none;stroke:#DB7665;stroke-linecap:round;stroke-miterlimit:10;" d="M124.222,210.495
						c-2.228,4.606-1.922,10.229-1.922,10.229"/>
					<path style="fill:none;stroke:#DB7665;stroke-linecap:round;stroke-miterlimit:10;" d="M206.657,257.106
						c-4.975,7.291-11.399,5.673-11.399,5.673"/>
				</g>
			</g>
			<g>
				
					<line style="fill:none;stroke:#708699;stroke-linecap:round;stroke-miterlimit:10;" x1="395.459" y1="109.132" x2="395.459" y2="223.571"/>
				<rect x="344.919" y="215.241" style="fill:#DAE6EF;" width="105.62" height="90.429"/>
				<g>
					<g>
						
							<ellipse transform="matrix(0.2298 -0.9732 0.9732 0.2298 179.2305 414.9338)" style="fill:#DAE6EF;" cx="351.761" cy="94.233" rx="14.951" ry="14.951"/>
						<circle style="fill:#DAE6EF;" cx="431.354" cy="90.647" r="18.537"/>
						
							<ellipse transform="matrix(0.908 -0.4189 0.4189 0.908 5.2744 171.7059)" style="fill:#DAE6EF;" cx="393.686" cy="73.841" rx="35.335" ry="35.335"/>
						<rect x="350.221" y="89.058" style="fill:#DAE6EF;" width="81.133" height="20.126"/>
					</g>
					<path style="fill:none;stroke:#708699;stroke-linecap:round;stroke-miterlimit:10;" d="M431.354,72.11
						c-15.707,1.043-17.926,12.967-17.926,12.967"/>
					<path style="fill:none;stroke:#708699;stroke-linecap:round;stroke-miterlimit:10;" d="M358.679,78.593
						c2.065,14.524,13.711,21.901,13.711,21.901"/>
					
						<line style="fill:none;stroke:#708699;stroke-linecap:round;stroke-miterlimit:10;" x1="351.761" y1="109.184" x2="373.668" y2="109.184"/>
				</g>
				<g>
					<g>
						<path style="fill:#8EC098;" d="M395.651,180.255c-0.064,0.038-0.128,0.077-0.193,0.109c-0.064-0.032-0.129-0.071-0.193-0.109
							c-20.477-12.133-17.124-32.668-17.124-32.668l17.124-3.488l0.193-0.038l0.193,0.038l17.124,3.488
							C412.775,147.587,416.135,168.122,395.651,180.255z"/>
						<path style="fill:#76A87E;" d="M395.598,173.965c-0.046,0.027-0.093,0.053-0.139,0.075c-0.046-0.022-0.093-0.048-0.139-0.075
							c-14.773-8.33-12.354-22.428-12.354-22.428l12.354-2.395l0.139-0.027l0.139,0.027l12.354,2.395
							C407.952,151.538,410.376,165.635,395.598,173.965z"/>
					</g>
					<path style="fill:none;stroke:#708699;stroke-linecap:round;stroke-miterlimit:10;" d="M395.459,149.117l12.493,2.421
						c0,0,2.371,15.131-12.354,22.428"/>
				</g>
				<g>
					<rect x="374.43" y="226.896" style="fill:#BCCCDD;" width="63.885" height="6.142"/>
					<path style="fill:#BCCCDD;" d="M361.494,234.143h-0.353c-2.208,0-3.998-1.79-3.998-3.998v-0.353
						c0-2.208,1.79-3.998,3.998-3.998h0.353c2.208,0,3.998,1.79,3.998,3.998v0.353C365.493,232.352,363.703,234.143,361.494,234.143
						z"/>
					<rect x="374.43" y="242.141" style="fill:#BCCCDD;" width="63.885" height="6.142"/>
					<path style="fill:#BCCCDD;" d="M361.494,249.387h-0.353c-2.208,0-3.998-1.79-3.998-3.998v-0.353
						c0-2.208,1.79-3.998,3.998-3.998h0.353c2.208,0,3.998,1.79,3.998,3.998v0.353C365.493,247.596,363.703,249.387,361.494,249.387
						z"/>
					<rect x="374.43" y="257.384" style="fill:#BCCCDD;" width="63.885" height="6.142"/>
					<path style="fill:#BCCCDD;" d="M361.494,264.631h-0.353c-2.208,0-3.998-1.79-3.998-3.998v-0.353
						c0-2.208,1.79-3.998,3.998-3.998h0.353c2.208,0,3.998,1.79,3.998,3.998v0.353C365.493,262.841,363.703,264.631,361.494,264.631
						z"/>
					<rect x="374.43" y="272.629" style="fill:#BCCCDD;" width="63.885" height="6.142"/>
					<path style="fill:#BCCCDD;" d="M361.494,279.875h-0.353c-2.208,0-3.998-1.79-3.998-3.998v-0.353
						c0-2.208,1.79-3.998,3.998-3.998h0.353c2.208,0,3.998,1.79,3.998,3.998v0.353C365.493,278.085,363.703,279.875,361.494,279.875
						z"/>
					<rect x="374.43" y="287.873" style="fill:#BCCCDD;" width="63.885" height="6.142"/>
					<path style="fill:#BCCCDD;" d="M361.494,295.119h-0.353c-2.208,0-3.998-1.79-3.998-3.998v-0.353
						c0-2.208,1.79-3.998,3.998-3.998h0.353c2.208,0,3.998,1.79,3.998,3.998v0.353C365.493,293.328,363.703,295.119,361.494,295.119
						z"/>
				</g>
				<polyline style="fill:none;stroke:#708699;stroke-linecap:round;stroke-miterlimit:10;" points="422.898,215.241 
					450.539,215.241 450.539,281.213 				"/>
				
					<line style="fill:none;stroke:#708699;stroke-linecap:round;stroke-miterlimit:10;" x1="365.493" y1="305.67" x2="400.003" y2="305.67"/>
				<rect x="389.681" y="212.047" style="fill:#425666;" width="11.556" height="3.194"/>
				<rect x="389.681" y="109.132" style="fill:#425666;" width="11.556" height="3.194"/>
			</g>
			<path style="fill:#9FB7CE;" d="M70.295,88.564l-4.683-1.522c-0.353-0.115-0.711-0.125-1.053-0.065
				c0.011-0.251,0.02-0.503,0.02-0.757c0-0.255-0.008-0.508-0.019-0.761c0.342,0.06,0.7,0.049,1.053-0.066l4.683-1.522
				c1.153-0.375,1.785-1.613,1.41-2.767l-1.522-4.683c-0.375-1.153-1.613-1.784-2.767-1.41l-4.683,1.522
				c-0.352,0.115-0.648,0.316-0.889,0.565c-0.279-0.423-0.578-0.832-0.893-1.227c0.312-0.152,0.595-0.372,0.814-0.672l2.895-3.984
				c0.713-0.981,0.495-2.354-0.486-3.067l-3.984-2.894c-0.981-0.713-2.354-0.495-3.067,0.486l-2.894,3.984
				c-0.216,0.298-0.337,0.632-0.387,0.973c-0.471-0.177-0.951-0.332-1.441-0.467c0.161-0.305,0.26-0.647,0.26-1.016v-4.924
				c0-1.213-0.983-2.196-2.196-2.196h-4.924c-1.213,0-2.196,0.983-2.196,2.196v4.924c0,0.368,0.099,0.711,0.26,1.016
				c-0.49,0.134-0.971,0.29-1.441,0.467c-0.05-0.341-0.17-0.675-0.387-0.973l-2.895-3.984c-0.713-0.981-2.086-1.199-3.067-0.486
				L31.83,68.15c-0.981,0.713-1.199,2.086-0.486,3.067l2.895,3.984c0.218,0.3,0.502,0.52,0.814,0.672
				c-0.316,0.395-0.613,0.805-0.893,1.228c-0.241-0.25-0.538-0.452-0.891-0.566l-4.683-1.522c-1.153-0.375-2.392,0.256-2.767,1.41
				l-1.522,4.683c-0.375,1.153,0.256,2.392,1.41,2.767l4.683,1.522c0.352,0.114,0.709,0.125,1.05,0.066
				c-0.023,0.5-0.018,1.007,0.005,1.518c-0.342-0.06-0.701-0.05-1.055,0.065l-4.683,1.522c-1.153,0.375-1.784,1.614-1.41,2.767
				l1.522,4.683c0.375,1.153,1.613,1.785,2.767,1.41l4.683-1.522c0.359-0.117,0.66-0.324,0.903-0.579
				c0.281,0.425,0.582,0.835,0.9,1.232c-0.32,0.152-0.611,0.375-0.833,0.681l-2.895,3.984c-0.713,0.981-0.495,2.354,0.486,3.067
				l3.984,2.895c0.981,0.713,2.354,0.495,3.067-0.486l2.895-3.984c0.218-0.3,0.339-0.638,0.388-0.981
				c0.471,0.179,0.951,0.338,1.441,0.474c-0.161,0.305-0.261,0.648-0.261,1.017v4.924c0,1.213,0.983,2.196,2.196,2.196h4.924
				c1.213,0,2.196-0.983,2.196-2.196v-4.924c0-0.367-0.099-0.708-0.258-1.013c0.489-0.134,0.97-0.288,1.44-0.465
				c0.05,0.339,0.17,0.672,0.386,0.969l2.894,3.984c0.713,0.981,2.086,1.198,3.067,0.486l3.984-2.895
				c0.981-0.713,1.199-2.086,0.486-3.067l-2.895-3.984c-0.217-0.299-0.5-0.518-0.81-0.67c0.315-0.395,0.611-0.805,0.89-1.228
				c0.241,0.248,0.537,0.45,0.889,0.564l4.683,1.522c1.153,0.375,2.392-0.256,2.767-1.41l1.522-4.683
				C72.079,90.178,71.448,88.939,70.295,88.564z M48.257,93.519c-4.156,0.138-7.564-3.186-7.564-7.299
				c0-4.03,3.273-7.302,7.315-7.302c4.135,0,7.473,3.446,7.296,7.62C55.143,90.297,52.018,93.394,48.257,93.519z"/>
			<path style="fill:#DAE6EF;" d="M111.822,53.088l-3.014-0.979c-0.227-0.074-0.458-0.081-0.677-0.042
				c0.007-0.162,0.013-0.324,0.013-0.487c0-0.164-0.005-0.327-0.012-0.489c0.22,0.038,0.45,0.032,0.677-0.042l3.014-0.979
				c0.742-0.241,1.148-1.038,0.907-1.78l-0.979-3.013c-0.241-0.742-1.038-1.148-1.78-0.907l-3.013,0.979
				c-0.227,0.074-0.417,0.203-0.572,0.364c-0.18-0.272-0.372-0.535-0.575-0.789c0.201-0.098,0.383-0.239,0.524-0.432l1.862-2.563
				c0.459-0.631,0.319-1.515-0.313-1.973l-2.563-1.862c-0.631-0.459-1.515-0.319-1.973,0.313l-1.862,2.563
				c-0.139,0.192-0.217,0.407-0.249,0.626c-0.303-0.114-0.612-0.214-0.927-0.3c0.103-0.196,0.167-0.416,0.167-0.654v-3.168
				c0-0.78-0.632-1.413-1.413-1.413h-3.168c-0.78,0-1.413,0.632-1.413,1.413v3.168c0,0.237,0.064,0.457,0.167,0.653
				c-0.315,0.087-0.625,0.187-0.927,0.301c-0.032-0.219-0.109-0.435-0.249-0.626l-1.862-2.563c-0.459-0.631-1.342-0.771-1.973-0.313
				l-2.563,1.862c-0.631,0.458-0.771,1.342-0.313,1.973l1.862,2.563c0.141,0.193,0.323,0.334,0.524,0.432
				c-0.203,0.254-0.395,0.518-0.574,0.79c-0.155-0.16-0.346-0.291-0.573-0.364l-3.013-0.979c-0.742-0.241-1.539,0.165-1.78,0.907
				l-0.979,3.013c-0.241,0.742,0.165,1.539,0.907,1.78l3.013,0.979c0.226,0.074,0.456,0.081,0.675,0.042
				c-0.014,0.322-0.012,0.648,0.003,0.976c-0.22-0.039-0.451-0.032-0.678,0.042l-3.013,0.979c-0.742,0.241-1.148,1.038-0.907,1.78
				l0.979,3.013c0.241,0.742,1.038,1.148,1.78,0.907l3.013-0.979c0.231-0.075,0.424-0.208,0.581-0.373
				c0.181,0.273,0.374,0.537,0.579,0.793c-0.206,0.098-0.393,0.241-0.536,0.438L86.76,61.23c-0.459,0.631-0.319,1.515,0.313,1.973
				l2.563,1.862c0.631,0.459,1.515,0.319,1.973-0.313l1.862-2.563c0.14-0.193,0.218-0.41,0.249-0.631
				c0.303,0.115,0.612,0.217,0.927,0.305c-0.104,0.197-0.168,0.417-0.168,0.654v3.168c0,0.78,0.632,1.413,1.413,1.413h3.168
				c0.78,0,1.413-0.632,1.413-1.413v-3.168c0-0.236-0.064-0.456-0.166-0.652c0.315-0.086,0.624-0.185,0.927-0.299
				c0.032,0.218,0.11,0.432,0.248,0.623l1.862,2.563c0.459,0.631,1.342,0.771,1.973,0.313l2.563-1.862
				c0.631-0.458,0.771-1.342,0.313-1.973l-1.862-2.563c-0.14-0.192-0.322-0.333-0.521-0.431c0.203-0.254,0.393-0.518,0.573-0.79
				c0.155,0.16,0.345,0.289,0.572,0.363l3.013,0.979c0.742,0.241,1.539-0.165,1.78-0.907l0.979-3.013
				C112.97,54.126,112.564,53.329,111.822,53.088z M97.642,56.275c-2.674,0.089-4.867-2.05-4.867-4.696
				c0-2.593,2.106-4.699,4.707-4.699c2.661,0,4.809,2.217,4.694,4.903C102.073,54.202,100.061,56.195,97.642,56.275z"/>
			<g>
				<g>
					<g>
						<g>
							<path style="fill:#8EC098;" d="M441.439,466.316c-0.922-44.229,36.29-124.482,36.29-124.482S486.343,448.399,441.439,466.316
								z"/>
							<path style="fill:none;stroke:#B8D8BD;stroke-miterlimit:10;" d="M476.618,344.667
								c-7.598,47.611-39.423,130.655-39.423,130.655"/>
						</g>
						<g>
							<path style="fill:#76A87E;" d="M444.271,449.93c-27.141-51.693,0.694-136.999,0.694-136.999S488.913,400.769,444.271,449.93z
								"/>
							<path style="fill:none;stroke:#B8D8BD;stroke-miterlimit:10;" d="M446.73,326.2c5.784,35.83-2.378,137.018-2.378,137.018"/>
						</g>
						<g>
							<path style="fill:#8EC098;" d="M433.362,466.186c-31.463-28.864-23.128-121.519-23.128-121.519
								S464.156,429.45,433.362,466.186z"/>
							<path style="fill:none;stroke:#B8D8BD;stroke-miterlimit:10;" d="M415.261,361.661
								c10.581,21.724,20.246,112.854,20.246,112.854"/>
						</g>
					</g>
					<rect x="418.225" y="447.188" style="fill:#CDD9E8;" width="49.158" height="71.851"/>
					<polyline style="fill:none;stroke:#708699;stroke-linecap:round;stroke-miterlimit:10;" points="467.383,447.188 
						418.225,447.188 418.225,499.802 					"/>
				</g>
			</g>
		</g>
	</g>
</g>
</svg>
