<?xml version="1.0" encoding="utf-8"?>
<!-- Generator: Adobe Illustrator 27.5.0, SVG Export Plug-In . SVG Version: 6.00 Build 0)  -->
<svg version="1.1" xmlns="http://www.w3.org/2000/svg" xmlns:xlink="http://www.w3.org/1999/xlink" x="0px" y="0px"
	 viewBox="0 0 750 500" style="enable-background:new 0 0 750 500;" xml:space="preserve">
<g id="BACKGROUND">
	<rect style="fill:#BDE4FF;" width="750" height="500"/>
</g>
<g id="OBJECTS">
	<g>
		<path style="fill:#A9DBF7;" d="M718.414,406.953H31.585c-3.227,0-5.866-2.639-5.866-5.866l0,0c0-3.228,2.64-5.866,5.866-5.866
			h686.829c3.227,0,5.867,2.639,5.867,5.866l0,0C724.281,404.315,721.641,406.953,718.414,406.953z"/>
		<g>
			<g>
				<polyline style="fill:none;stroke:#767F8E;stroke-width:8.404;stroke-miterlimit:10;" points="348.158,167.686 405.633,97.785 
					530.488,97.785 530.488,183.469 				"/>
				<g>
					<g>
						<polygon style="fill:#767F8E;" points="237.307,221.893 237.323,221.871 237.307,221.83 243.272,214.979 236.459,208.883 
							240.471,200.809 232.302,196.546 234.091,187.762 225.076,185.579 224.541,176.657 215.247,176.694 212.424,168.169 
							203.436,170.448 198.498,162.862 190.382,167.217 183.639,161.059 176.901,167.217 168.782,162.862 163.842,170.448 
							154.863,168.169 152.033,176.694 142.743,176.657 142.212,185.579 133.2,187.762 134.988,196.546 126.817,200.809 
							130.825,208.883 124.017,214.979 129.976,221.83 129.955,221.871 129.976,221.893 124.017,228.763 130.825,234.852 
							126.817,242.932 134.988,247.194 133.2,255.98 142.212,258.151 142.743,267.086 152.033,267.046 154.863,275.576 
							163.842,273.296 168.782,280.867 176.901,276.516 183.639,282.682 190.382,276.516 198.498,280.867 203.436,273.296 
							212.424,275.576 215.247,267.046 224.541,267.086 225.076,258.151 234.091,255.98 232.302,247.194 240.471,242.932 
							236.459,234.852 243.272,228.763 						"/>
						<g>
							<polygon style="fill:#8D96A3;" points="134.087,251.618 133.2,255.98 142.212,258.151 142.743,267.086 142.981,267.086 
								183.639,221.871 							"/>
							<polygon style="fill:#8D96A3;" points="153.69,272.024 154.863,275.576 163.842,273.296 165.736,276.19 183.639,221.871 
															"/>
							<polygon style="fill:#8D96A3;" points="240.471,200.809 235.235,198.074 183.639,221.871 237.093,209.457 236.459,208.883 
															"/>
							<polygon style="fill:#8D96A3;" points="154.395,169.596 183.643,222.694 164.616,169.258 163.842,170.448 154.863,168.169 
															"/>
						</g>
						<path style="fill:#C4CADC;" d="M208.434,221.871c0,13.691-11.103,24.788-24.795,24.788c-13.688,0-24.789-11.097-24.789-24.788
							c0-13.692,11.101-24.789,24.789-24.789C197.331,197.082,208.434,208.179,208.434,221.871z"/>
						<path style="fill:#29304A;" d="M189.979,221.871c0,3.5-2.839,6.335-6.34,6.335c-3.5,0-6.335-2.835-6.335-6.335
							c0-3.502,2.836-6.347,6.335-6.347C187.14,215.524,189.979,218.369,189.979,221.871z"/>
					</g>
					<g>
						<rect x="192.052" y="131.243" style="fill:#A6ACBC;" width="167.424" height="171.254"/>
						<g>
							<rect x="202.094" y="238.971" style="fill:#29304A;" width="83.711" height="15.301"/>
							<g>
								<rect x="202.094" y="217.807" style="fill:#29304A;" width="83.711" height="15.302"/>
								<g>
									<path style="fill:#CE2017;" d="M214.776,225.796c0,2.256-1.828,4.084-4.084,4.084c-2.255,0-4.083-1.828-4.083-4.084
										c0-2.255,1.828-4.083,4.083-4.083C212.948,221.713,214.776,223.541,214.776,225.796z"/>
									<path style="fill:#8CC81E;" d="M227.315,225.796c0,2.256-1.828,4.084-4.084,4.084c-2.255,0-4.083-1.828-4.083-4.084
										c0-2.255,1.828-4.083,4.083-4.083C225.487,221.713,227.315,223.541,227.315,225.796z"/>
									<rect x="231.195" y="224.13" style="fill:#C4CADC;" width="50.088" height="3.498"/>
								</g>
							</g>
							<g>
								<rect x="202.094" y="167.686" style="fill:#29304A;" width="83.711" height="44.259"/>
								<rect x="206.609" y="174.114" style="fill:#536DDA;" width="45.825" height="31.402"/>
								<g>
									<rect x="255.626" y="174.114" style="fill:#C4CADC;" width="13.012" height="8.85"/>
									<rect x="271.637" y="174.114" style="fill:#C4CADC;" width="9.646" height="8.85"/>
									<rect x="255.626" y="185.39" style="fill:#C4CADC;" width="13.012" height="8.851"/>
									<rect x="271.637" y="185.39" style="fill:#C4CADC;" width="9.646" height="8.851"/>
									<rect x="255.626" y="196.665" style="fill:#C4CADC;" width="13.012" height="8.852"/>
									<rect x="271.637" y="196.665" style="fill:#C4CADC;" width="9.646" height="8.852"/>
								</g>
							</g>
						</g>
						<g>
							<path style="fill:#CE2017;" d="M233.981,128.911v-14.459c0-3.629-2.942-6.571-6.573-6.571h-16.704
								c-3.632,0-6.576,2.942-6.576,6.571v14.459H233.981z"/>
							<rect x="207.658" y="115.039" style="fill:#D82E2A;" width="3.935" height="13.872"/>
							<rect x="202.094" y="126.575" style="fill:#767F8E;" width="34.2" height="4.668"/>
						</g>
						<g>
							<path style="fill:#8CC81E;" d="M349.31,128.911v-14.459c0-3.629-2.941-6.571-6.574-6.571h-16.704
								c-3.631,0-6.574,2.942-6.574,6.571v14.459H349.31z"/>
							<rect x="322.986" y="115.039" style="fill:#ACDD40;" width="3.937" height="13.872"/>
							<rect x="317.422" y="126.575" style="fill:#767F8E;" width="34.199" height="4.668"/>
						</g>
						<rect x="339.756" y="215.021" style="fill:#BDC3D1;" width="8.402" height="87.477"/>
					</g>
					<rect x="183.645" y="143.081" style="fill:#29304A;" width="8.402" height="159.416"/>
					<g>
						<rect x="49.97" y="322.223" style="fill:#A6ACBC;" width="325.153" height="68.351"/>
						<g>
							<g>
								<path style="fill:#767F8E;" d="M395.059,322.231c0,10.893-8.828,19.721-19.726,19.721H49.753
									c-10.893,0-19.722-8.828-19.722-19.721l0,0c0-10.895,8.828-19.734,19.722-19.734h325.58
									C386.23,302.497,395.059,311.337,395.059,322.231L395.059,322.231z"/>
								<path style="fill:#A6ACBC;" d="M389.408,322.231c0,8.186-6.635,14.818-14.82,14.818H49.526
									c-8.186,0-14.816-6.633-14.816-14.818l0,0c0-8.188,6.631-14.816,14.816-14.816h325.061
									C382.773,307.415,389.408,314.044,389.408,322.231L389.408,322.231z"/>
							</g>
							<g>
								<g>
									<path style="fill:#5E6672;" d="M64.157,322.228c0,8.18-6.592,14.822-14.721,14.822c-8.135,0-14.727-6.643-14.727-14.822
										c0-8.194,6.592-14.823,14.727-14.823C57.565,307.404,64.157,314.033,64.157,322.228z"/>
									<path style="fill:#29304A;" d="M55.114,322.228c0,3.152-2.544,5.72-5.678,5.72c-3.14,0-5.683-2.567-5.683-5.72
										c0-3.155,2.543-5.721,5.683-5.721C52.57,316.507,55.114,319.072,55.114,322.228z"/>
								</g>
								<g>
									<path style="fill:#5E6672;" d="M110.606,322.228c0,8.18-6.591,14.822-14.719,14.822c-8.136,0-14.727-6.643-14.727-14.822
										c0-8.194,6.591-14.823,14.727-14.823C104.016,307.404,110.606,314.033,110.606,322.228z"/>
									<path style="fill:#29304A;" d="M101.564,322.228c0,3.152-2.543,5.72-5.677,5.72c-3.142,0-5.684-2.567-5.684-5.72
										c0-3.155,2.542-5.721,5.684-5.721C99.021,316.507,101.564,319.072,101.564,322.228z"/>
								</g>
								<g>
									<path style="fill:#5E6672;" d="M157.058,322.228c0,8.18-6.591,14.822-14.72,14.822c-8.136,0-14.727-6.643-14.727-14.822
										c0-8.194,6.591-14.823,14.727-14.823C150.467,307.404,157.058,314.033,157.058,322.228z"/>
									<path style="fill:#29304A;" d="M148.015,322.228c0,3.152-2.542,5.72-5.677,5.72c-3.142,0-5.684-2.567-5.684-5.72
										c0-3.155,2.542-5.721,5.684-5.721C145.473,316.507,148.015,319.072,148.015,322.228z"/>
								</g>
								<g>
									<path style="fill:#5E6672;" d="M203.508,322.228c0,8.18-6.591,14.822-14.72,14.822c-8.135,0-14.728-6.643-14.728-14.822
										c0-8.194,6.593-14.823,14.728-14.823C196.917,307.404,203.508,314.033,203.508,322.228z"/>
									<path style="fill:#29304A;" d="M194.464,322.228c0,3.152-2.542,5.72-5.676,5.72c-3.142,0-5.683-2.567-5.683-5.72
										c0-3.155,2.541-5.721,5.683-5.721C191.922,316.507,194.464,319.072,194.464,322.228z"/>
								</g>
								<g>
									<path style="fill:#5E6672;" d="M249.959,322.228c0,8.18-6.592,14.822-14.722,14.822c-8.135,0-14.726-6.643-14.726-14.822
										c0-8.194,6.591-14.823,14.726-14.823C243.367,307.404,249.959,314.033,249.959,322.228z"/>
									<path style="fill:#29304A;" d="M240.915,322.228c0,3.152-2.543,5.72-5.678,5.72c-3.14,0-5.683-2.567-5.683-5.72
										c0-3.155,2.543-5.721,5.683-5.721C238.372,316.507,240.915,319.072,240.915,322.228z"/>
								</g>
								<g>
									<path style="fill:#5E6672;" d="M296.408,322.228c0,8.18-6.591,14.822-14.721,14.822c-8.136,0-14.727-6.643-14.727-14.822
										c0-8.194,6.591-14.823,14.727-14.823C289.817,307.404,296.408,314.033,296.408,322.228z"/>
									<path style="fill:#29304A;" d="M287.365,322.228c0,3.152-2.543,5.72-5.678,5.72c-3.14,0-5.683-2.567-5.683-5.72
										c0-3.155,2.543-5.721,5.683-5.721C284.822,316.507,287.365,319.072,287.365,322.228z"/>
								</g>
								<g>
									<path style="fill:#5E6672;" d="M342.86,322.228c0,8.18-6.593,14.822-14.721,14.822c-8.138,0-14.728-6.643-14.728-14.822
										c0-8.194,6.59-14.823,14.728-14.823C336.268,307.404,342.86,314.033,342.86,322.228z"/>
									<path style="fill:#29304A;" d="M333.815,322.228c0,3.152-2.543,5.72-5.676,5.72c-3.142,0-5.685-2.567-5.685-5.72
										c0-3.155,2.543-5.721,5.685-5.721C331.272,316.507,333.815,319.072,333.815,322.228z"/>
								</g>
								<g>
									<path style="fill:#5E6672;" d="M389.307,322.228c0,8.18-6.588,14.822-14.719,14.822c-8.135,0-14.725-6.643-14.725-14.822
										c0-8.194,6.59-14.823,14.725-14.823C382.719,307.404,389.307,314.033,389.307,322.228z"/>
									<path style="fill:#29304A;" d="M380.266,322.228c0,3.152-2.543,5.72-5.678,5.72c-3.139,0-5.684-2.567-5.684-5.72
										c0-3.155,2.545-5.721,5.684-5.721C377.723,316.507,380.266,319.072,380.266,322.228z"/>
								</g>
							</g>
						</g>
						<rect x="40.725" y="390.456" style="fill:#767F8E;" width="343.643" height="8.403"/>
						<g>
							<g>
								<rect x="304.54" y="360.411" style="fill:#767F8E;" width="2.401" height="30.162"/>
								<rect x="313.56" y="360.411" style="fill:#767F8E;" width="2.4" height="30.162"/>
								<rect x="322.581" y="360.411" style="fill:#767F8E;" width="2.401" height="30.162"/>
							</g>
							<g>
								<rect x="201.838" y="360.411" style="fill:#767F8E;" width="2.401" height="30.162"/>
								<rect x="210.859" y="360.411" style="fill:#767F8E;" width="2.399" height="30.162"/>
								<rect x="219.879" y="360.411" style="fill:#767F8E;" width="2.401" height="30.162"/>
							</g>
							<g>
								<rect x="99.136" y="360.411" style="fill:#767F8E;" width="2.401" height="30.162"/>
								<rect x="108.156" y="360.411" style="fill:#767F8E;" width="2.4" height="30.162"/>
								<rect x="117.177" y="360.411" style="fill:#767F8E;" width="2.4" height="30.162"/>
							</g>
						</g>
					</g>
				</g>
				<g>
					<g>
						<rect x="560.779" y="336.946" style="fill:#A6ACBC;" width="139.254" height="53.627"/>
						<g>
							<g>
								<path style="fill:#767F8E;" d="M719.969,336.954c0,10.894-8.828,19.722-19.725,19.722H560.56
									c-10.892,0-19.721-8.828-19.721-19.722l0,0c0-10.894,8.828-19.733,19.721-19.733h139.684
									C711.141,317.221,719.969,326.06,719.969,336.954L719.969,336.954z"/>
								<path style="fill:#A6ACBC;" d="M714.316,336.954c0,8.186-6.631,14.818-14.818,14.818H560.336
									c-8.185,0-14.816-6.632-14.816-14.818l0,0c0-8.186,6.631-14.816,14.816-14.816h139.162
									C707.685,322.138,714.316,328.768,714.316,336.954L714.316,336.954z"/>
							</g>
							<g>
								<g>
									<path style="fill:#5E6672;" d="M574.965,336.95c0,8.179-6.592,14.822-14.719,14.822c-8.135,0-14.727-6.644-14.727-14.822
										c0-8.195,6.592-14.823,14.727-14.823C568.373,322.127,574.965,328.755,574.965,336.95z"/>
									<path style="fill:#767F8E;" d="M565.922,336.95c0,3.152-2.541,5.719-5.676,5.719c-3.141,0-5.684-2.566-5.684-5.719
										c0-3.154,2.543-5.719,5.684-5.719C563.381,331.231,565.922,333.796,565.922,336.95z"/>
								</g>
								<g>
									<path style="fill:#5E6672;" d="M621.414,336.95c0,8.179-6.588,14.822-14.717,14.822c-8.139,0-14.727-6.644-14.727-14.822
										c0-8.195,6.588-14.823,14.727-14.823C614.826,322.127,621.414,328.755,621.414,336.95z"/>
									<path style="fill:#29304A;" d="M612.373,336.95c0,3.152-2.545,5.719-5.676,5.719c-3.141,0-5.684-2.566-5.684-5.719
										c0-3.154,2.543-5.719,5.684-5.719C609.828,331.231,612.373,333.796,612.373,336.95z"/>
								</g>
								<g>
									<path style="fill:#5E6672;" d="M667.867,336.95c0,8.179-6.592,14.822-14.721,14.822c-8.135,0-14.727-6.644-14.727-14.822
										c0-8.195,6.592-14.823,14.727-14.823C661.275,322.127,667.867,328.755,667.867,336.95z"/>
									<path style="fill:#29304A;" d="M658.822,336.95c0,3.152-2.541,5.719-5.676,5.719c-3.141,0-5.682-2.566-5.682-5.719
										c0-3.154,2.541-5.719,5.682-5.719C656.281,331.231,658.822,333.796,658.822,336.95z"/>
								</g>
								<g>
									<path style="fill:#5E6672;" d="M714.316,336.95c0,8.179-6.59,14.822-14.719,14.822c-8.137,0-14.729-6.644-14.729-14.822
										c0-8.195,6.592-14.823,14.729-14.823C707.727,322.127,714.316,328.755,714.316,336.95z"/>
									<path style="fill:#29304A;" d="M705.275,336.95c0,3.152-2.545,5.719-5.678,5.719c-3.141,0-5.684-2.566-5.684-5.719
										c0-3.154,2.543-5.719,5.684-5.719C702.73,331.231,705.275,333.796,705.275,336.95z"/>
								</g>
							</g>
						</g>
						<rect x="551.533" y="390.456" style="fill:#767F8E;" width="157.744" height="8.403"/>
						<g>
							<rect x="645.24" y="370.993" style="fill:#767F8E;" width="2.4" height="19.58"/>
							<rect x="654.264" y="370.993" style="fill:#767F8E;" width="2.398" height="19.58"/>
							<rect x="663.281" y="370.993" style="fill:#767F8E;" width="2.402" height="19.58"/>
						</g>
					</g>
					<g>
						<rect x="472.777" y="177.866" style="fill:#29304A;" width="115.418" height="11.205"/>
						<rect x="481.742" y="240.756" style="fill:#767F8E;" width="97.488" height="8.404"/>
						<rect x="481.742" y="260.364" style="fill:#767F8E;" width="97.488" height="8.404"/>
						<rect x="481.742" y="390.456" style="fill:#767F8E;" width="97.488" height="8.403"/>
						<rect x="490.076" y="249.16" style="fill:#A6ACBC;" width="80.82" height="11.205"/>
						<rect x="486.223" y="268.769" style="fill:#A6ACBC;" width="88.527" height="121.805"/>
						<polygon style="fill:#A6ACBC;" points="576.217,240.756 484.754,240.756 475.578,188.908 585.394,188.908 						"/>
					</g>
					<polygon style="fill:#BDC3D1;" points="494.627,196.214 503.033,240.756 494.629,240.756 486.223,196.214 					"/>
					<rect x="494.629" y="290.239" style="fill:#BDC3D1;" width="8.404" height="100.335"/>
					<rect x="574.75" y="273.989" style="fill:#29304A;" width="8.402" height="124.87"/>
					<rect x="505.766" y="253.781" style="fill:#BDC3D1;" width="8.404" height="6.584"/>
					<g>
						<rect x="525.445" y="273.989" style="fill:#29304A;" width="45.451" height="57.668"/>
						<rect x="529.529" y="310.324" style="fill:#CE2017;" width="37.283" height="17.375"/>
						<g>
							<g>
								<rect x="529.529" y="278.032" style="fill:#536DDA;" width="3.184" height="28.784"/>
								<rect x="536.393" y="278.032" style="fill:#536DDA;" width="3.184" height="28.784"/>
								<rect x="543.254" y="278.032" style="fill:#536DDA;" width="3.186" height="28.784"/>
								<rect x="550.117" y="278.032" style="fill:#536DDA;" width="3.185" height="28.784"/>
								<rect x="556.979" y="278.032" style="fill:#536DDA;" width="3.186" height="28.784"/>
								<rect x="563.842" y="278.032" style="fill:#536DDA;" width="3.185" height="28.784"/>
							</g>
							<g>
								<rect x="529.529" y="297.675" style="fill:#8CC81E;" width="3.184" height="9.142"/>
								<rect x="536.393" y="288.533" style="fill:#8CC81E;" width="3.184" height="18.283"/>
								<rect x="543.254" y="294.7" style="fill:#8CC81E;" width="3.186" height="12.116"/>
								<rect x="550.117" y="281.866" style="fill:#8CC81E;" width="3.185" height="24.95"/>
								<rect x="556.979" y="301.758" style="fill:#8CC81E;" width="3.186" height="5.059"/>
								<rect x="563.842" y="291.366" style="fill:#8CC81E;" width="3.185" height="15.45"/>
							</g>
						</g>
					</g>
				</g>
			</g>
			<g>
				
					<line style="fill:none;stroke:#A6ACBC;stroke-width:2;stroke-linecap:round;stroke-linejoin:round;stroke-miterlimit:10;" x1="424.019" y1="93.047" x2="424.019" y2="105.729"/>
				<g>
					<g>
						<g>
							<path style="fill:#BDC3D1;" d="M461.339,163.109c-0.776,0.538-1.852,0.357-2.401-0.399l-9.701-13.357
								c-0.55-0.758-0.367-1.808,0.409-2.345l0,0c0.776-0.537,1.852-0.358,2.401,0.399l9.701,13.357
								C462.299,161.523,462.115,162.573,461.339,163.109L461.339,163.109z"/>
							<path style="fill:#A8B0C1;" d="M454.533,156.087c0.956-0.476,1.789-1.096,2.492-1.824l-4.979-6.854
								c-0.55-0.758-1.625-0.937-2.401-0.399c-0.776,0.537-0.959,1.587-0.409,2.345l4.992,6.874
								C454.33,156.182,454.432,156.137,454.533,156.087z"/>
							<path style="fill:#A8B0C1;" d="M460.271,162.592l-9.701-13.356c-0.55-0.759-0.367-1.808,0.409-2.345
								c0.061-0.041,0.123-0.077,0.186-0.11c-0.497-0.154-1.06-0.088-1.52,0.229c-0.776,0.537-0.959,1.587-0.409,2.345l9.701,13.357
								c0.508,0.7,1.462,0.904,2.217,0.511C460.81,163.112,460.496,162.902,460.271,162.592z"/>
							<path style="fill:#BDC3D1;" d="M464.513,163.159c-1.253,0.866-2.987,0.578-3.877-0.645c-0.887-1.223-0.592-2.916,0.661-3.782
								c1.252-0.867,2.988-0.579,3.876,0.644C466.06,160.6,465.765,162.293,464.513,163.159z"/>
							<path style="fill:#A8B0C1;" d="M461.726,162.657c-0.888-1.222-0.592-2.916,0.661-3.782c0.436-0.303,0.931-0.46,1.428-0.491
								c-0.818-0.276-1.757-0.178-2.518,0.349c-1.253,0.866-1.548,2.56-0.661,3.782c0.579,0.796,1.519,1.194,2.449,1.135
								C462.555,163.472,462.074,163.138,461.726,162.657z"/>
							<path style="fill:#BDC3D1;" d="M460.665,165.82c-1.253,0.867-2.987,0.578-3.876-0.645c-0.888-1.223-0.593-2.916,0.661-3.783
								c1.252-0.866,2.988-0.578,3.876,0.646C462.214,163.26,461.918,164.955,460.665,165.82z"/>
							<path style="fill:#A8B0C1;" d="M460.19,166.084c-0.723-0.104-1.401-0.484-1.857-1.112c-0.888-1.223-0.593-2.916,0.661-3.782
								c0.15-0.107,0.31-0.193,0.474-0.264c-0.686-0.101-1.409,0.045-2.018,0.467c-1.254,0.867-1.549,2.561-0.661,3.783
								C457.57,166.251,459.004,166.602,460.19,166.084z"/>
						</g>
						<g>
							<path style="fill:#A64213;" d="M443.425,133.48c-4.425,2.514-5.689,9.237-2.826,15.017c2.863,5.78,8.772,8.428,13.196,5.914
								c4.424-2.514,5.689-9.237,2.826-15.016C453.757,133.613,447.85,130.966,443.425,133.48z"/>
							<path style="fill:#91310C;" d="M443.324,149.219c-2.647-5.341-1.653-11.452,2.216-13.651
								c3.869-2.198,9.151,0.35,11.798,5.689c0.06,0.123,0.117,0.244,0.174,0.368c-0.232-0.751-0.528-1.5-0.891-2.23
								c-2.864-5.781-8.772-8.429-13.196-5.915c-4.425,2.514-5.689,9.237-2.826,15.017c2.083,4.203,5.774,6.748,9.335,6.857
								C447.368,154.55,444.887,152.372,443.324,149.219z"/>
						</g>
					</g>
					<g>
						<g>
							<path style="fill:#A64213;" d="M418.539,122.753c0,0-2.873,28.359,3.444,42.021c6.32,13.662,28.175-2.755,30.821-20.049
								C455.716,125.709,421.071,94.378,418.539,122.753z"/>
							<path style="fill:#A64213;" d="M434.283,116.451c0,0-4.981-10.762-10.369-11.007c-5.615-0.256-5.792,23.121-5.792,23.121
								L434.283,116.451z"/>
						</g>
						<path style="fill:#91310C;" d="M420.232,159.842c-1.49-9.072-1.295-19.552-0.962-25.904v0.001c0,0,0.177-23.377,5.79-23.121
							c3.21,0.146,6.275,4.023,8.228,7.134c7.729,3.359,16.445,13.215,19.607,22.804c-0.978-10.998-11.56-24.183-20.755-28.177
							c-1.954-3.11-5.017-6.987-8.227-7.134c-5.615-0.256-5.792,23.121-5.792,23.121l0,0
							C417.72,136.224,417.518,149.887,420.232,159.842z"/>
					</g>
					<g>
						<g>
							<path style="fill:#BDC3D1;" d="M457.438,165.834c-0.775,0.537-1.852,0.357-2.4-0.399l-9.702-13.357
								c-0.55-0.758-0.367-1.808,0.409-2.345l0,0c0.776-0.538,1.852-0.359,2.402,0.398l9.7,13.358
								C458.397,164.248,458.214,165.298,457.438,165.834L457.438,165.834z"/>
							<path style="fill:#A8B0C1;" d="M450.632,158.811c0.956-0.475,1.79-1.095,2.493-1.823l-4.979-6.855
								c-0.551-0.758-1.626-0.937-2.402-0.398c-0.776,0.537-0.959,1.587-0.409,2.345l4.993,6.874
								C450.43,158.906,450.531,158.86,450.632,158.811z"/>
							<path style="fill:#A8B0C1;" d="M456.37,165.316l-9.7-13.357c-0.551-0.757-0.368-1.807,0.408-2.344
								c0.061-0.042,0.124-0.077,0.186-0.11c-0.498-0.154-1.06-0.089-1.521,0.229c-0.776,0.537-0.959,1.587-0.409,2.345
								l9.702,13.357c0.507,0.699,1.461,0.903,2.216,0.511C456.909,165.837,456.596,165.626,456.37,165.316z"/>
							<path style="fill:#BDC3D1;" d="M460.611,165.884c-1.253,0.866-2.987,0.578-3.876-0.645c-0.888-1.224-0.593-2.917,0.66-3.783
								c1.253-0.867,2.988-0.578,3.876,0.645C462.159,163.323,461.864,165.018,460.611,165.884z"/>
							<path style="fill:#A8B0C1;" d="M457.824,165.382c-0.887-1.223-0.592-2.916,0.661-3.782c0.436-0.303,0.931-0.46,1.428-0.491
								c-0.818-0.277-1.756-0.179-2.518,0.348c-1.253,0.866-1.548,2.559-0.66,3.783c0.579,0.796,1.518,1.193,2.448,1.135
								C458.654,166.196,458.174,165.861,457.824,165.382z"/>
							<path style="fill:#BDC3D1;" d="M456.765,168.545c-1.254,0.867-2.988,0.578-3.877-0.645c-0.888-1.224-0.592-2.916,0.661-3.783
								c1.252-0.866,2.987-0.577,3.876,0.645C458.313,165.983,458.017,167.68,456.765,168.545z"/>
							<path style="fill:#A8B0C1;" d="M456.29,168.809c-0.723-0.104-1.402-0.484-1.858-1.112c-0.888-1.223-0.592-2.916,0.662-3.782
								c0.15-0.106,0.309-0.193,0.473-0.265c-0.685-0.1-1.409,0.046-2.018,0.468c-1.253,0.867-1.549,2.56-0.661,3.783
								C453.669,168.976,455.102,169.327,456.29,168.809z"/>
						</g>
						<g>
							<path style="fill:#A64213;" d="M439.523,136.204c-4.424,2.514-5.689,9.237-2.825,15.017c2.863,5.78,8.772,8.428,13.195,5.914
								c4.424-2.514,5.689-9.237,2.826-15.016C449.855,136.338,443.948,133.69,439.523,136.204z"/>
							<path style="fill:#91310C;" d="M439.424,151.943c-2.646-5.341-1.654-11.453,2.216-13.651
								c3.869-2.197,9.151,0.35,11.797,5.689c0.061,0.123,0.117,0.245,0.175,0.368c-0.233-0.751-0.528-1.499-0.892-2.23
								c-2.864-5.781-8.772-8.429-13.196-5.915c-4.424,2.514-5.689,9.237-2.825,15.017c2.082,4.203,5.775,6.748,9.335,6.858
								C443.467,157.274,440.985,155.096,439.424,151.943z"/>
						</g>
					</g>
					<g>
						<path style="fill:#91310C;" d="M440.867,123.76c-0.365,0.285-1.097-0.013-1.636-0.667c-0.537-0.653-0.678-1.416-0.313-1.701
							c0.365-0.285,1.099,0.013,1.635,0.666C441.093,122.713,441.232,123.474,440.867,123.76z"/>
						<path style="fill:#91310C;" d="M434.496,121.496c-0.366,0.286-1.097-0.013-1.636-0.667c-0.537-0.653-0.679-1.415-0.314-1.702
							c0.365-0.285,1.098,0.014,1.636,0.668C434.721,120.448,434.86,121.211,434.496,121.496z"/>
						<path style="fill:#91310C;" d="M438.285,128.009c-0.363,0.287-1.097-0.013-1.635-0.668c-0.538-0.652-0.679-1.416-0.314-1.701
							c0.364-0.286,1.098,0.013,1.635,0.666C438.51,126.961,438.65,127.723,438.285,128.009z"/>
						<path style="fill:#91310C;" d="M437.476,132.56c-0.364,0.287-1.096-0.011-1.635-0.665c-0.537-0.653-0.677-1.417-0.313-1.702
							c0.364-0.285,1.096,0.012,1.635,0.664C437.7,131.512,437.842,132.274,437.476,132.56z"/>
						<path style="fill:#91310C;" d="M431.827,128.648c-0.363,0.285-1.097-0.013-1.635-0.668c-0.538-0.655-0.679-1.416-0.314-1.702
							c0.364-0.285,1.097,0.013,1.635,0.668C432.052,127.6,432.193,128.362,431.827,128.648z"/>
						<path style="fill:#91310C;" d="M443.664,133.195c-0.365,0.286-1.098-0.013-1.635-0.666c-0.538-0.654-0.68-1.418-0.314-1.704
							c0.364-0.285,1.097,0.013,1.634,0.668C443.888,132.148,444.029,132.91,443.664,133.195z"/>
					</g>
				</g>
				<path style="fill:#767F8E;" d="M426.202,105.729c0,1.206-0.977,2.184-2.183,2.184c-1.206,0-2.184-0.978-2.184-2.184
					c0-1.205,0.978-2.183,2.184-2.183C425.226,103.547,426.202,104.524,426.202,105.729z"/>
			</g>
			<g>
				
					<line style="fill:none;stroke:#A6ACBC;stroke-width:2;stroke-linecap:round;stroke-linejoin:round;stroke-miterlimit:10;" x1="376.456" y1="125.271" x2="376.456" y2="137.954"/>
				<g>
					<g>
						<g>
							<path style="fill:#BDC3D1;" d="M413.776,195.334c-0.776,0.538-1.852,0.357-2.401-0.399l-9.701-13.357
								c-0.55-0.758-0.367-1.808,0.409-2.345l0,0c0.776-0.537,1.852-0.358,2.401,0.399l9.701,13.357
								C414.736,193.748,414.553,194.798,413.776,195.334L413.776,195.334z"/>
							<path style="fill:#A8B0C1;" d="M406.971,188.311c0.956-0.476,1.789-1.096,2.492-1.824l-4.979-6.855
								c-0.55-0.758-1.625-0.936-2.401-0.399c-0.776,0.537-0.959,1.587-0.409,2.345l4.992,6.874
								C406.768,188.406,406.869,188.361,406.971,188.311z"/>
							<path style="fill:#A8B0C1;" d="M412.709,194.816l-9.701-13.356c-0.55-0.759-0.367-1.808,0.409-2.345
								c0.06-0.041,0.123-0.077,0.185-0.11c-0.497-0.154-1.059-0.088-1.519,0.229c-0.776,0.537-0.959,1.587-0.409,2.345
								l9.701,13.357c0.508,0.7,1.462,0.904,2.217,0.511C413.248,195.337,412.934,195.127,412.709,194.816z"/>
							<path style="fill:#BDC3D1;" d="M416.95,195.384c-1.253,0.866-2.987,0.578-3.877-0.645c-0.887-1.223-0.592-2.916,0.661-3.782
								c1.252-0.867,2.988-0.579,3.876,0.644C418.498,192.824,418.202,194.518,416.95,195.384z"/>
							<path style="fill:#A8B0C1;" d="M414.163,194.882c-0.888-1.222-0.592-2.916,0.661-3.782c0.436-0.303,0.931-0.46,1.428-0.491
								c-0.818-0.276-1.757-0.178-2.518,0.349c-1.253,0.866-1.548,2.56-0.661,3.782c0.579,0.796,1.519,1.194,2.449,1.135
								C414.992,195.696,414.512,195.362,414.163,194.882z"/>
							<path style="fill:#BDC3D1;" d="M413.102,198.045c-1.253,0.867-2.987,0.578-3.876-0.645c-0.888-1.223-0.593-2.916,0.661-3.783
								c1.252-0.866,2.988-0.578,3.876,0.645C414.651,195.484,414.355,197.18,413.102,198.045z"/>
							<path style="fill:#A8B0C1;" d="M412.628,198.309c-0.723-0.104-1.401-0.484-1.857-1.112c-0.888-1.223-0.593-2.916,0.661-3.782
								c0.15-0.106,0.31-0.193,0.474-0.264c-0.686-0.101-1.409,0.045-2.018,0.467c-1.254,0.867-1.549,2.561-0.661,3.783
								C410.008,198.476,411.441,198.827,412.628,198.309z"/>
						</g>
						<g>
							<path style="fill:#A64213;" d="M395.862,165.704c-4.425,2.514-5.689,9.237-2.826,15.017c2.863,5.78,8.772,8.428,13.196,5.914
								c4.424-2.514,5.689-9.237,2.826-15.016C406.194,165.838,400.287,163.19,395.862,165.704z"/>
							<path style="fill:#91310C;" d="M395.762,181.443c-2.646-5.341-1.653-11.452,2.216-13.651
								c3.869-2.198,9.151,0.35,11.798,5.689c0.06,0.123,0.117,0.244,0.174,0.368c-0.232-0.751-0.528-1.5-0.891-2.23
								c-2.864-5.781-8.772-8.429-13.196-5.915c-4.425,2.514-5.689,9.237-2.826,15.017c2.083,4.203,5.774,6.748,9.335,6.857
								C399.806,186.774,397.324,184.597,395.762,181.443z"/>
						</g>
					</g>
					<g>
						<g>
							<path style="fill:#A64213;" d="M370.977,154.977c0,0-2.873,28.359,3.444,42.021c6.32,13.662,28.175-2.755,30.821-20.049
								C408.153,157.934,373.509,126.603,370.977,154.977z"/>
							<path style="fill:#A64213;" d="M386.721,148.676c0,0-4.98-10.762-10.369-11.007c-5.615-0.256-5.792,23.121-5.792,23.121
								L386.721,148.676z"/>
						</g>
						<path style="fill:#91310C;" d="M372.67,192.066c-1.49-9.072-1.295-19.552-0.962-25.904v0.001c0,0,0.177-23.377,5.79-23.121
							c3.21,0.146,6.275,4.023,8.228,7.134c7.729,3.359,16.445,13.215,19.607,22.804c-0.979-10.998-11.561-24.183-20.755-28.177
							c-1.954-3.11-5.017-6.987-8.227-7.134c-5.615-0.256-5.792,23.121-5.792,23.121l0,0
							C370.157,168.448,369.955,182.111,372.67,192.066z"/>
					</g>
					<g>
						<g>
							<path style="fill:#BDC3D1;" d="M409.875,198.059c-0.775,0.537-1.852,0.357-2.4-0.399l-9.702-13.356
								c-0.55-0.758-0.367-1.808,0.409-2.345l0,0c0.776-0.538,1.852-0.359,2.402,0.398l9.7,13.358
								C410.835,196.473,410.651,197.523,409.875,198.059L409.875,198.059z"/>
							<path style="fill:#A8B0C1;" d="M403.069,191.035c0.956-0.476,1.79-1.095,2.493-1.823l-4.978-6.855
								c-0.551-0.758-1.626-0.936-2.402-0.398c-0.776,0.537-0.959,1.587-0.409,2.345l4.993,6.874
								C402.867,191.131,402.969,191.085,403.069,191.035z"/>
							<path style="fill:#A8B0C1;" d="M408.808,197.541l-9.7-13.357c-0.551-0.757-0.368-1.807,0.408-2.344
								c0.061-0.042,0.124-0.077,0.186-0.11c-0.498-0.154-1.06-0.089-1.521,0.228c-0.776,0.537-0.959,1.587-0.409,2.345
								l9.702,13.356c0.507,0.699,1.461,0.903,2.216,0.511C409.347,198.061,409.033,197.851,408.808,197.541z"/>
							<path style="fill:#BDC3D1;" d="M413.049,198.108c-1.253,0.866-2.987,0.578-3.876-0.645c-0.888-1.224-0.593-2.917,0.66-3.783
								c1.253-0.867,2.988-0.578,3.876,0.645C414.597,195.548,414.302,197.242,413.049,198.108z"/>
							<path style="fill:#A8B0C1;" d="M410.262,197.606c-0.887-1.223-0.592-2.916,0.661-3.782c0.436-0.303,0.931-0.46,1.428-0.491
								c-0.818-0.277-1.756-0.179-2.518,0.348c-1.253,0.866-1.548,2.56-0.66,3.783c0.579,0.796,1.518,1.193,2.448,1.135
								C411.092,198.421,410.611,198.086,410.262,197.606z"/>
							<path style="fill:#BDC3D1;" d="M409.202,200.77c-1.254,0.867-2.988,0.578-3.877-0.645c-0.888-1.224-0.592-2.916,0.661-3.783
								c1.252-0.866,2.987-0.577,3.876,0.646C410.75,198.208,410.454,199.904,409.202,200.77z"/>
							<path style="fill:#A8B0C1;" d="M408.727,201.033c-0.723-0.105-1.402-0.484-1.858-1.112c-0.888-1.223-0.592-2.916,0.662-3.782
								c0.15-0.107,0.309-0.193,0.473-0.265c-0.685-0.1-1.409,0.046-2.018,0.468c-1.253,0.867-1.549,2.56-0.661,3.783
								C406.106,201.2,407.54,201.552,408.727,201.033z"/>
						</g>
						<g>
							<path style="fill:#A64213;" d="M391.961,168.429c-4.424,2.514-5.689,9.237-2.825,15.017c2.863,5.78,8.772,8.428,13.195,5.914
								c4.424-2.514,5.689-9.237,2.826-15.016C402.293,168.563,396.386,165.915,391.961,168.429z"/>
							<path style="fill:#91310C;" d="M391.861,184.168c-2.646-5.341-1.654-11.453,2.216-13.651
								c3.869-2.197,9.151,0.35,11.797,5.689c0.061,0.123,0.117,0.245,0.175,0.368c-0.233-0.751-0.528-1.499-0.892-2.23
								c-2.864-5.781-8.772-8.429-13.196-5.915c-4.424,2.514-5.689,9.237-2.825,15.017c2.082,4.203,5.775,6.748,9.335,6.858
								C395.904,189.499,393.423,187.32,391.861,184.168z"/>
						</g>
					</g>
					<g>
						<path style="fill:#91310C;" d="M393.305,155.984c-0.365,0.285-1.097-0.013-1.636-0.667c-0.537-0.653-0.678-1.416-0.313-1.701
							c0.365-0.285,1.099,0.013,1.635,0.666C393.53,154.938,393.67,155.698,393.305,155.984z"/>
						<path style="fill:#91310C;" d="M386.934,153.721c-0.366,0.286-1.097-0.013-1.636-0.667c-0.537-0.653-0.679-1.415-0.314-1.702
							c0.365-0.285,1.098,0.014,1.636,0.668C387.158,152.673,387.298,153.436,386.934,153.721z"/>
						<path style="fill:#91310C;" d="M390.723,160.233c-0.363,0.287-1.097-0.013-1.635-0.668c-0.538-0.652-0.679-1.416-0.314-1.701
							c0.364-0.286,1.098,0.013,1.635,0.666C390.947,159.186,391.088,159.947,390.723,160.233z"/>
						<path style="fill:#91310C;" d="M389.913,164.784c-0.364,0.287-1.096-0.011-1.635-0.665c-0.537-0.653-0.677-1.417-0.313-1.702
							c0.364-0.285,1.096,0.012,1.635,0.664C390.138,163.736,390.279,164.499,389.913,164.784z"/>
						<path style="fill:#91310C;" d="M384.265,160.873c-0.363,0.285-1.097-0.013-1.635-0.668c-0.538-0.655-0.679-1.416-0.314-1.702
							c0.364-0.285,1.097,0.013,1.635,0.668C384.489,159.824,384.631,160.587,384.265,160.873z"/>
						<path style="fill:#91310C;" d="M396.102,165.42c-0.365,0.286-1.098-0.013-1.635-0.666c-0.538-0.654-0.68-1.418-0.314-1.704
							c0.364-0.285,1.097,0.013,1.634,0.668C396.325,164.372,396.467,165.135,396.102,165.42z"/>
					</g>
				</g>
				<path style="fill:#767F8E;" d="M378.64,137.954c0,1.206-0.977,2.184-2.183,2.184c-1.206,0-2.184-0.977-2.184-2.184
					c0-1.205,0.978-2.183,2.184-2.183C377.663,135.771,378.64,136.749,378.64,137.954z"/>
			</g>
			<g>
				
					<line style="fill:none;stroke:#A6ACBC;stroke-width:2;stroke-linecap:round;stroke-linejoin:round;stroke-miterlimit:10;" x1="478.909" y1="93.047" x2="478.909" y2="105.729"/>
				<g>
					<g>
						<g>
							<path style="fill:#BDC3D1;" d="M516.229,163.109c-0.776,0.538-1.852,0.357-2.401-0.399l-9.701-13.357
								c-0.55-0.758-0.367-1.808,0.409-2.345l0,0c0.776-0.537,1.852-0.358,2.401,0.399l9.701,13.357
								C517.19,161.523,517.006,162.573,516.229,163.109L516.229,163.109z"/>
							<path style="fill:#A8B0C1;" d="M509.424,156.087c0.956-0.476,1.789-1.096,2.492-1.824l-4.978-6.854
								c-0.55-0.758-1.625-0.937-2.401-0.399c-0.776,0.537-0.959,1.587-0.409,2.345l4.992,6.874
								C509.221,156.182,509.322,156.137,509.424,156.087z"/>
							<path style="fill:#A8B0C1;" d="M515.162,162.592l-9.701-13.356c-0.55-0.759-0.367-1.808,0.409-2.345
								c0.061-0.041,0.123-0.077,0.186-0.11c-0.497-0.154-1.06-0.088-1.52,0.229c-0.776,0.537-0.959,1.587-0.409,2.345l9.701,13.357
								c0.508,0.7,1.462,0.904,2.217,0.511C515.701,163.112,515.387,162.902,515.162,162.592z"/>
							<path style="fill:#BDC3D1;" d="M519.403,163.159c-1.253,0.866-2.987,0.578-3.877-0.645c-0.887-1.223-0.592-2.916,0.661-3.782
								c1.252-0.867,2.988-0.579,3.876,0.644C520.951,160.6,520.655,162.293,519.403,163.159z"/>
							<path style="fill:#A8B0C1;" d="M516.616,162.657c-0.888-1.222-0.592-2.916,0.661-3.782c0.436-0.303,0.931-0.46,1.428-0.491
								c-0.818-0.276-1.757-0.178-2.518,0.349c-1.253,0.866-1.548,2.56-0.661,3.782c0.579,0.796,1.518,1.194,2.449,1.135
								C517.445,163.472,516.965,163.138,516.616,162.657z"/>
							<path style="fill:#BDC3D1;" d="M515.556,165.82c-1.253,0.867-2.987,0.578-3.876-0.645c-0.888-1.223-0.593-2.916,0.661-3.783
								c1.252-0.866,2.988-0.578,3.876,0.646C517.104,163.26,516.809,164.955,515.556,165.82z"/>
							<path style="fill:#A8B0C1;" d="M515.081,166.084c-0.723-0.104-1.401-0.484-1.858-1.112c-0.888-1.223-0.593-2.916,0.661-3.782
								c0.15-0.107,0.31-0.193,0.474-0.264c-0.685-0.101-1.409,0.045-2.018,0.467c-1.254,0.867-1.549,2.561-0.661,3.783
								C512.461,166.251,513.894,166.602,515.081,166.084z"/>
						</g>
						<g>
							<path style="fill:#A64213;" d="M498.315,133.48c-4.425,2.514-5.689,9.237-2.826,15.017c2.863,5.78,8.772,8.428,13.196,5.914
								c4.424-2.514,5.69-9.237,2.826-15.016C508.647,133.613,502.74,130.966,498.315,133.48z"/>
							<path style="fill:#91310C;" d="M498.215,149.219c-2.646-5.341-1.653-11.452,2.216-13.651
								c3.869-2.198,9.151,0.35,11.798,5.689c0.061,0.123,0.117,0.244,0.174,0.368c-0.232-0.751-0.528-1.5-0.891-2.23
								c-2.864-5.781-8.772-8.429-13.196-5.915c-4.425,2.514-5.689,9.237-2.826,15.017c2.083,4.203,5.774,6.748,9.335,6.857
								C502.259,154.55,499.777,152.372,498.215,149.219z"/>
						</g>
					</g>
					<g>
						<g>
							<path style="fill:#A64213;" d="M473.43,122.753c0,0-2.873,28.359,3.444,42.021c6.32,13.662,28.175-2.755,30.821-20.049
								C510.606,125.709,475.962,94.378,473.43,122.753z"/>
							<path style="fill:#A64213;" d="M489.174,116.451c0,0-4.98-10.762-10.369-11.007c-5.615-0.256-5.792,23.121-5.792,23.121
								L489.174,116.451z"/>
						</g>
						<path style="fill:#91310C;" d="M475.123,159.842c-1.49-9.072-1.295-19.552-0.962-25.904v0.001c0,0,0.177-23.377,5.79-23.121
							c3.21,0.146,6.275,4.023,8.227,7.134c7.729,3.359,16.445,13.215,19.607,22.804c-0.978-10.998-11.56-24.183-20.755-28.177
							c-1.954-3.11-5.017-6.987-8.227-7.134c-5.615-0.256-5.792,23.121-5.792,23.121l0,0
							C472.61,136.224,472.408,149.887,475.123,159.842z"/>
					</g>
					<g>
						<g>
							<path style="fill:#BDC3D1;" d="M512.328,165.834c-0.775,0.537-1.851,0.357-2.4-0.399l-9.702-13.357
								c-0.55-0.758-0.367-1.808,0.409-2.345l0,0c0.776-0.538,1.852-0.359,2.402,0.398l9.7,13.358
								C513.288,164.248,513.104,165.298,512.328,165.834L512.328,165.834z"/>
							<path style="fill:#A8B0C1;" d="M505.522,158.811c0.956-0.475,1.79-1.095,2.493-1.823l-4.979-6.855
								c-0.551-0.758-1.626-0.937-2.402-0.398c-0.776,0.537-0.959,1.587-0.409,2.345l4.993,6.874
								C505.32,158.906,505.422,158.86,505.522,158.811z"/>
							<path style="fill:#A8B0C1;" d="M511.261,165.316l-9.7-13.357c-0.551-0.757-0.368-1.807,0.408-2.344
								c0.061-0.042,0.124-0.077,0.186-0.11c-0.498-0.154-1.06-0.089-1.52,0.229c-0.776,0.537-0.959,1.587-0.409,2.345l9.702,13.357
								c0.507,0.699,1.461,0.903,2.216,0.511C511.8,165.837,511.486,165.626,511.261,165.316z"/>
							<path style="fill:#BDC3D1;" d="M515.502,165.884c-1.253,0.866-2.987,0.578-3.876-0.645c-0.888-1.224-0.593-2.917,0.66-3.783
								c1.253-0.867,2.988-0.578,3.876,0.645C517.05,163.323,516.755,165.018,515.502,165.884z"/>
							<path style="fill:#A8B0C1;" d="M512.715,165.382c-0.887-1.223-0.592-2.916,0.661-3.782c0.437-0.303,0.931-0.46,1.428-0.491
								c-0.818-0.277-1.756-0.179-2.518,0.348c-1.253,0.866-1.548,2.559-0.66,3.783c0.579,0.796,1.518,1.193,2.448,1.135
								C513.545,166.196,513.065,165.861,512.715,165.382z"/>
							<path style="fill:#BDC3D1;" d="M511.655,168.545c-1.254,0.867-2.988,0.578-3.877-0.645c-0.888-1.224-0.592-2.916,0.661-3.783
								c1.252-0.866,2.987-0.577,3.876,0.645C513.203,165.983,512.907,167.68,511.655,168.545z"/>
							<path style="fill:#A8B0C1;" d="M511.181,168.809c-0.723-0.104-1.402-0.484-1.858-1.112c-0.888-1.223-0.592-2.916,0.662-3.782
								c0.15-0.106,0.309-0.193,0.473-0.265c-0.685-0.1-1.409,0.046-2.018,0.468c-1.253,0.867-1.549,2.56-0.661,3.783
								C508.56,168.976,509.993,169.327,511.181,168.809z"/>
						</g>
						<g>
							<path style="fill:#A64213;" d="M494.414,136.204c-4.424,2.514-5.69,9.237-2.825,15.017c2.863,5.78,8.771,8.428,13.195,5.914
								c4.424-2.514,5.689-9.237,2.826-15.016C504.746,136.338,498.839,133.69,494.414,136.204z"/>
							<path style="fill:#91310C;" d="M494.314,151.943c-2.646-5.341-1.654-11.453,2.216-13.651
								c3.869-2.197,9.151,0.35,11.797,5.689c0.061,0.123,0.117,0.245,0.175,0.368c-0.233-0.751-0.528-1.499-0.892-2.23
								c-2.864-5.781-8.771-8.429-13.196-5.915c-4.424,2.514-5.69,9.237-2.825,15.017c2.082,4.203,5.774,6.748,9.335,6.858
								C498.357,157.274,495.876,155.096,494.314,151.943z"/>
						</g>
					</g>
					<g>
						<path style="fill:#91310C;" d="M495.758,123.76c-0.365,0.285-1.097-0.013-1.636-0.667c-0.537-0.653-0.678-1.416-0.314-1.701
							c0.365-0.285,1.099,0.013,1.635,0.666C495.983,122.713,496.123,123.474,495.758,123.76z"/>
						<path style="fill:#91310C;" d="M489.387,121.496c-0.366,0.286-1.097-0.013-1.636-0.667c-0.537-0.653-0.679-1.415-0.314-1.702
							c0.365-0.285,1.098,0.014,1.636,0.668C489.611,120.448,489.751,121.211,489.387,121.496z"/>
						<path style="fill:#91310C;" d="M493.176,128.009c-0.363,0.287-1.097-0.013-1.635-0.668c-0.538-0.652-0.679-1.416-0.314-1.701
							c0.364-0.286,1.098,0.013,1.635,0.666C493.4,126.961,493.541,127.723,493.176,128.009z"/>
						<path style="fill:#91310C;" d="M492.366,132.56c-0.364,0.287-1.096-0.011-1.635-0.665c-0.537-0.653-0.677-1.417-0.313-1.702
							c0.364-0.285,1.096,0.012,1.635,0.664C492.591,131.512,492.732,132.274,492.366,132.56z"/>
						<path style="fill:#91310C;" d="M486.718,128.648c-0.363,0.285-1.097-0.013-1.635-0.668c-0.538-0.655-0.679-1.416-0.314-1.702
							c0.364-0.285,1.097,0.013,1.635,0.668C486.942,127.6,487.084,128.362,486.718,128.648z"/>
						<path style="fill:#91310C;" d="M498.555,133.195c-0.365,0.286-1.098-0.013-1.635-0.666c-0.538-0.654-0.68-1.418-0.314-1.704
							c0.364-0.285,1.097,0.013,1.634,0.668C498.778,132.148,498.92,132.91,498.555,133.195z"/>
					</g>
				</g>
				<path style="fill:#767F8E;" d="M481.093,105.729c0,1.206-0.977,2.184-2.183,2.184c-1.206,0-2.184-0.978-2.184-2.184
					c0-1.205,0.978-2.183,2.184-2.183C480.116,103.547,481.093,104.524,481.093,105.729z"/>
			</g>
			<path style="fill:none;stroke:#A6ACBC;stroke-width:2;stroke-linecap:round;stroke-linejoin:round;stroke-miterlimit:10;" d="
				M417.516,93.047"/>
			<g>
				<g>
					<rect x="623.18" y="260.782" style="fill:#A64213;" width="63.689" height="56.438"/>
					<rect x="598.847" y="260.782" style="fill:#933714;" width="24.333" height="56.438"/>
				</g>
				<g>
					<rect x="657.854" y="300.759" style="fill:#872F13;" width="21.876" height="2.084"/>
					<rect x="657.854" y="306.712" style="fill:#872F13;" width="21.876" height="2.088"/>
				</g>
			</g>
		</g>
		<g>
			
				<rect x="474.421" y="255.989" transform="matrix(-1 -1.224647e-16 1.224647e-16 -1 960.3125 520.0196)" style="fill:#DC8A6E;" width="11.471" height="8.041"/>
			<g>
				<g>
					<path style="fill:#DC8A6E;" d="M492.435,243.012c0,2.348,1.908,4.254,4.259,4.254c2.353,0,4.258-1.906,4.258-4.254
						c0-2.355-1.905-4.261-4.258-4.261C494.343,238.751,492.435,240.657,492.435,243.012z"/>
					<path style="fill:#DC8A6E;" d="M458.612,243.605c0,2.349,1.906,4.257,4.255,4.257c2.353,0,4.258-1.908,4.258-4.257
						c0-2.352-1.904-4.257-4.258-4.257C460.519,239.348,458.612,241.253,458.612,243.605z"/>
					<path style="fill:#29304A;" d="M478.092,259.572h3.377c8.376,0,15.225-6.852,15.225-15.226v-6.972
						c0-8.373-6.849-15.226-15.225-15.226h-3.377c-8.371,0-15.225,6.853-15.225,15.226v6.972
						C462.867,252.721,469.721,259.572,478.092,259.572z"/>
				</g>
				<path style="fill:#29304A;" d="M496.693,233.956c0,0-4.506,5.75-15.571,7.703l2.386-5.641c0,0-15.457,8.004-20.641,8.329
					c0,0-3.663-13.66,4.258-21.942c7.895-8.254,23.172-5.098,24.279-0.895c0,0,5.549-1.948,7.25,4.961
					C499.563,230.16,496.693,233.956,496.693,233.956z"/>
				<path style="fill:#29304A;" d="M493.813,234.283l2.881,8.136c0,0,4.823-4.773,1.961-15.947L493.813,234.283z"/>
			</g>
			<g>
				<g>
					<path style="fill:#FFFFFF;" d="M466.581,265.039c2.321,1.908,2.663,5.335,0.757,7.662c-0.162,0.201-16.832,17.713-1.474,39.952
						l-8.447,5.336c-8.927-12.496-11.399-24.144-7.091-36.479c3.145-9.007,8.37-15.441,8.593-15.71
						C460.823,263.478,464.254,263.136,466.581,265.039z"/>
					<path style="fill:#E5AB81;" d="M465.63,315.007c0,0,3.618,0.895,7.143,3.025c2.599,1.567,3.843,3.036,3.208,4.077
						c-0.609,0.999-3.101-0.558-3.101-0.558s4.751,9,3.66,10.004c-0.97,0.896-4.182-4.934-4.182-4.934s3.639,6.289,2.609,7.12
						c-1.039,0.835-3.697-3.589-4.572-5.604c0,0,2.471,5.086,1.639,5.702c-0.934,0.691-3.415-2.402-4.54-4.379
						c0,0,2.085,3.641,1.531,4.109c-1.347,1.139-10.14-8.084-9.923-12.19C459.102,321.38,459.671,313.653,465.63,315.007z"/>
					<polygon style="fill:#DCF1F9;" points="465.878,311.694 467.898,315.263 458.603,320.874 456.367,317.273 					"/>
				</g>
				<g>
					<path style="fill:#A64213;" d="M464.142,316.067c0,2.493,1.995,4.518,4.459,4.518h23.001c2.461,0,4.459-2.025,4.459-4.518
						v-8.474c0-2.496-1.998-4.52-4.459-4.52h-23.001c-2.464,0-4.459,2.023-4.459,4.52V316.067z"/>
					<g>
						<g>
							<path style="fill:#29304A;" d="M496.061,387.397v7.193c0,0.685-0.643,1.241-1.434,1.241h-10.634
								c-0.792,0-1.434-0.557-1.434-1.241v-7.193H496.061z"/>
							<path style="fill:#29304A;" d="M493.5,384.362c5.719,0,10.356,4.88,10.356,10.899h-20.716
								C483.141,389.242,487.777,384.362,493.5,384.362z"/>
							<path style="fill:#FFFFFF;" d="M481.859,397.897c0,0.61,0.499,1.101,1.107,1.101h21.054c0.608,0,1.099-0.491,1.099-1.101
								v-2.17c0-0.609-0.49-1.102-1.099-1.102h-21.054c-0.608,0-1.107,0.492-1.107,1.102V397.897z"/>
						</g>
						<rect x="481.792" y="314.688" style="fill:#A64213;" width="14.244" height="69.754"/>
						<rect x="481.792" y="382.707" style="fill:#91310C;" width="14.305" height="4.69"/>
					</g>
					<g>
						<g>
							<path style="fill:#29304A;" d="M464.092,387.397v7.193c0,0.685,0.639,1.241,1.432,1.241h10.634
								c0.793,0,1.438-0.557,1.438-1.241v-7.193H464.092z"/>
							<path style="fill:#29304A;" d="M466.655,384.362c-5.719,0-10.353,4.88-10.353,10.899h20.709
								C477.011,389.242,472.376,384.362,466.655,384.362z"/>
							<path style="fill:#FFFFFF;" d="M478.292,397.897c0,0.61-0.491,1.101-1.103,1.101h-21.055c-0.609,0-1.102-0.491-1.102-1.101
								v-2.17c0-0.609,0.492-1.102,1.102-1.102h21.055c0.611,0,1.103,0.492,1.103,1.102V397.897z"/>
						</g>
						<rect x="464.148" y="314.688" style="fill:#A64213;" width="14.24" height="69.754"/>
						<rect x="464.092" y="382.707" style="fill:#91310C;" width="14.297" height="4.69"/>
					</g>
				</g>
				<g>
					<g>
						<g>
							<polygon style="fill:#536DDA;" points="462.115,306.183 498.059,306.183 498.059,264.166 479.757,264.03 462.115,264.166 
															"/>
							
								<rect x="463.369" y="306.183" transform="matrix(-1 -1.224647e-16 1.224647e-16 -1 960.5087 615.4355)" style="fill:#4563C4;" width="33.771" height="3.07"/>
						</g>
						<path style="fill:#536DDA;" d="M498.059,264.166c0,0-14.878-5.033-35.943,0.002l20.085,7.475L498.059,264.166z"/>
					</g>
					<g>
						<polygon style="fill:#FFFFFF;" points="486.791,261.384 486.857,329.92 498.247,329.92 498.247,264.04 						"/>
					</g>
					<g>
						<polygon style="fill:#FFFFFF;" points="473.087,261.593 473.019,329.92 461.633,329.92 461.522,264.018 						"/>
					</g>
					<path style="fill:#FFFFFF;" d="M473.087,261.593c0,0,7.581-1.11,13.704-0.209l4.613,14.353v54.184h-25.23v-55.487
						L473.087,261.593z"/>
					
						<line style="fill:none;stroke:#DCF1F9;stroke-width:1.0158;stroke-linecap:round;stroke-linejoin:round;stroke-miterlimit:10;" x1="480.428" y1="267.959" x2="480.428" y2="316.284"/>
				</g>
				<g>
					<path style="fill:#FFFFFF;" d="M496.51,263.861c3-0.186,5.585,2.094,5.772,5.09c0.019,0.259-0.266,24.435,26.123,30.266
						l-2.554,9.662c-15.048-3.077-24.789-9.923-30.028-21.89c-3.828-8.737-4.386-17.008-4.408-17.355
						C491.23,266.633,493.507,264.047,496.51,263.861z"/>
					<g>
						<path style="fill:#E5AB81;" d="M530.926,300.378c0,0,3.498-1.289,7.612-1.505c3.026-0.155,4.883,0.361,4.94,1.577
							c0.058,1.17-2.877,1.279-2.877,1.279s8.98,4.783,8.642,6.227c-0.301,1.287-6.23-1.737-6.23-1.737s6.54,3.164,6.154,4.43
							c-0.392,1.273-5.072-0.896-6.929-2.073c0,0,4.898,2.823,4.554,3.802c-0.385,1.095-4.175-0.074-6.213-1.079
							c0,0,3.767,1.845,3.571,2.544c-0.473,1.696-12.927-1.006-15.051-4.524C529.1,309.317,525.233,302.601,530.926,300.378z"/>
						<g>
							<path style="fill:#DC8A6E;" d="M543.083,305.347c0,0,0.002,0.474-0.155,1.167c-0.107,0.334-0.185,0.748-0.365,1.15
								c-0.154,0.416-0.356,0.843-0.588,1.253c-0.22,0.417-0.478,0.811-0.743,1.164c-0.249,0.363-0.517,0.677-0.759,0.932
								c-0.481,0.516-0.832,0.825-0.832,0.825s0.218-0.423,0.588-1.008c0.202-0.28,0.389-0.639,0.604-1.011
								c0.221-0.368,0.465-0.754,0.667-1.163c0.461-0.789,0.843-1.615,1.141-2.239c0.12-0.319,0.264-0.578,0.324-0.77
								C543.04,305.456,543.083,305.347,543.083,305.347z"/>
						</g>
					</g>
					<polygon style="fill:#DCF1F9;" points="527.759,298.508 531.673,299.743 528.685,310.184 524.596,309.067 					"/>
				</g>
			</g>
		</g>
		<g>
			<rect x="315.717" y="255.989" style="fill:#DC8A6E;" width="11.471" height="8.041"/>
			<g>
				<g>
					<path style="fill:#A64213;" d="M337.467,316.067c0,2.493-1.995,4.518-4.459,4.518h-23.001c-2.461,0-4.459-2.025-4.459-4.518
						v-8.474c0-2.496,1.998-4.52,4.459-4.52h23.001c2.464,0,4.459,2.023,4.459,4.52V316.067z"/>
					<g>
						<g>
							<path style="fill:#29304A;" d="M305.547,387.397v7.193c0,0.685,0.643,1.241,1.434,1.241h10.633
								c0.792,0,1.434-0.557,1.434-1.241v-7.193H305.547z"/>
							<path style="fill:#29304A;" d="M308.108,384.362c-5.719,0-10.357,4.88-10.357,10.899h20.716
								C318.468,389.242,313.831,384.362,308.108,384.362z"/>
							<path style="fill:#FFFFFF;" d="M319.749,397.897c0,0.61-0.499,1.101-1.107,1.101h-21.054c-0.609,0-1.099-0.491-1.099-1.101
								v-2.17c0-0.609,0.49-1.102,1.099-1.102h21.054c0.608,0,1.107,0.492,1.107,1.102V397.897z"/>
						</g>
						<rect x="305.572" y="314.688" style="fill:#A64213;" width="14.244" height="69.754"/>
						<rect x="305.511" y="382.707" style="fill:#91310C;" width="14.305" height="4.69"/>
					</g>
					<g>
						<g>
							<path style="fill:#29304A;" d="M337.516,387.397v7.193c0,0.685-0.639,1.241-1.431,1.241h-10.634
								c-0.793,0-1.439-0.557-1.439-1.241v-7.193H337.516z"/>
							<path style="fill:#29304A;" d="M334.953,384.362c5.719,0,10.353,4.88,10.353,10.899h-20.709
								C324.597,389.242,329.232,384.362,334.953,384.362z"/>
							<path style="fill:#FFFFFF;" d="M323.317,397.897c0,0.61,0.491,1.101,1.102,1.101h21.054c0.609,0,1.102-0.491,1.102-1.101
								v-2.17c0-0.609-0.493-1.102-1.102-1.102h-21.054c-0.611,0-1.102,0.492-1.102,1.102V397.897z"/>
						</g>
						<rect x="323.22" y="314.688" style="fill:#A64213;" width="14.24" height="69.754"/>
						<rect x="323.22" y="382.707" style="fill:#91310C;" width="14.296" height="4.69"/>
					</g>
				</g>
				<g>
					<g>
						<path style="fill:#FFFFFF;" d="M310.471,268.48c-0.402-2.979-3.142-5.07-6.118-4.67c-0.258,0.032-23.914,5.024-34.777-19.721
							l-8.979,4.388c5.952,14.159,14.565,22.38,27.324,25.185c9.316,2.051,17.537,0.985,17.882,0.94
							C308.782,274.198,310.874,271.461,310.471,268.48z"/>
						<g>
							<path style="fill:#E5AB81;" d="M267.945,241.844c0,0,0.583-3.682-0.008-7.76c-0.437-2.999-1.306-4.718-2.509-4.538
								c-1.159,0.171-0.694,3.071-0.694,3.071s-6.442-7.876-7.792-7.263c-1.204,0.546,2.919,5.772,2.919,5.772
								s-4.379-5.797-5.545-5.172c-1.173,0.632,1.868,4.8,3.384,6.392c0,0-3.724-4.254-4.616-3.725
								c-0.999,0.59,0.887,4.08,2.27,5.883c0,0-2.544-3.334-3.192-3.006c-1.571,0.794,3.507,12.482,7.373,13.879
								C259.534,245.377,266.876,247.859,267.945,241.844z"/>
							<g>
								<path style="fill:#DC8A6E;" d="M260.703,230.888c0,0-0.099,0.064-0.271,0.175c-0.176,0.097-0.402,0.287-0.692,0.468
									c-0.553,0.413-1.29,0.949-1.974,1.554c-0.362,0.279-0.692,0.593-1.011,0.881c-0.322,0.284-0.638,0.537-0.873,0.79
									c-0.501,0.477-0.874,0.773-0.874,0.773s0.236-0.404,0.647-0.977c0.204-0.288,0.458-0.611,0.767-0.927
									c0.294-0.329,0.63-0.658,0.997-0.955c0.357-0.308,0.736-0.589,1.113-0.821c0.361-0.255,0.752-0.412,1.058-0.583
									C260.238,230.979,260.703,230.888,260.703,230.888z"/>
							</g>
						</g>
						<polygon style="fill:#DCF1F9;" points="270.398,244.585 268.422,240.988 258.765,245.953 260.657,249.746 						"/>
					</g>
					<g>
						<path style="fill:#FFFFFF;" d="M338.174,263.976c2.967-0.486,5.768,1.522,6.255,4.483c0.045,0.257,2.193,24.339,29.033,27.487
							l-1.569,9.87c-15.28-1.55-25.662-7.382-32.077-18.761c-4.687-8.31-6.073-16.482-6.131-16.824
							C333.201,267.265,335.206,264.464,338.174,263.976z"/>
						<g>
							<path style="fill:#E5AB81;" d="M376.087,296.848c0,0,3.35-1.635,7.423-2.263c2.996-0.457,4.893-0.131,5.073,1.073
								c0.175,1.159-2.734,1.563-2.734,1.563s9.418,3.856,9.226,5.326c-0.17,1.31-6.374-1.103-6.374-1.103s6.824,2.491,6.568,3.79
								c-0.263,1.306-5.138-0.383-7.104-1.367c0,0,5.159,2.316,4.914,3.325c-0.273,1.127-4.161,0.346-6.291-0.451
								c0,0,3.934,1.458,3.809,2.174c-0.299,1.733-12.962,0.299-15.429-2.988C375.168,305.927,370.646,299.632,376.087,296.848z"/>
							<g>
								<path style="fill:#DC8A6E;" d="M388.683,300.569c0,0,0.049,0.471-0.037,1.177c-0.074,0.343-0.109,0.763-0.248,1.182
									c-0.112,0.43-0.27,0.874-0.46,1.305c-0.177,0.439-0.394,0.855-0.622,1.233c-0.212,0.388-0.446,0.726-0.662,1.005
									c-0.427,0.561-0.744,0.904-0.744,0.904s0.174-0.443,0.483-1.061c0.173-0.3,0.322-0.676,0.5-1.067
									c0.182-0.389,0.387-0.797,0.547-1.225c0.379-0.831,0.676-1.692,0.91-2.343C388.559,301.024,388.683,300.569,388.683,300.569
									z"/>
							</g>
						</g>
						<polygon style="fill:#DCF1F9;" points="372.748,295.306 376.766,296.143 374.843,306.829 370.662,306.131 						"/>
					</g>
					<g>
						<g>
							<polygon style="fill:#536DDA;" points="339.493,306.183 303.55,306.183 303.55,264.166 321.852,264.03 339.493,264.166 
															"/>
							<rect x="304.469" y="306.183" style="fill:#4563C4;" width="33.771" height="3.07"/>
						</g>
						<path style="fill:#536DDA;" d="M303.55,264.166c0,0,14.877-5.033,35.943,0.002l-20.085,7.475L303.55,264.166z"/>
					</g>
					<g>
						<polygon style="fill:#FFFFFF;" points="314.817,261.384 314.75,329.92 303.361,329.92 303.361,264.04 						"/>
					</g>
					<g>
						<polygon style="fill:#FFFFFF;" points="328.522,261.593 328.589,329.92 339.976,329.92 340.085,264.018 						"/>
					</g>
					<path style="fill:#FFFFFF;" d="M328.522,261.593c0,0-7.582-1.11-13.705-0.209l-4.613,14.353v54.184h25.23v-55.487
						L328.522,261.593z"/>
					
						<line style="fill:none;stroke:#DCF1F9;stroke-width:1.0158;stroke-linecap:round;stroke-linejoin:round;stroke-miterlimit:10;" x1="322.819" y1="267.959" x2="322.819" y2="316.284"/>
				</g>
			</g>
			<g>
				<g>
					<path style="fill:#DC8A6E;" d="M309.174,243.012c0,2.348-1.909,4.254-4.259,4.254c-2.353,0-4.258-1.906-4.258-4.254
						c0-2.355,1.905-4.261,4.258-4.261C307.265,238.751,309.174,240.657,309.174,243.012z"/>
					<path style="fill:#DC8A6E;" d="M342.996,243.605c0,2.349-1.907,4.257-4.255,4.257c-2.354,0-4.258-1.908-4.258-4.257
						c0-2.352,1.904-4.257,4.258-4.257C341.089,239.348,342.996,241.253,342.996,243.605z"/>
					<path style="fill:#29304A;" d="M323.516,259.572h-3.377c-8.375,0-15.224-6.852-15.224-15.226v-6.972
						c0-8.373,6.849-15.226,15.224-15.226h3.377c8.372,0,15.225,6.853,15.225,15.226v6.972
						C338.741,252.721,331.888,259.572,323.516,259.572z"/>
				</g>
				<path style="fill:#29304A;" d="M304.915,233.956c0,0,4.505,5.75,15.571,7.703l-2.386-5.641c0,0,15.457,8.004,20.641,8.329
					c0,0,3.663-13.66-4.258-21.942c-7.895-8.254-23.171-5.098-24.279-0.895c0,0-5.549-1.948-7.251,4.961
					C302.045,230.16,304.915,233.956,304.915,233.956z"/>
				<path style="fill:#29304A;" d="M307.796,234.283l-2.881,8.136c0,0-4.823-4.773-1.961-15.947L307.796,234.283z"/>
				<path style="fill:#29304A;" d="M322.073,262.881c11.618-0.006,21.957-4.243,21.957-4.243l-4.873-16.219h-17.084h-0.018h-17.083
					l-4.874,16.219c0,0,9.292,3.721,21.957,4.241v0.002c0.005,0,0.01,0,0.015,0C322.071,262.881,322.072,262.881,322.073,262.881
					L322.073,262.881z"/>
			</g>
		</g>
	</g>
</g>
<g id="TEXTS">
	<g>
		<text transform="matrix(1 0 0 1 630.8008 279.6279)" style="fill:#FFFFFF; font-family:'Anton-Regular'; font-size:11.8772px;">CHICKEN</text>
		<text transform="matrix(1 0 0 1 630.9551 294.4912)" style="fill:#F4AA08; font-family:'Anton-Regular'; font-size:13.0925px;">NUGGET</text>
	</g>
</g>
</svg>
