<?xml version="1.0" encoding="utf-8"?>
<!-- Generator: Adobe Illustrator 27.5.0, SVG Export Plug-In . SVG Version: 6.00 Build 0)  -->
<svg version="1.1" xmlns="http://www.w3.org/2000/svg" xmlns:xlink="http://www.w3.org/1999/xlink" x="0px" y="0px"
	 viewBox="0 0 500 500" style="enable-background:new 0 0 500 500;" xml:space="preserve">
<g id="Background">
	<rect style="fill:#6699CC;" width="500" height="500"/>
</g>
<g id="Objects">
	<g>
		<g>
			<g>
				<rect y="379.126" style="fill:#1C44AC;" width="500" height="120.874"/>
				<rect y="362.713" style="fill:#113993;" width="500" height="16.413"/>
				
					<line style="fill:none;stroke:#082C6D;stroke-linecap:round;stroke-linejoin:round;stroke-miterlimit:10;" x1="358.606" y1="379.126" x2="485.421" y2="379.126"/>
				
					<line style="fill:none;stroke:#082C6D;stroke-linecap:round;stroke-linejoin:round;stroke-miterlimit:10;" x1="6.224" y1="379.126" x2="261.025" y2="379.126"/>
			</g>
			<g>
				<g>
					<path style="fill:#CDD1D3;" d="M458.206,374.465c-0.046-1.021-0.912-1.811-1.931-1.764l-23.65,1.068
						c-0.49,0.022-0.951,0.238-1.282,0.6c-0.331,0.362-0.504,0.841-0.482,1.331l0.913,27.896h28.166L458.206,374.465z"/>
					<path style="fill:#ECEDEF;" d="M418.864,371.122c-0.124-0.474-0.431-0.88-0.854-1.129c-0.423-0.248-0.927-0.318-1.402-0.194
						l-22.907,5.976c-0.988,0.258-1.581,1.268-1.323,2.256l3.466,13.286h28.289L418.864,371.122z"/>
					<path style="fill:#D9DCDF;" d="M441.366,377.425c-0.046-1.021-0.912-1.811-1.931-1.764l-23.65,1.068
						c-0.49,0.022-0.951,0.238-1.282,0.6c-0.331,0.362-0.504,0.841-0.482,1.331l0.572,12.659h27.401L441.366,377.425z"/>
					<path style="fill:#ECEDEF;" d="M474.832,376.963c0.157-0.465,0.123-0.973-0.094-1.413c-0.217-0.44-0.601-0.775-1.065-0.932
						l-22.426-7.586c-0.968-0.328-2.017,0.192-2.345,1.159l-7.823,23.126h28.897L474.832,376.963z"/>
				</g>
				<g>
					<path style="fill:#FFC44F;" d="M473.568,388.494h-42.364v64.688h40.525c2.116,0,3.832-1.716,3.832-3.832v-58.864
						C475.56,389.386,474.668,388.494,473.568,388.494z"/>
					<path style="fill:#FFC44F;" d="M391.894,388.361c-1.1,0-1.992,0.892-1.992,1.992v15.14v16.733v28.088
						c0,1.584,1.284,2.868,2.868,2.868h43.607c0.003-0.003,0.004-0.004,0.007-0.007v-64.814H391.894z"/>
					<path style="fill:#EFB041;" d="M426.149,400.977h-29.076c-1.1,0-1.992-0.892-1.992-1.992c0-1.101,0.892-1.992,1.992-1.992
						h29.076c1.1,0,1.992,0.892,1.992,1.992C428.141,400.086,427.249,400.977,426.149,400.977z"/>
					<path style="fill:#EFB041;" d="M426.149,407.694h-29.076c-1.1,0-1.992-0.892-1.992-1.992s0.892-1.992,1.992-1.992h29.076
						c1.1,0,1.992,0.892,1.992,1.992S427.249,407.694,426.149,407.694z"/>
					<g>
						<path style="fill:#ECEDEF;" d="M465.463,399.337h-15.375c-1.188,0-2.151-0.963-2.151-2.151v-5.87
							c0-0.191,0.155-0.346,0.345-0.346h18.987c0.191,0,0.345,0.155,0.345,0.346v5.87
							C467.615,398.374,466.651,399.337,465.463,399.337z"/>
						<path style="fill:#F7B14D;" d="M467.163,390.97h-2.455c0.249,0,0.451,0.202,0.451,0.452v5.103
							c0,1.553-1.259,2.812-2.812,2.812h3.438c1.01,0,1.829-0.819,1.829-1.829v-6.086
							C467.615,391.172,467.412,390.97,467.163,390.97z"/>
					</g>
					
						<line style="fill:none;stroke:#EAAD42;stroke-width:0.5;stroke-linecap:round;stroke-linejoin:round;stroke-miterlimit:10;" x1="436.383" y1="390.033" x2="436.383" y2="452.434"/>
				</g>
			</g>
			<g>
				<g>
					<g>
						<path style="fill:#CDD1D3;" d="M43.39,309.997c0.046-1.021,0.912-1.811,1.931-1.764l23.65,1.068
							c0.49,0.022,0.951,0.238,1.282,0.6c0.331,0.362,0.504,0.841,0.482,1.331l-0.913,27.896H41.656L43.39,309.997z"/>
						<path style="fill:#ECEDEF;" d="M82.732,306.655c0.124-0.474,0.431-0.88,0.854-1.128c0.423-0.248,0.927-0.318,1.402-0.194
							l22.907,5.976c0.988,0.258,1.58,1.268,1.322,2.256l-3.466,13.286H77.463L82.732,306.655z"/>
						<path style="fill:#D9DCDF;" d="M60.23,312.957c0.046-1.021,0.913-1.811,1.931-1.764l23.65,1.068
							c0.49,0.022,0.951,0.238,1.282,0.6c0.331,0.362,0.504,0.841,0.482,1.331l-0.572,12.659H59.603L60.23,312.957z"/>
						<path style="fill:#ECEDEF;" d="M26.763,312.495c-0.157-0.465-0.123-0.973,0.094-1.413c0.217-0.44,0.601-0.775,1.065-0.932
							l22.426-7.586c0.968-0.328,2.018,0.192,2.345,1.159l7.822,23.126H31.619L26.763,312.495z"/>
					</g>
					<g>
						<path style="fill:#FFC44F;" d="M28.028,324.026h42.364v64.688H29.867c-2.116,0-3.832-1.716-3.832-3.832v-58.864
							C26.035,324.918,26.927,324.026,28.028,324.026z"/>
						<path style="fill:#FFC44F;" d="M109.702,323.893c1.1,0,1.992,0.892,1.992,1.992v15.14v16.733v28.088
							c0,1.584-1.284,2.868-2.868,2.868H65.219c-0.003-0.003-0.004-0.004-0.007-0.007v-64.814H109.702z"/>
						<path style="fill:#EFB041;" d="M75.447,336.51h29.076c1.1,0,1.992-0.892,1.992-1.992s-0.892-1.992-1.992-1.992H75.447
							c-1.1,0-1.992,0.892-1.992,1.992S74.346,336.51,75.447,336.51z"/>
						<path style="fill:#EFB041;" d="M75.447,343.227h29.076c1.1,0,1.992-0.892,1.992-1.992s-0.892-1.992-1.992-1.992H75.447
							c-1.1,0-1.992,0.892-1.992,1.992S74.346,343.227,75.447,343.227z"/>
						<g>
							<path style="fill:#ECEDEF;" d="M36.132,334.869h15.375c1.188,0,2.151-0.963,2.151-2.151v-5.87
								c0-0.191-0.155-0.345-0.345-0.345H34.327c-0.191,0-0.345,0.155-0.345,0.345v5.87
								C33.981,333.906,34.944,334.869,36.132,334.869z"/>
							<path style="fill:#F7B14D;" d="M34.433,326.502h2.455c-0.249,0-0.452,0.202-0.452,0.451v5.103
								c0,1.553,1.259,2.812,2.812,2.812H35.81c-1.01,0-1.829-0.819-1.829-1.829v-6.086
								C33.981,326.704,34.183,326.502,34.433,326.502z"/>
						</g>
						
							<line style="fill:none;stroke:#EAAD42;stroke-width:0.5;stroke-linecap:round;stroke-linejoin:round;stroke-miterlimit:10;" x1="65.213" y1="325.565" x2="65.213" y2="387.967"/>
					</g>
				</g>
				<g>
					<path style="fill:#FFC44F;" d="M145.867,453.182H16.942c-1.534,0-2.777-1.243-2.777-2.777v-58.914
						c0-1.534,1.243-2.777,2.777-2.777h128.925c1.534,0,2.777,1.243,2.777,2.777v58.914
						C148.644,451.939,147.401,453.182,145.867,453.182z"/>
					
						<line style="fill:none;stroke:#EAAD42;stroke-width:0.5;stroke-linecap:round;stroke-linejoin:round;stroke-miterlimit:10;" x1="111.694" y1="389.381" x2="111.694" y2="453.182"/>
					
						<line style="fill:none;stroke:#EAAD42;stroke-width:0.5;stroke-linecap:round;stroke-linejoin:round;stroke-miterlimit:10;" x1="18.29" y1="388.714" x2="144.094" y2="388.714"/>
				</g>
			</g>
			<g>
				<path style="fill:none;stroke:#B5CEE2;stroke-miterlimit:10;" d="M120.754,239.396H29.85c-2.107,0-3.815-1.708-3.815-3.815
					V50.502c0-2.107,1.708-3.815,3.815-3.815h90.904c2.107,0,3.815,1.708,3.815,3.815v185.08
					C124.569,237.689,122.861,239.396,120.754,239.396z"/>
				
					<rect x="-16.052" y="98.775" transform="matrix(-1.836970e-16 1 -1 -1.836970e-16 218.3445 67.7396)" style="fill:none;stroke:#B5CEE2;stroke-miterlimit:10;" width="182.709" height="88.534"/>
			</g>
		</g>
		<g>
			<ellipse style="opacity:0.36;fill:#B9C2EF;" cx="261.025" cy="452.434" rx="68.239" ry="4.421"/>
			<path style="fill:#2D2825;" d="M265.768,62.566h-9.901v-9.39h5.992c3.672,0,6.649,2.977,6.649,6.649l0,0
				C268.509,61.339,267.282,62.566,265.768,62.566z"/>
			<path style="fill:#EAE9D8;" d="M224.063,119.146l2.634-9.7c0,0,21.06-3.684,27.764,0l4.088,10.017
				C258.549,119.462,239.355,124.16,224.063,119.146"/>
			<g>
				<path style="fill:#040407;" d="M226.931,438.248l19.239,7.299c2.14,0.812,3.852,2.469,4.733,4.581l0,0h-26.897h-9.915
					c-1.262,0-2.286-1.023-2.286-2.286v-13.417v-4.608h12.201v4.675C224.007,436.266,225.211,437.814,226.931,438.248z"/>
				<path style="fill:#040407;" d="M297.056,434.532v-4.675h-12.201v4.608v13.417c0,1.262,1.023,2.286,2.286,2.286h9.915h26.897l0,0
					c0-1.508-0.924-2.861-2.328-3.411l-21.644-8.47C298.261,437.853,297.056,436.306,297.056,434.532z"/>
			</g>
			<polygon style="fill:#13111E;" points="205.382,227.768 205.382,264.938 205.382,264.938 208.875,440.012 230.698,438.634 
				237.062,264.938 243.456,264.938 275.136,264.938 275.136,264.938 275.136,227.768 			"/>
			<path style="fill:#F9F9EA;" d="M212.3,151.662l26.326,47.233l19.922-24.528l12.338-18.501c0,0,1.745-33.698,1.448-34.408
				l-19.522-2.974H227.94l-22.725,3.869L212.3,151.662z"/>
			<path style="fill:#E28152;" d="M236.994,99.465c3.513,6.023,8.816,11.328,15.142,13.881v-16.27
				C247.31,98.102,242.409,100.067,236.994,99.465z"/>
			<path style="fill:#F09762;" d="M236.994,99.465c5.415,0.602,10.316-1.363,15.142-2.389V54.191h-20.903
				c-1.346,0-2.437,1.091-2.437,2.437v64.579l0,0c5.224,8.919,18.116,8.919,23.34,0l0,0v-7.861
				C245.81,110.793,240.508,105.488,236.994,99.465z"/>
			<path style="fill:#F09762;" d="M262.243,102.398h-33.448v-45.77c0-1.346,1.091-2.437,2.437-2.437h24.039
				c5.709,0,10.384,4.54,10.551,10.247l-0.192,34.457C265.695,100.81,264.16,102.398,262.243,102.398z"/>
			
				<path style="fill:#F09762;stroke:#5B2E2E;stroke-width:0.5;stroke-linecap:round;stroke-linejoin:round;stroke-miterlimit:10;" d="
				M258.6,71.757l2.256,11.797c0.129,0.674-0.388,1.298-1.073,1.298h-3.561"/>
			<path style="fill:#5B2E2E;" d="M252.136,76.783c0,0.841-0.682,1.523-1.523,1.523c-0.841,0-1.523-0.682-1.523-1.523
				c0-0.841,0.682-1.523,1.523-1.523C251.454,75.26,252.136,75.942,252.136,76.783z"/>
			<path style="fill:#5B2E2E;" d="M265.234,76.783c0,0.841-0.682,1.523-1.523,1.523c-0.841,0-1.523-0.682-1.523-1.523
				c0-0.841,0.682-1.523,1.523-1.523C264.552,75.26,265.234,75.942,265.234,76.783z"/>
			<g>
				<path style="fill:#423D39;" d="M246.238,72.309c2.048-1.617,4.267-2.967,6.627-4.078c0.862-0.406,0.111-1.684-0.748-1.279
					c-2.481,1.168-4.776,2.612-6.927,4.31C244.443,71.851,245.497,72.893,246.238,72.309L246.238,72.309z"/>
			</g>
			<g>
				<path style="fill:#423D39;" d="M261.275,67.083c1.818,0.62,3.362,1.702,4.604,3.162c0.619,0.727,1.662-0.325,1.048-1.048
					c-1.409-1.655-3.204-2.843-5.258-3.543C260.764,65.346,260.376,66.777,261.275,67.083L261.275,67.083z"/>
			</g>
			<path style="fill:#F9F9EA;" d="M226.238,118.486l9.908,4.958c2.67,1.336,5.806,1.369,8.503,0.089l11.881-5.638l10.139,5.193
				l-24.097,20.277l-13.777-4.204l-9.976-9.768L226.238,118.486z"/>
			<polygon style="fill:#8F8E8D;" points="243.593,137.266 237.338,137.266 233.758,129.002 236.161,123.733 244.77,123.733 
				247.173,129.002 			"/>
			<g>
				<g>
					<path style="fill:#F9F9EA;" d="M226.697,109.446l11.93,12.183l-5.902,12.384c-0.529,1.111-2.081,1.188-2.718,0.135
						l-8.785-14.518L226.697,109.446z"/>
					<path style="fill:#F9F9EA;" d="M254.502,109.446l-11.929,12.183l5.902,12.384c0.529,1.111,2.081,1.188,2.718,0.135
						l8.785-14.518L254.502,109.446z"/>
				</g>
				<g>
					<path style="fill:none;stroke:#EAE9D8;stroke-linecap:round;stroke-linejoin:round;stroke-miterlimit:10;" d="M237.828,123.304
						l-5.103,10.708c-0.529,1.111-2.081,1.188-2.718,0.135l-8.785-14.518"/>
					<path style="fill:none;stroke:#EAE9D8;stroke-linecap:round;stroke-linejoin:round;stroke-miterlimit:10;" d="M243.671,123.933
						l4.803,10.079c0.529,1.111,2.081,1.188,2.718,0.135l8.785-14.518"/>
				</g>
			</g>
			<g>
				<path style="fill:#7F7E7D;" d="M243.671,137.266h-6.332l-0.682,9.565c2.403-1.232,4.839-2.425,7.297-3.586L243.671,137.266z"/>
				<path style="fill:#8F8E8D;" d="M236.656,146.831l-4.548,72.839c-0.033,0.464,0.036,0.93,0.203,1.364l5.108,13.323
					c0.772,2.013,3.621,2.013,4.393,0l5.123-13.36c0.157-0.41,0.228-0.849,0.207-1.288l-3.188-76.464
					C241.495,144.406,239.059,145.599,236.656,146.831z"/>
			</g>
			<g>
				<path style="fill:#13111E;" d="M243.297,269.204l39.082,172.514l17.478-7.089l-25.432-171.32l-4.514-23.834
					C234.402,242.836,243.297,269.204,243.297,269.204z"/>
				<line style="fill:none;stroke:#272337;stroke-miterlimit:10;" x1="293.229" y1="437.317" x2="265.997" y2="293.527"/>
			</g>
			<line style="fill:none;stroke:#272337;stroke-miterlimit:10;" x1="216.847" y1="439.407" x2="216.847" y2="293.06"/>
			<rect x="205.382" y="239.993" style="fill:#113035;" width="69.755" height="5.031"/>
			<path style="fill:none;stroke:#426266;stroke-width:2;stroke-miterlimit:10;" d="M245.568,245.62h-11.89
				c-0.744,0-1.347-0.603-1.347-1.347v-3.53c0-0.744,0.603-1.347,1.347-1.347h11.89c0.744,0,1.347,0.603,1.347,1.347v3.53
				C246.914,245.017,246.311,245.62,245.568,245.62z"/>
			<path style="fill:#423D39;" d="M262.077,53.177l-32.981-0.053c-1.325,0-2.399,1.074-2.399,2.399V92.86
				c0,1.325,1.074,2.399,2.399,2.399h1.068c1.177,0,2.18-0.853,2.368-2.015l2.489-15.328c5.131-1.303,8.933-5.939,8.933-11.476
				v-2.538h4.836c5.118,0,9.882-2.613,12.633-6.93l1.471-2.309C263.304,54.02,262.841,53.177,262.077,53.177z"/>
			<g>
				<circle style="fill:#F09762;" cx="235.665" cy="79.312" r="4.38"/>
				
					<path style="fill:#F09762;stroke:#5B2E2E;stroke-width:0.5;stroke-linecap:round;stroke-linejoin:round;stroke-miterlimit:10;" d="
					M235.665,82.284c-1.639,0-2.971-1.333-2.971-2.971c0-1.638,1.333-2.971,2.971-2.971c0.106,0,0.21,0.006,0.313,0.016"/>
			</g>
			<path style="fill:#272337;" d="M274.072,119.63h-12.154l-21.659,76.082v46.797c0,5.928,4.806,10.734,10.734,10.734h24.363v-2.854
				l0.002,0v-130.72C274.932,119.644,274.504,119.63,274.072,119.63z"/>
			<path style="fill:#272337;" d="M206.446,119.63H218.6l21.659,76.082v46.797c0,5.928-4.806,10.734-10.734,10.734h-24.363v-2.854
				l-0.002,0v-130.72C205.586,119.644,206.014,119.63,206.446,119.63z"/>
			<g>
				<polygon style="fill:#272337;" points="260.638,119.63 273.573,119.63 260.13,139.498 266.851,143.245 243.524,185.85 				"/>
				<polyline style="fill:none;stroke:#44405B;stroke-linecap:round;stroke-linejoin:round;stroke-miterlimit:10;" points="
					273.573,119.63 260.13,139.498 266.851,143.245 243.524,185.85 				"/>
			</g>
			<g>
				<polygon style="fill:#272337;" points="220.714,119.63 207.779,119.63 221.222,139.498 214.501,143.245 237.828,185.85 				"/>
				<polyline style="fill:none;stroke:#44405B;stroke-linecap:round;stroke-linejoin:round;stroke-miterlimit:10;" points="
					207.779,119.63 221.222,139.498 214.501,143.245 237.828,185.85 				"/>
			</g>
			
				<line style="fill:none;stroke:#44405B;stroke-linecap:round;stroke-linejoin:round;stroke-miterlimit:10;" x1="205.382" y1="250.389" x2="205.382" y2="155.06"/>
			
				<line style="fill:none;stroke:#44405B;stroke-linecap:round;stroke-linejoin:round;stroke-miterlimit:10;" x1="240.376" y1="245.62" x2="240.376" y2="195.711"/>
			<path style="fill:none;stroke:#44405B;stroke-linecap:round;stroke-linejoin:round;stroke-miterlimit:10;" d="M275.465,189.765"
				/>
			<path style="fill:#E58757;" d="M265.683,89.383c-2.141-0.62-3.706-2.594-3.706-4.934c0-2.36,1.591-4.348,3.76-4.95
				L265.683,89.383z"/>
			<g>
				<path style="fill:#F4F3ED;" d="M249.444,94.158c2.555-1.601,11.797-1.705,13.554,0c0,0-0.564-7.612-6.777-7.612
					C250.008,86.546,249.444,94.158,249.444,94.158z"/>
			</g>
			<path style="fill:#E58757;" d="M251.578,84.449c0,2.837-2.3,5.136-5.136,5.136s-5.136-2.3-5.136-5.136
				c0-2.837,2.3-5.136,5.136-5.136S251.578,81.612,251.578,84.449z"/>
			<g>
				<path style="fill:none;stroke:#514F27;stroke-width:0.5;stroke-linecap:round;stroke-linejoin:round;stroke-miterlimit:10;" d="
					M253.367,80.939h-3.142c-2.507,0-4.657-1.787-5.115-4.252l-0.528-2.842c-0.118-0.633,0.368-1.218,1.013-1.218h9.681
					c0.569,0,1.03,0.461,1.03,1.03V78C256.306,79.623,254.99,80.939,253.367,80.939z"/>
				<g>
					
						<path style="fill:none;stroke:#514F27;stroke-width:0.5;stroke-linecap:round;stroke-linejoin:round;stroke-miterlimit:10;" d="
						M262.882,80.939h2.263c1.806,0,3.355-1.787,3.685-4.252l0.38-2.842c0.085-0.633-0.265-1.218-0.73-1.218h-6.974
						c-0.41,0-0.742,0.461-0.742,1.03V78C260.765,79.623,261.713,80.939,262.882,80.939z"/>
					
						<path style="fill:none;stroke:#514F27;stroke-width:0.5;stroke-linecap:round;stroke-linejoin:round;stroke-miterlimit:10;" d="
						M260.765,76.043c0,0-1.156-1.577-4.459,0"/>
				</g>
			</g>
			<path style="fill:#272337;" d="M275.358,119.668c0,0,10.468-0.621,11.74,6.578c1.272,7.199-11.74,73.216-11.74,73.216V119.668z"
				/>
			<g>
				<path style="fill:#FFEBB7;" d="M322.289,176.522h-56.65v-10.489h56.65c1.138,0,2.06,0.923,2.06,2.061v6.368
					C324.348,175.6,323.426,176.522,322.289,176.522L322.289,176.522z M322.289,176.522"/>
				<rect x="270.883" y="152.548" style="fill:#FFEBB7;" width="54.964" height="11.238"/>
				<path style="fill:#FA6121;" d="M321.373,177.271H264.91c-0.414,0-0.749-0.335-0.749-0.749c0-0.414,0.335-0.749,0.749-0.749
					h56.463c1.239,0,2.247-1.008,2.247-2.248v-4.495c0-1.239-1.008-2.247-2.247-2.247H264.91c-0.414,0-0.749-0.335-0.749-0.749
					c0-0.414,0.335-0.749,0.749-0.749h56.463c2.065,0,3.746,1.68,3.746,3.746v4.495C325.119,175.59,323.438,177.271,321.373,177.271
					L321.373,177.271z M321.373,177.271"/>
				<path style="fill:#E6BE94;" d="M325.847,156.294h-51.218c-0.414,0-0.749-0.335-0.749-0.749c0-0.414,0.336-0.749,0.749-0.749
					h51.218V156.294z M325.847,156.294"/>
				<path style="fill:#E6BE94;" d="M325.847,159.291h-51.218c-0.414,0-0.749-0.336-0.749-0.75c0-0.413,0.336-0.749,0.749-0.749
					h51.218V159.291z M325.847,159.291"/>
				<path style="fill:#E6BE94;" d="M325.847,162.287h-51.218c-0.414,0-0.749-0.335-0.749-0.749s0.336-0.749,0.749-0.749h51.218
					V162.287z M325.847,162.287"/>
				<path style="fill:#E6BE94;" d="M265.639,168.281h55.714c0.414,0,0.749,0.335,0.749,0.749c0,0.414-0.335,0.749-0.749,0.749
					h-55.714V168.281z M265.639,168.281"/>
				<path style="fill:#E6BE94;" d="M265.639,171.277h55.714c0.414,0,0.749,0.336,0.749,0.749c0,0.413-0.335,0.749-0.749,0.749
					h-55.714V171.277z M265.639,171.277"/>
				<path style="fill:#E6BE94;" d="M265.639,174.274h55.714c0.414,0,0.749,0.335,0.749,0.749s-0.335,0.749-0.749,0.749h-55.714
					V174.274z M265.639,174.274"/>
				<path style="fill:#555F7E;" d="M326.616,165.284H273.9c-2.479,0-4.495-2.017-4.495-4.495v-5.994
					c0-2.478,2.016-4.495,4.495-4.495h52.716c0.828,0,1.499,0.671,1.499,1.499c0,0.827-0.671,1.499-1.499,1.499H273.9
					c-0.826,0-1.499,0.672-1.499,1.498v5.994c0,0.826,0.672,1.498,1.499,1.498h52.716c0.828,0,1.499,0.671,1.499,1.498
					C328.115,164.613,327.444,165.284,326.616,165.284L326.616,165.284z M326.616,165.284"/>
			</g>
			<g>
				<path style="fill:#FA6121;" d="M261.978,207.953v12.919c0,0.549,0.445,0.994,0.994,0.994h61.914
					c0.549,0,0.994-0.445,0.994-0.994v-12.9c0-0.54-0.431-0.981-0.97-0.994l-40.106-0.967c-0.022-0.001-0.045,0-0.067,0.001
					l-21.808,0.948C262.397,206.982,261.978,207.42,261.978,207.953z M261.978,207.001"/>
				<path style="fill:#BB4919;" d="M319.935,211.46c1.642,0,2.973,1.331,2.973,2.973c0,1.642-1.331,2.973-2.973,2.973
					c-1.642,0-2.973-1.331-2.973-2.973C316.962,212.791,318.293,211.46,319.935,211.46L319.935,211.46z M319.935,211.46"/>
				<path style="fill:#FFFFFF;" d="M290.717,218.893v-8.919h-19.82l-0.991,4.46l0.991,4.459H290.717z M290.717,218.893"/>
				<rect x="264.951" y="209.974" style="fill:#8BC0FF;" width="5.946" height="8.919"/>
				<path style="fill:#466289;" d="M261.978,191.141v-12.876c0-0.549,0.445-0.994,0.994-0.994h61.914
					c0.549,0,0.994,0.445,0.994,0.994v12.876c0,0.549-0.445,0.994-0.994,0.994h-61.914
					C262.423,192.136,261.978,191.691,261.978,191.141z"/>
				<path style="fill:#233145;" d="M319.935,181.73c1.642,0,2.973,1.331,2.973,2.973s-1.331,2.973-2.973,2.973
					c-1.642,0-2.973-1.331-2.973-2.973S318.293,181.73,319.935,181.73L319.935,181.73z M319.935,181.73"/>
				<path style="fill:#DAE0E7;" d="M290.717,189.163v-8.919h-19.82l-0.991,4.46l0.991,4.46H290.717z M290.717,189.163"/>
				<path style="fill:#FFB739;" d="M262.972,192.136c-0.549,0-0.994,0.445-0.994,0.994v6.438v6.438c0,0.549,0.445,0.994,0.994,0.994
					h61.914c0.549,0,0.994-0.445,0.994-0.994v-6.438v-6.438c0-0.549-0.445-0.994-0.994-0.994H262.972z"/>
				<path style="fill:#F67A21;" d="M319.935,196.595c-1.642,0-2.973,1.331-2.973,2.973c0,1.642,1.331,2.973,2.973,2.973
					c1.642,0,2.973-1.331,2.973-2.973C322.908,197.926,321.577,196.595,319.935,196.595z"/>
				<polygon style="fill:#FFFFFF;" points="270.897,195.109 269.906,197.338 270.897,199.568 269.906,201.798 270.897,204.028 
					290.717,204.028 290.717,199.568 290.717,195.109 				"/>
				<g>
					<rect x="264.951" y="180.244" style="fill:#FFFFFF;" width="5.946" height="8.919"/>
					<polygon style="fill:#FFFFFF;" points="264.951,199.568 264.951,204.028 270.897,204.028 270.897,199.568 270.897,195.109 
						264.951,195.109 					"/>
				</g>
			</g>
			<g>
				<path style="fill:#F09762;" d="M273.326,213.036c0,0,3.362-4.987,7.826-4.013l8.361-2.047c0,0,1.18,2.549-1.273,3.93
					c-2.453,1.382-10.766,6.361-10.766,6.361"/>
				<g>
					<g>
						<path style="fill:#F09762;" d="M281.245,218.967l1.221-6.398l-3.069-0.586c-3.357-0.641-6.803-0.655-10.165-0.042l-0.436,0.08
							l-0.622,8.655l18.925,2.312L281.245,218.967z"/>
					</g>
				</g>
				<path style="fill:#F09762;" d="M277.334,221.795c0,0,12.338,1.666,14.621,2.024c2.283,0.358,11.53-0.938,11.53-0.938
					s0.732-1.069-0.427-2.029c-1.159-0.96-8.278,0.936-9.845-0.124c-1.567-1.06-11.317-13.722-19.14-7.732
					C266.25,218.985,277.334,221.795,277.334,221.795z"/>
				<path style="fill:#F9F9EA;" d="M273.457,209.568c0,0-11.304-3.96-11.22-4.168c0.115-0.284-4.757,14.967-4.757,14.967
					l10.043,4.014L273.457,209.568z"/>
			</g>
			<g>
				<path style="fill:#272337;" d="M205.16,119.668c0,0,3.311,10.903,4.63,13.895c2.057,4.666,12.282,46.318,12.282,46.318
					s35.911,20.457,46.897,26.474l-4.82,17.849c0,0-35.835-11.875-43.348-15.614c-8.879-4.419-11.239-2.893-19.038-14.016
					c-1.054-1.503-2.092-3.266-3.097-5.188c-8.208-15.687-10.335-33.856-6.412-51.121l1.767-7.775
					C195.269,124.999,199.634,120.757,205.16,119.668L205.16,119.668z"/>
				<path style="fill:none;stroke:#44405B;stroke-linecap:round;stroke-linejoin:round;stroke-miterlimit:10;" d="M264.149,224.204
					c0,0-35.835-11.875-43.348-15.614c-6.139-3.055-9.162-3.268-13.02-6.786"/>
				<path style="fill:none;stroke:#44405B;stroke-linecap:round;stroke-linejoin:round;stroke-miterlimit:10;" d="M214.992,151.845
					c3.392,13.012,7.08,28.036,7.08,28.036s35.911,20.457,46.897,26.474"/>
			</g>
			<g>
				<g>
					<path style="fill:#CDD1D3;" d="M326.687,58.436c-0.038-0.841-0.752-1.492-1.591-1.453l-19.484,0.88
						c-0.404,0.018-0.784,0.196-1.056,0.495c-0.273,0.298-0.415,0.693-0.397,1.096l0.752,22.983h23.205L326.687,58.436z"/>
					<path style="fill:#ECEDEF;" d="M294.274,55.682c-0.102-0.391-0.355-0.725-0.704-0.93c-0.349-0.205-0.764-0.262-1.155-0.16
						l-18.873,4.923c-0.814,0.212-1.302,1.045-1.09,1.859l2.855,10.946h23.307L294.274,55.682z"/>
					<path style="fill:#D9DCDF;" d="M312.812,60.875c-0.038-0.841-0.752-1.492-1.591-1.453l-19.484,0.88
						c-0.404,0.018-0.784,0.196-1.056,0.495c-0.273,0.298-0.415,0.693-0.397,1.096l0.471,10.429h22.575L312.812,60.875z"/>
					<path style="fill:#ECEDEF;" d="M340.385,60.494c0.13-0.383,0.102-0.801-0.078-1.164c-0.179-0.362-0.495-0.639-0.878-0.768
						l-18.476-6.25c-0.798-0.27-1.662,0.158-1.932,0.955l-6.445,19.053h23.807L340.385,60.494z"/>
					<path style="fill:#FFC44F;" d="M337.316,70.797H304.91v32.406h33.93V72.321C338.84,71.479,338.157,70.797,337.316,70.797z"/>
					<path style="fill:#FFC44F;" d="M274.841,70.695c-0.842,0-1.524,0.682-1.524,1.524V83.8v12.8v6.502
						c0,0.034,0.003,0.068,0.005,0.102h35.545c0.002-0.034,0.005-0.067,0.005-0.102V70.695H274.841z"/>
					<path style="fill:#EFB041;" d="M301.044,80.346h-22.241c-0.842,0-1.524-0.682-1.524-1.524c0-0.842,0.682-1.524,1.524-1.524
						h22.241c0.842,0,1.524,0.682,1.524,1.524C302.568,79.664,301.885,80.346,301.044,80.346z"/>
					<path style="fill:#EFB041;" d="M301.044,85.484h-22.241c-0.842,0-1.524-0.682-1.524-1.524c0-0.842,0.682-1.524,1.524-1.524
						h22.241c0.842,0,1.524,0.682,1.524,1.524C302.568,84.802,301.885,85.484,301.044,85.484z"/>
					<path style="fill:#FFC44F;" d="M307.45,113.158v37.079h29.866c0.842,0,1.524-0.682,1.524-1.524v-35.555H307.45z"/>
					<path style="fill:#FFC44F;" d="M265.902,113.158v12.901v12.8v9.854c0,0.842,0.682,1.524,1.524,1.524h41.447v-37.079H265.902z"
						/>
					<rect x="307.799" y="113.157" style="opacity:0.26;fill:#FFC44F;" width="31.041" height="3.454"/>
					<rect x="265.902" y="113.157" style="opacity:0.26;fill:#FFC44F;" width="41.897" height="3.454"/>
					<path style="fill:#FFC44F;" d="M342.192,101.679H304.91v12.8h37.282c0.841,0,1.524-0.682,1.524-1.524v-9.752
						C343.716,102.361,343.033,101.679,342.192,101.679z"/>
					<path style="fill:#FFC44F;" d="M308.872,101.679h-46.323c-0.841,0-1.524,0.682-1.524,1.524v9.752
						c0,0.842,0.682,1.524,1.524,1.524h46.323V101.679z"/>
					<g>
						<path style="fill:#EFB041;" d="M283.679,122.605h-9.752c-0.842,0-1.524-0.682-1.524-1.524c0-0.842,0.682-1.524,1.524-1.524
							h9.752c0.842,0,1.524,0.682,1.524,1.524C285.203,121.923,284.52,122.605,283.679,122.605z"/>
						<path style="fill:#EFB041;" d="M293.431,122.605h-4.876c-0.842,0-1.524-0.682-1.524-1.524c0-0.842,0.682-1.524,1.524-1.524
							h4.876c0.842,0,1.524,0.682,1.524,1.524C294.955,121.923,294.273,122.605,293.431,122.605z"/>
					</g>
					<g>
						<path style="fill:#ECEDEF;" d="M330.611,79.091h-10.75c-1.188,0-2.151-0.963-2.151-2.151v-3.903
							c0-0.191,0.155-0.345,0.345-0.345h14.361c0.191,0,0.345,0.155,0.345,0.345v3.903
							C332.762,78.128,331.799,79.091,330.611,79.091z"/>
						<path style="fill:#F7B14D;" d="M332.416,72.691h-1.878c0.191,0,0.345,0.155,0.345,0.345v3.903
							c0,1.188-0.963,2.151-2.151,2.151h1.878c1.188,0,2.151-0.963,2.151-2.151v-3.903
							C332.762,72.846,332.607,72.691,332.416,72.691z"/>
					</g>
				</g>
				
					<line style="fill:none;stroke:#EAAD42;stroke-width:0.5;stroke-linecap:round;stroke-linejoin:round;stroke-miterlimit:10;" x1="273.317" y1="101.679" x2="338.84" y2="101.507"/>
				
					<line style="fill:none;stroke:#EAAD42;stroke-width:0.5;stroke-linecap:round;stroke-linejoin:round;stroke-miterlimit:10;" x1="308.872" y1="72.321" x2="308.872" y2="101.679"/>
				
					<line style="fill:none;stroke:#EAAD42;stroke-width:0.5;stroke-linecap:round;stroke-linejoin:round;stroke-miterlimit:10;" x1="308.872" y1="114.478" x2="308.872" y2="149.926"/>
				
					<line style="fill:none;stroke:#EAAD42;stroke-width:0.5;stroke-linecap:round;stroke-linejoin:round;stroke-miterlimit:10;" x1="266.119" y1="114.478" x2="338.436" y2="114.478"/>
			</g>
		</g>
	</g>
</g>
<g id="designed_by_freepik">
	<g style="opacity:0.84;">
		<path style="fill:#F9F9EA;" d="M179.863,489.584v-0.16c-0.218,0.249-0.432,0.452-0.644,0.608
			c-0.211,0.157-0.441,0.276-0.689,0.356c-0.247,0.082-0.517,0.122-0.81,0.122c-0.388,0-0.747-0.082-1.078-0.246
			c-0.33-0.164-0.616-0.399-0.857-0.704c-0.242-0.305-0.425-0.662-0.549-1.074c-0.124-0.412-0.187-0.857-0.187-1.336
			c0-1.013,0.247-1.803,0.742-2.369c0.495-0.565,1.146-0.848,1.953-0.848c0.467,0,0.861,0.081,1.181,0.24
			c0.321,0.16,0.633,0.408,0.938,0.739v-2.392c0-0.333,0.066-0.583,0.199-0.754c0.132-0.17,0.321-0.255,0.567-0.255
			c0.245,0,0.434,0.078,0.567,0.234c0.133,0.157,0.199,0.386,0.199,0.691v7.147c0,0.309-0.071,0.54-0.214,0.695
			c-0.143,0.154-0.326,0.231-0.552,0.231c-0.221,0-0.405-0.08-0.549-0.24C179.935,490.109,179.863,489.881,179.863,489.584z
			 M176.675,487.204c0,0.439,0.068,0.813,0.205,1.122c0.137,0.309,0.324,0.541,0.561,0.697c0.238,0.157,0.497,0.236,0.778,0.236
			c0.285,0,0.545-0.075,0.781-0.223c0.235-0.148,0.423-0.376,0.564-0.682c0.141-0.307,0.21-0.691,0.21-1.149
			c0-0.432-0.07-0.803-0.21-1.114c-0.14-0.31-0.33-0.547-0.57-0.712c-0.24-0.164-0.502-0.245-0.786-0.245
			c-0.297,0-0.562,0.084-0.796,0.252c-0.234,0.168-0.415,0.409-0.543,0.724C176.739,486.423,176.675,486.788,176.675,487.204z"/>
		<path style="fill:#F9F9EA;" d="M187.009,487.614h-3.17c0.004,0.367,0.078,0.692,0.223,0.973c0.144,0.281,0.336,0.493,0.576,0.635
			c0.24,0.143,0.504,0.213,0.793,0.213c0.194,0,0.371-0.022,0.531-0.067c0.16-0.047,0.315-0.117,0.466-0.214
			c0.15-0.096,0.289-0.201,0.415-0.312c0.126-0.111,0.29-0.262,0.493-0.452c0.083-0.071,0.202-0.107,0.357-0.107
			c0.166,0,0.3,0.046,0.403,0.137c0.103,0.091,0.155,0.219,0.155,0.386c0,0.147-0.058,0.317-0.172,0.513
			c-0.116,0.196-0.289,0.384-0.52,0.564c-0.232,0.18-0.522,0.329-0.873,0.448c-0.35,0.119-0.753,0.178-1.208,0.178
			c-1.04,0-1.85-0.297-2.428-0.891s-0.866-1.399-0.866-2.416c0-0.479,0.071-0.924,0.213-1.332c0.143-0.41,0.351-0.761,0.623-1.054
			c0.273-0.293,0.609-0.517,1.01-0.674c0.399-0.156,0.843-0.234,1.33-0.234c0.633,0,1.176,0.132,1.629,0.4
			c0.454,0.267,0.794,0.612,1.019,1.035c0.225,0.424,0.339,0.856,0.339,1.294c0,0.408-0.117,0.672-0.35,0.793
			C187.762,487.553,187.433,487.614,187.009,487.614z M183.839,486.694h2.939c-0.039-0.554-0.189-0.969-0.448-1.244
			c-0.259-0.275-0.6-0.413-1.024-0.413c-0.404,0-0.735,0.139-0.994,0.418C184.052,485.734,183.895,486.147,183.839,486.694z"/>
		<path style="fill:#F9F9EA;" d="M194.393,488.39c0,0.447-0.108,0.831-0.327,1.149c-0.217,0.318-0.539,0.56-0.965,0.724
			c-0.425,0.164-0.943,0.246-1.552,0.246c-0.582,0-1.08-0.089-1.496-0.267c-0.415-0.178-0.722-0.401-0.92-0.667
			c-0.198-0.268-0.297-0.535-0.297-0.805c0-0.178,0.063-0.33,0.19-0.457c0.126-0.126,0.287-0.19,0.481-0.19
			c0.17,0,0.3,0.041,0.391,0.124c0.091,0.083,0.179,0.2,0.261,0.35c0.166,0.29,0.366,0.504,0.597,0.648
			c0.231,0.142,0.547,0.214,0.947,0.214c0.324,0,0.59-0.073,0.798-0.217c0.208-0.145,0.311-0.31,0.311-0.496
			c0-0.285-0.107-0.492-0.324-0.623c-0.216-0.131-0.571-0.256-1.066-0.375c-0.558-0.138-1.012-0.284-1.362-0.436
			c-0.35-0.151-0.63-0.353-0.84-0.602c-0.21-0.25-0.315-0.557-0.315-0.92c0-0.324,0.097-0.631,0.291-0.92
			c0.194-0.288,0.48-0.519,0.858-0.691c0.377-0.173,0.833-0.259,1.368-0.259c0.419,0,0.797,0.043,1.131,0.131
			c0.335,0.086,0.614,0.204,0.837,0.35c0.224,0.146,0.394,0.308,0.51,0.486c0.117,0.178,0.175,0.352,0.175,0.523
			c0,0.186-0.062,0.338-0.186,0.457c-0.124,0.118-0.301,0.178-0.532,0.178c-0.166,0-0.308-0.048-0.424-0.143
			c-0.117-0.095-0.25-0.237-0.401-0.427c-0.123-0.158-0.266-0.285-0.433-0.38c-0.166-0.095-0.392-0.142-0.677-0.142
			c-0.293,0-0.536,0.062-0.73,0.187c-0.194,0.124-0.291,0.279-0.291,0.465c0,0.171,0.071,0.31,0.213,0.419
			c0.143,0.109,0.334,0.2,0.576,0.27c0.241,0.071,0.573,0.158,0.997,0.261c0.502,0.123,0.913,0.27,1.231,0.44
			c0.318,0.17,0.56,0.371,0.725,0.603C194.311,487.83,194.393,488.094,194.393,488.39z"/>
		<path style="fill:#F9F9EA;" d="M196.049,483.168c-0.225,0-0.418-0.07-0.579-0.208c-0.16-0.138-0.24-0.334-0.24-0.588
			c0-0.23,0.082-0.418,0.246-0.567c0.164-0.149,0.356-0.223,0.573-0.223c0.21,0,0.396,0.067,0.558,0.202
			c0.162,0.135,0.244,0.33,0.244,0.588c0,0.25-0.08,0.444-0.238,0.585C196.454,483.097,196.266,483.168,196.049,483.168z
			 M196.85,484.841v4.683c0,0.325-0.077,0.571-0.232,0.737c-0.155,0.166-0.35,0.249-0.588,0.249c-0.238,0-0.431-0.085-0.579-0.255
			c-0.149-0.17-0.222-0.414-0.222-0.731v-4.636c0-0.32,0.074-0.561,0.222-0.724c0.148-0.162,0.341-0.244,0.579-0.244
			c0.238,0,0.433,0.081,0.588,0.244C196.773,484.327,196.85,484.552,196.85,484.841z"/>
		<path style="fill:#F9F9EA;" d="M203.95,485.108v4.707c0,0.538-0.058,1.002-0.173,1.39c-0.114,0.387-0.298,0.708-0.552,0.961
			c-0.253,0.253-0.585,0.441-0.994,0.563c-0.41,0.123-0.919,0.184-1.529,0.184c-0.558,0-1.057-0.078-1.496-0.234
			c-0.439-0.157-0.777-0.358-1.015-0.605c-0.237-0.247-0.357-0.502-0.357-0.763c0-0.198,0.068-0.359,0.202-0.483
			c0.134-0.125,0.297-0.187,0.486-0.187c0.238,0,0.445,0.105,0.624,0.314c0.087,0.107,0.177,0.216,0.27,0.324
			c0.093,0.109,0.197,0.202,0.309,0.279c0.113,0.076,0.248,0.134,0.407,0.172c0.158,0.037,0.341,0.056,0.546,0.056
			c0.42,0,0.745-0.058,0.977-0.175c0.232-0.117,0.394-0.28,0.487-0.49c0.093-0.209,0.147-0.433,0.163-0.673
			c0.016-0.24,0.027-0.624,0.035-1.155c-0.25,0.349-0.537,0.615-0.864,0.797c-0.326,0.182-0.715,0.273-1.166,0.273
			c-0.542,0-1.016-0.139-1.422-0.416c-0.405-0.277-0.717-0.665-0.934-1.163c-0.218-0.499-0.326-1.074-0.326-1.727
			c0-0.486,0.066-0.926,0.198-1.318c0.133-0.392,0.322-0.723,0.567-0.992c0.245-0.269,0.528-0.472,0.849-0.609
			c0.321-0.136,0.673-0.204,1.057-0.204c0.459,0,0.857,0.089,1.193,0.264c0.336,0.177,0.649,0.453,0.938,0.829v-0.22
			c0-0.281,0.069-0.498,0.207-0.653c0.139-0.154,0.317-0.231,0.535-0.231c0.312,0,0.52,0.103,0.623,0.306
			C203.898,484.43,203.95,484.724,203.95,485.108z M199.254,487.162c0,0.657,0.143,1.154,0.43,1.49
			c0.287,0.337,0.658,0.505,1.113,0.505c0.269,0,0.523-0.073,0.762-0.217c0.24-0.145,0.435-0.363,0.585-0.653
			c0.15-0.291,0.226-0.644,0.226-1.06c0-0.66-0.145-1.176-0.436-1.543c-0.291-0.368-0.674-0.552-1.149-0.552
			c-0.463,0-0.834,0.176-1.113,0.529C199.393,486.012,199.254,486.513,199.254,487.162z"/>
		<path style="fill:#F9F9EA;" d="M206.525,484.817v0.196c0.285-0.376,0.596-0.652,0.935-0.828c0.338-0.176,0.727-0.264,1.166-0.264
			c0.428,0,0.809,0.094,1.146,0.28c0.336,0.186,0.588,0.449,0.753,0.789c0.107,0.198,0.176,0.413,0.208,0.642
			c0.032,0.23,0.048,0.522,0.048,0.879v3.015c0,0.325-0.075,0.571-0.223,0.737c-0.148,0.166-0.341,0.249-0.578,0.249
			c-0.242,0-0.437-0.085-0.588-0.255c-0.151-0.17-0.226-0.414-0.226-0.731v-2.701c0-0.534-0.074-0.943-0.223-1.226
			c-0.149-0.283-0.444-0.425-0.888-0.425c-0.288,0-0.552,0.086-0.789,0.258c-0.237,0.173-0.412,0.41-0.522,0.71
			c-0.079,0.242-0.119,0.692-0.119,1.353v2.03c0,0.328-0.077,0.576-0.228,0.74c-0.152,0.164-0.349,0.246-0.59,0.246
			c-0.234,0-0.426-0.085-0.576-0.255c-0.15-0.17-0.225-0.414-0.225-0.731v-4.683c0-0.309,0.067-0.54,0.202-0.692
			c0.135-0.152,0.319-0.228,0.552-0.228c0.143,0,0.272,0.034,0.387,0.101c0.114,0.068,0.207,0.168,0.276,0.302
			C206.49,484.459,206.525,484.624,206.525,484.817z"/>
		<path style="fill:#F9F9EA;" d="M216.384,487.614h-3.17c0.004,0.367,0.078,0.692,0.223,0.973c0.144,0.281,0.336,0.493,0.576,0.635
			c0.239,0.143,0.503,0.213,0.792,0.213c0.194,0,0.371-0.022,0.532-0.067c0.16-0.047,0.315-0.117,0.466-0.214
			c0.15-0.096,0.288-0.201,0.416-0.312c0.126-0.111,0.29-0.262,0.492-0.452c0.083-0.071,0.202-0.107,0.356-0.107
			c0.166,0,0.301,0.046,0.404,0.137c0.103,0.091,0.154,0.219,0.154,0.386c0,0.147-0.057,0.317-0.172,0.513
			c-0.115,0.196-0.288,0.384-0.52,0.564c-0.232,0.18-0.522,0.329-0.872,0.448c-0.35,0.119-0.753,0.178-1.208,0.178
			c-1.041,0-1.85-0.297-2.428-0.891c-0.577-0.593-0.866-1.399-0.866-2.416c0-0.479,0.071-0.924,0.214-1.332
			c0.142-0.41,0.351-0.761,0.624-1.054c0.273-0.293,0.609-0.517,1.009-0.674c0.399-0.156,0.843-0.234,1.33-0.234
			c0.633,0,1.176,0.132,1.629,0.4c0.453,0.267,0.793,0.612,1.019,1.035c0.225,0.424,0.338,0.856,0.338,1.294
			c0,0.408-0.117,0.672-0.35,0.793C217.137,487.553,216.808,487.614,216.384,487.614z M213.214,486.694h2.938
			c-0.039-0.554-0.189-0.969-0.448-1.244c-0.259-0.275-0.601-0.413-1.024-0.413c-0.404,0-0.736,0.139-0.995,0.418
			C213.427,485.734,213.27,486.147,213.214,486.694z"/>
		<path style="fill:#F9F9EA;" d="M222.99,489.584v-0.16c-0.218,0.249-0.432,0.452-0.644,0.608c-0.212,0.157-0.441,0.276-0.689,0.356
			c-0.247,0.082-0.517,0.122-0.81,0.122c-0.389,0-0.747-0.082-1.077-0.246c-0.331-0.164-0.617-0.399-0.858-0.704
			c-0.242-0.305-0.424-0.662-0.549-1.074c-0.125-0.412-0.187-0.857-0.187-1.336c0-1.013,0.247-1.803,0.742-2.369
			c0.495-0.565,1.146-0.848,1.953-0.848c0.467,0,0.861,0.081,1.181,0.24c0.32,0.16,0.633,0.408,0.938,0.739v-2.392
			c0-0.333,0.066-0.583,0.199-0.754c0.132-0.17,0.322-0.255,0.567-0.255c0.245,0,0.434,0.078,0.567,0.234
			c0.132,0.157,0.199,0.386,0.199,0.691v7.147c0,0.309-0.071,0.54-0.214,0.695c-0.142,0.154-0.326,0.231-0.552,0.231
			c-0.222,0-0.405-0.08-0.549-0.24C223.062,490.109,222.99,489.881,222.99,489.584z M219.803,487.204
			c0,0.439,0.068,0.813,0.204,1.122c0.136,0.309,0.324,0.541,0.562,0.697c0.237,0.157,0.496,0.236,0.777,0.236
			c0.285,0,0.546-0.075,0.781-0.223c0.236-0.148,0.424-0.376,0.564-0.682c0.141-0.307,0.211-0.691,0.211-1.149
			c0-0.432-0.07-0.803-0.211-1.114c-0.14-0.31-0.33-0.547-0.57-0.712c-0.24-0.164-0.502-0.245-0.787-0.245
			c-0.296,0-0.562,0.084-0.795,0.252c-0.233,0.168-0.414,0.409-0.543,0.724C219.867,486.423,219.803,486.788,219.803,487.204z"/>
		<path style="fill:#F9F9EA;" d="M229.614,482.437v2.475c0.305-0.316,0.615-0.559,0.932-0.727c0.316-0.168,0.709-0.252,1.176-0.252
			c0.538,0,1.01,0.128,1.416,0.382c0.405,0.256,0.72,0.626,0.944,1.111c0.223,0.484,0.336,1.06,0.336,1.725
			c0,0.491-0.063,0.94-0.187,1.35c-0.125,0.41-0.306,0.765-0.543,1.065c-0.238,0.301-0.525,0.534-0.864,0.698
			c-0.339,0.164-0.712,0.246-1.119,0.246c-0.25,0-0.484-0.029-0.703-0.089c-0.22-0.059-0.407-0.137-0.561-0.234
			c-0.154-0.096-0.286-0.197-0.395-0.3c-0.109-0.103-0.253-0.258-0.431-0.463v0.16c0,0.305-0.073,0.535-0.22,0.692
			c-0.146,0.156-0.332,0.234-0.558,0.234c-0.229,0-0.413-0.078-0.549-0.234c-0.137-0.157-0.205-0.388-0.205-0.692v-7.076
			c0-0.328,0.066-0.577,0.198-0.745c0.133-0.168,0.318-0.252,0.555-0.252c0.25,0,0.441,0.08,0.576,0.24
			C229.547,481.912,229.614,482.14,229.614,482.437z M229.691,487.251c0,0.645,0.147,1.14,0.442,1.486
			c0.295,0.347,0.682,0.521,1.161,0.521c0.407,0,0.759-0.177,1.053-0.532c0.295-0.355,0.442-0.862,0.442-1.523
			c0-0.427-0.061-0.796-0.184-1.104c-0.123-0.309-0.297-0.548-0.522-0.715c-0.226-0.168-0.489-0.252-0.79-0.252
			c-0.309,0-0.584,0.084-0.825,0.252c-0.241,0.168-0.431,0.411-0.57,0.73C229.76,486.432,229.691,486.812,229.691,487.251z"/>
		<path style="fill:#F9F9EA;" d="M236.518,490.712l0.148-0.363l-1.995-5.022c-0.122-0.288-0.184-0.499-0.184-0.629
			c0-0.139,0.036-0.267,0.107-0.385c0.071-0.119,0.169-0.214,0.294-0.285c0.125-0.072,0.255-0.108,0.389-0.108
			c0.233,0,0.409,0.074,0.529,0.223c0.119,0.148,0.223,0.361,0.314,0.638l1.371,3.989l1.3-3.71c0.102-0.3,0.196-0.536,0.279-0.706
			c0.083-0.17,0.171-0.285,0.264-0.344c0.093-0.06,0.225-0.09,0.395-0.09c0.123,0,0.24,0.032,0.353,0.098
			c0.113,0.065,0.2,0.153,0.261,0.264c0.061,0.111,0.092,0.227,0.092,0.35c-0.016,0.075-0.042,0.182-0.077,0.321
			c-0.036,0.138-0.079,0.279-0.13,0.421l-2.113,5.533c-0.182,0.487-0.36,0.868-0.535,1.145c-0.174,0.277-0.404,0.491-0.692,0.638
			c-0.287,0.149-0.674,0.223-1.161,0.223c-0.475,0-0.831-0.051-1.068-0.154c-0.238-0.104-0.356-0.292-0.356-0.565
			c0-0.186,0.056-0.33,0.169-0.43c0.112-0.101,0.28-0.152,0.501-0.152c0.087,0,0.173,0.012,0.256,0.037
			c0.103,0.023,0.192,0.036,0.267,0.036c0.186,0,0.333-0.027,0.44-0.084c0.106-0.055,0.202-0.151,0.288-0.288
			C236.309,491.178,236.407,490.977,236.518,490.712z"/>
	</g>
	<g style="opacity:0.84;">
		<path style="fill:#F9F9EA;" d="M259.994,484.061h0.386v-0.487c0-0.509,0.062-0.911,0.192-1.211
			c0.128-0.299,0.347-0.516,0.654-0.653c0.306-0.135,0.727-0.204,1.26-0.204c0.95,0,1.42,0.229,1.42,0.696
			c0,0.149-0.049,0.278-0.15,0.384c-0.096,0.106-0.214,0.16-0.349,0.16c-0.062,0-0.174-0.012-0.33-0.037
			c-0.148-0.021-0.283-0.035-0.389-0.035c-0.292,0-0.479,0.088-0.566,0.259c-0.079,0.172-0.122,0.418-0.122,0.74v0.386h0.395
			c0.62,0,0.926,0.186,0.926,0.56c0,0.262-0.079,0.432-0.245,0.503c-0.164,0.072-0.39,0.107-0.681,0.107h-0.395v4.294
			c0,0.319-0.075,0.563-0.231,0.73c-0.151,0.17-0.346,0.254-0.589,0.254c-0.229,0-0.419-0.084-0.574-0.254
			c-0.153-0.167-0.228-0.411-0.228-0.73v-4.294h-0.446c-0.243,0-0.427-0.052-0.559-0.164c-0.131-0.107-0.197-0.25-0.197-0.424
			C259.18,484.253,259.451,484.061,259.994,484.061"/>
		<path style="fill:#F9F9EA;" d="M265.3,488.17v1.355c0,0.327-0.083,0.574-0.234,0.737c-0.154,0.166-0.349,0.247-0.586,0.247
			c-0.239,0-0.43-0.082-0.579-0.25c-0.148-0.165-0.225-0.41-0.225-0.734v-4.514c0-0.729,0.262-1.093,0.788-1.093
			c0.271,0,0.465,0.084,0.583,0.255c0.118,0.171,0.184,0.421,0.198,0.755c0.192-0.334,0.39-0.584,0.593-0.755
			c0.208-0.171,0.477-0.255,0.819-0.255c0.343,0,0.67,0.084,0.991,0.255c0.322,0.171,0.482,0.398,0.482,0.678
			c0,0.197-0.069,0.363-0.204,0.488c-0.137,0.131-0.284,0.195-0.441,0.195c-0.062,0-0.207-0.039-0.433-0.112
			c-0.228-0.071-0.43-0.108-0.602-0.108c-0.237,0-0.433,0.064-0.582,0.186c-0.151,0.128-0.269,0.311-0.353,0.554
			c-0.081,0.247-0.137,0.541-0.17,0.878C265.314,487.27,265.3,487.684,265.3,488.17"/>
		<path style="fill:#F9F9EA;" d="M272.751,487.612h-3.171c0.005,0.367,0.078,0.694,0.221,0.974c0.147,0.279,0.337,0.491,0.578,0.635
			c0.24,0.142,0.502,0.212,0.793,0.212c0.194,0,0.371-0.021,0.531-0.069c0.159-0.043,0.316-0.116,0.466-0.213
			c0.151-0.095,0.287-0.199,0.415-0.313c0.126-0.109,0.292-0.26,0.494-0.449c0.084-0.071,0.203-0.109,0.355-0.109
			c0.168,0,0.301,0.046,0.406,0.139c0.104,0.092,0.152,0.219,0.152,0.386c0,0.147-0.056,0.317-0.167,0.512
			c-0.117,0.198-0.289,0.385-0.522,0.566c-0.234,0.178-0.524,0.33-0.874,0.446c-0.35,0.119-0.754,0.179-1.207,0.179
			c-1.044,0-1.852-0.295-2.429-0.889c-0.577-0.595-0.87-1.401-0.87-2.418c0-0.479,0.073-0.924,0.217-1.334
			c0.14-0.411,0.348-0.76,0.624-1.055c0.272-0.294,0.606-0.518,1.008-0.674c0.399-0.156,0.842-0.234,1.33-0.234
			c0.632,0,1.176,0.134,1.629,0.403c0.452,0.264,0.796,0.61,1.018,1.034c0.226,0.425,0.339,0.855,0.339,1.296
			c0,0.405-0.118,0.669-0.351,0.791C273.502,487.552,273.174,487.612,272.751,487.612 M269.579,486.69h2.938
			c-0.039-0.553-0.186-0.969-0.446-1.241c-0.261-0.277-0.599-0.413-1.025-0.413c-0.404,0-0.736,0.137-0.995,0.418
			C269.792,485.733,269.634,486.145,269.579,486.69"/>
		<path style="fill:#F9F9EA;" d="M279.493,487.612h-3.171c0.004,0.367,0.078,0.694,0.222,0.974c0.145,0.279,0.337,0.491,0.576,0.635
			c0.239,0.142,0.503,0.212,0.795,0.212c0.192,0,0.371-0.021,0.528-0.069c0.162-0.043,0.316-0.116,0.469-0.213
			c0.151-0.095,0.288-0.199,0.415-0.313c0.125-0.109,0.29-0.26,0.493-0.449c0.084-0.071,0.204-0.109,0.355-0.109
			c0.168,0,0.302,0.046,0.407,0.139c0.103,0.092,0.15,0.219,0.15,0.386c0,0.147-0.054,0.317-0.171,0.512
			c-0.111,0.198-0.284,0.385-0.519,0.566c-0.231,0.178-0.525,0.33-0.872,0.446c-0.349,0.119-0.755,0.179-1.209,0.179
			c-1.042,0-1.849-0.295-2.429-0.889c-0.577-0.595-0.868-1.401-0.868-2.418c0-0.479,0.073-0.924,0.217-1.334
			c0.142-0.411,0.349-0.76,0.622-1.055c0.272-0.294,0.608-0.518,1.009-0.674c0.399-0.156,0.844-0.234,1.331-0.234
			c0.63,0,1.174,0.134,1.633,0.403c0.45,0.264,0.791,0.61,1.013,1.034c0.225,0.425,0.34,0.855,0.34,1.296
			c0,0.405-0.12,0.669-0.351,0.791C280.243,487.552,279.915,487.612,279.493,487.612 M276.322,486.69h2.938
			c-0.04-0.553-0.19-0.969-0.447-1.241c-0.263-0.277-0.601-0.413-1.027-0.413c-0.403,0-0.735,0.137-0.996,0.418
			C276.533,485.733,276.374,486.145,276.322,486.69"/>
		<path style="fill:#F9F9EA;" d="M283.043,484.829v0.194c0.304-0.375,0.621-0.651,0.953-0.828c0.324-0.178,0.699-0.267,1.114-0.267
			c0.497,0,0.96,0.13,1.379,0.386c0.419,0.259,0.749,0.635,0.993,1.129c0.243,0.497,0.366,1.081,0.366,1.758
			c0,0.497-0.07,0.957-0.21,1.376c-0.14,0.417-0.336,0.767-0.58,1.05c-0.246,0.281-0.535,0.501-0.868,0.654
			c-0.339,0.151-0.695,0.227-1.08,0.227c-0.461,0-0.853-0.093-1.166-0.279c-0.314-0.183-0.614-0.458-0.901-0.816v2.433
			c0,0.71-0.26,1.069-0.778,1.069c-0.306,0-0.505-0.092-0.607-0.275c-0.095-0.187-0.146-0.452-0.146-0.807v-6.996
			c0-0.31,0.066-0.537,0.2-0.692c0.134-0.149,0.32-0.228,0.553-0.228c0.231,0,0.416,0.078,0.56,0.234
			C282.972,484.31,283.043,484.533,283.043,484.829 M286.22,487.184c0-0.428-0.067-0.796-0.197-1.102
			c-0.131-0.308-0.312-0.542-0.541-0.705c-0.229-0.164-0.489-0.248-0.77-0.248c-0.446,0-0.824,0.178-1.13,0.527
			c-0.308,0.354-0.462,0.872-0.462,1.558c0,0.642,0.153,1.146,0.46,1.504c0.305,0.358,0.679,0.536,1.133,0.536
			c0.268,0,0.519-0.079,0.748-0.233c0.232-0.158,0.416-0.392,0.552-0.704C286.15,488.005,286.22,487.627,286.22,487.184"/>
		<path style="fill:#F9F9EA;" d="M289.48,483.163c-0.227,0-0.418-0.071-0.577-0.209c-0.162-0.139-0.242-0.333-0.242-0.585
			c0-0.23,0.082-0.419,0.248-0.569c0.164-0.147,0.354-0.222,0.571-0.222c0.212,0,0.397,0.067,0.558,0.2
			c0.162,0.137,0.244,0.334,0.244,0.591c0,0.25-0.079,0.444-0.236,0.585C289.888,483.092,289.7,483.163,289.48,483.163
			 M290.283,484.837v4.689c0,0.322-0.078,0.568-0.231,0.733c-0.156,0.168-0.35,0.25-0.588,0.25c-0.238,0-0.428-0.084-0.58-0.254
			c-0.146-0.173-0.222-0.416-0.222-0.729v-4.642c0-0.319,0.076-0.559,0.222-0.721c0.152-0.166,0.342-0.245,0.58-0.245
			c0.238,0,0.432,0.079,0.588,0.245C290.205,484.325,290.283,484.551,290.283,484.837"/>
		<path style="fill:#F9F9EA;" d="M295.507,489.769l-1.428-2.354l-0.88,0.83v1.291c0,0.312-0.083,0.551-0.248,0.718
			c-0.16,0.17-0.354,0.254-0.566,0.254c-0.249,0-0.447-0.082-0.588-0.25c-0.142-0.165-0.215-0.41-0.215-0.734v-6.915
			c0-0.358,0.071-0.632,0.207-0.821c0.139-0.19,0.341-0.283,0.596-0.283c0.25,0,0.446,0.085,0.593,0.257
			c0.147,0.169,0.221,0.421,0.221,0.751v3.933l1.823-1.914c0.226-0.235,0.395-0.4,0.517-0.486c0.118-0.087,0.262-0.13,0.431-0.13
			c0.204,0,0.371,0.065,0.51,0.193c0.132,0.129,0.2,0.291,0.2,0.483c0,0.237-0.221,0.555-0.659,0.951l-0.861,0.789l1.662,2.614
			c0.121,0.196,0.212,0.34,0.265,0.441c0.052,0.099,0.081,0.2,0.081,0.289c0,0.258-0.072,0.459-0.213,0.61
			c-0.14,0.148-0.327,0.221-0.554,0.221c-0.198,0-0.352-0.051-0.458-0.16C295.837,490.241,295.688,490.047,295.507,489.769"/>
		<path style="fill:#F9F9EA;" d="M299.029,490.509c-0.245,0-0.455-0.079-0.633-0.238c-0.178-0.156-0.268-0.378-0.268-0.665
			c0-0.241,0.086-0.449,0.256-0.622c0.171-0.175,0.38-0.262,0.63-0.262c0.248,0,0.46,0.087,0.639,0.258
			c0.174,0.172,0.264,0.383,0.264,0.626c0,0.283-0.089,0.505-0.264,0.662C299.474,490.43,299.266,490.509,299.029,490.509"/>
		<path style="fill:#F9F9EA;" d="M307.091,488.503c0,0.2-0.06,0.418-0.182,0.646c-0.12,0.231-0.305,0.449-0.553,0.656
			c-0.247,0.207-0.557,0.376-0.935,0.502c-0.375,0.126-0.8,0.192-1.269,0.192c-1.004,0-1.786-0.294-2.349-0.876
			c-0.56-0.585-0.841-1.368-0.841-2.35c0-0.667,0.128-1.254,0.387-1.765c0.255-0.509,0.627-0.905,1.113-1.184
			c0.487-0.28,1.072-0.419,1.746-0.419c0.421,0,0.805,0.061,1.158,0.184c0.35,0.122,0.645,0.282,0.891,0.474
			c0.242,0.197,0.428,0.402,0.556,0.62c0.129,0.22,0.192,0.425,0.192,0.617c0,0.192-0.071,0.357-0.214,0.492
			c-0.147,0.134-0.322,0.203-0.524,0.203c-0.137,0-0.249-0.035-0.338-0.104c-0.09-0.07-0.19-0.181-0.299-0.339
			c-0.198-0.299-0.404-0.526-0.622-0.674c-0.214-0.152-0.488-0.227-0.821-0.227c-0.476,0-0.865,0.186-1.158,0.561
			c-0.292,0.372-0.44,0.887-0.44,1.534c0,0.305,0.039,0.587,0.114,0.842c0.073,0.255,0.182,0.473,0.325,0.652
			c0.144,0.18,0.315,0.316,0.516,0.409c0.203,0.096,0.425,0.141,0.665,0.141c0.326,0,0.604-0.075,0.835-0.225
			c0.235-0.151,0.439-0.38,0.617-0.689c0.099-0.182,0.204-0.324,0.318-0.427c0.114-0.102,0.256-0.156,0.422-0.156
			c0.198,0,0.363,0.077,0.491,0.226C307.024,488.172,307.091,488.333,307.091,488.503"/>
		<path style="fill:#F9F9EA;" d="M314.085,487.215c0,0.481-0.076,0.928-0.222,1.337c-0.154,0.408-0.37,0.758-0.656,1.049
			c-0.284,0.293-0.626,0.518-1.02,0.675c-0.4,0.155-0.844,0.234-1.337,0.234c-0.491,0-0.933-0.08-1.326-0.239
			c-0.389-0.156-0.732-0.384-1.016-0.676c-0.288-0.298-0.505-0.646-0.657-1.048c-0.144-0.402-0.219-0.847-0.219-1.332
			c0-0.491,0.078-0.941,0.224-1.349c0.151-0.409,0.368-0.757,0.649-1.046c0.282-0.289,0.621-0.511,1.019-0.669
			c0.402-0.156,0.844-0.234,1.326-0.234c0.49,0,0.936,0.078,1.337,0.239c0.399,0.157,0.739,0.384,1.027,0.674
			c0.286,0.297,0.502,0.643,0.65,1.045C314.01,486.283,314.085,486.726,314.085,487.215 M312.458,487.215
			c0-0.662-0.146-1.176-0.436-1.543c-0.289-0.372-0.681-0.555-1.171-0.555c-0.317,0-0.597,0.082-0.839,0.246
			c-0.242,0.164-0.426,0.406-0.556,0.727c-0.131,0.321-0.197,0.696-0.197,1.124c0,0.424,0.064,0.792,0.194,1.108
			c0.13,0.319,0.314,0.561,0.553,0.729c0.241,0.167,0.522,0.253,0.845,0.253c0.49,0,0.882-0.185,1.171-0.557
			C312.311,488.378,312.458,487.865,312.458,487.215"/>
		<path style="fill:#F9F9EA;" d="M320.267,487.334v2.154c0,0.342-0.075,0.594-0.231,0.767c-0.156,0.17-0.357,0.255-0.611,0.255
			c-0.245,0-0.446-0.085-0.595-0.255c-0.154-0.173-0.232-0.426-0.232-0.767v-2.582c0-0.408-0.013-0.726-0.04-0.953
			c-0.029-0.221-0.105-0.409-0.227-0.552c-0.123-0.147-0.318-0.22-0.582-0.22c-0.532,0-0.88,0.181-1.048,0.551
			c-0.167,0.36-0.254,0.883-0.254,1.567v2.189c0,0.336-0.076,0.591-0.226,0.765c-0.156,0.171-0.355,0.258-0.603,0.258
			c-0.247,0-0.448-0.087-0.604-0.258c-0.157-0.173-0.235-0.428-0.235-0.765v-4.637c0-0.306,0.07-0.538,0.209-0.694
			c0.143-0.161,0.329-0.239,0.556-0.239c0.223,0,0.407,0.077,0.557,0.222c0.148,0.149,0.222,0.354,0.222,0.615v0.153
			c0.283-0.335,0.584-0.582,0.903-0.738c0.323-0.162,0.676-0.241,1.07-0.241c0.407,0,0.757,0.082,1.049,0.243
			c0.294,0.163,0.533,0.41,0.725,0.736c0.275-0.33,0.568-0.577,0.881-0.738c0.313-0.16,0.658-0.241,1.039-0.241
			c0.441,0,0.826,0.089,1.146,0.262c0.319,0.174,0.558,0.425,0.717,0.747c0.138,0.295,0.206,0.756,0.206,1.385v3.164
			c0,0.342-0.076,0.594-0.229,0.767c-0.154,0.17-0.359,0.255-0.612,0.255c-0.247,0-0.446-0.087-0.603-0.258
			c-0.156-0.173-0.235-0.428-0.235-0.765v-2.726c0-0.349-0.015-0.627-0.043-0.836c-0.029-0.211-0.11-0.388-0.239-0.529
			c-0.132-0.142-0.331-0.215-0.596-0.215c-0.214,0-0.416,0.067-0.609,0.192c-0.192,0.124-0.342,0.298-0.45,0.508
			C320.329,486.156,320.267,486.64,320.267,487.334"/>
	</g>
	<g style="opacity:0.84;">
		<path style="fill:#F9F9EA;" d="M244.827,486.822c-0.001-0.003-0.001-0.006-0.001-0.011
			C244.826,486.816,244.826,486.819,244.827,486.822z"/>
		<path style="fill:#F9F9EA;" d="M244.909,487.34c0.001,0,0.001,0,0.002,0c-0.031-0.148-0.055-0.294-0.074-0.439
			C244.855,487.047,244.879,487.195,244.909,487.34z"/>
		<path style="fill:#F9F9EA;" d="M245.445,488.844c-0.004-0.006-0.007-0.013-0.011-0.021
			C245.438,488.831,245.442,488.838,245.445,488.844z"/>
		<path style="fill:#F9F9EA;" d="M245.394,488.744c-0.014-0.027-0.028-0.056-0.041-0.084
			C245.366,488.69,245.38,488.717,245.394,488.744z"/>
		<path style="fill:#F9F9EA;" d="M245.059,487.92c0.079,0.25,0.175,0.492,0.286,0.724c-0.113-0.236-0.206-0.479-0.283-0.724
			C245.061,487.92,245.06,487.92,245.059,487.92z"/>
		<path style="fill:#F9F9EA;" d="M251.1,480.612c0.313,0,0.544,0.025,0.809,0.07l0.075-0.477c0,0-0.732-0.225-1.694-0.146
			l-0.076-0.26c0.299-0.063,0.524-0.329,0.524-0.646c0-0.364-0.296-0.659-0.661-0.659c-0.364,0-0.66,0.295-0.66,0.659
			c0,0.317,0.224,0.584,0.523,0.646l0.084,0.289c-1.021,0.14-1.834,0.539-1.834,0.539l0.144,0.441
			c0.618-0.206,1.154-0.331,1.64-0.383C250.45,480.634,250.808,480.612,251.1,480.612z"/>
		<path style="fill:#F9F9EA;" d="M245.433,483.023l0.004-0.005c0.024-0.031,0.047-0.06,0.071-0.089l-0.196-0.141l-0.305-0.223
			c-0.017,0.024-0.497,0.465-0.876,1.28c-0.016-0.026-0.035-0.051-0.056-0.075c-0.114-0.124-0.272-0.187-0.474-0.184
			c-0.003,0-0.006,0-0.009,0c-0.125,0-0.211-0.042-0.267-0.092c0.056-0.071,0.089-0.16,0.089-0.258c0-0.23-0.187-0.418-0.418-0.418
			c-0.23,0-0.418,0.188-0.418,0.418c0,0.231,0.187,0.418,0.418,0.418c0.036,0,0.071-0.006,0.104-0.013
			c0.103,0.114,0.266,0.214,0.505,0.209c0.123-0.001,0.213,0.03,0.273,0.097c0.069,0.076,0.093,0.185,0.1,0.267
			c-0.001,0.001-0.001,0.003-0.002,0.003c-0.272,0.743-0.194,1.669-0.194,1.669l0.661,0.026c0.014-0.337,0.062-0.926,0.232-1.394
			C245.004,483.614,245.416,483.047,245.433,483.023z"/>
		<path style="fill:#F9F9EA;" d="M256.85,481.164c-0.23,0-0.418,0.187-0.418,0.418c0,0.036,0.005,0.07,0.015,0.103
			c-0.115,0.104-0.214,0.267-0.211,0.507c0.002,0.123-0.03,0.212-0.096,0.273c-0.053,0.047-0.12,0.072-0.185,0.088
			c-0.492-0.689-1.097-1.11-1.097-1.11l-0.474,0.508c0.358,0.326,0.725,0.734,1.08,1.244c0.246,0.352,0.499,0.806,0.71,1.259
			l0.64-0.304c0,0-0.292-0.722-0.704-1.37c0.071-0.025,0.143-0.064,0.207-0.12c0.125-0.113,0.187-0.273,0.183-0.474
			c-0.001-0.13,0.042-0.218,0.093-0.276c0.071,0.054,0.161,0.089,0.258,0.089c0.232,0,0.419-0.187,0.419-0.418
			C257.269,481.351,257.082,481.164,256.85,481.164z"/>
		<path style="fill:#F9F9EA;" d="M255.189,486.916c-0.881,0.429-2.33,0.996-4.238,1.262c-0.749,0.104-1.475,0.142-2.143,0.142
			c-0.869,0-1.637-0.065-2.227-0.139c-0.673-0.085-1.198-0.189-1.52-0.261c0.077,0.245,0.171,0.488,0.283,0.724
			c0.002,0.006,0.005,0.013,0.008,0.017c0.013,0.027,0.027,0.056,0.041,0.084c0.013,0.027,0.027,0.054,0.04,0.079
			c0.004,0.007,0.007,0.015,0.011,0.021c0.189,0.356,0.417,0.684,0.675,0.968c0.9,0.984,1.817,1.14,1.826,1.141l0.014,0.002
			l0.013,0.005c0.008,0.003,0.821,0.266,2.057,0.266c1.216,0,2.409-0.245,3.546-0.729c0.842-0.431,1.639-1.085,2.034-1.669
			c0.305-0.452,0.525-0.933,0.656-1.434c0.07-0.266,0.125-0.692,0.092-1.141C256.111,486.42,255.72,486.657,255.189,486.916z"/>
		<path style="fill:#F9F9EA;" d="M245.716,483.232c-0.026,0.037-0.408,0.578-0.71,1.408c-0.226,0.622-0.216,1.527-0.216,1.538v0.002
			c0,0.212,0.012,0.423,0.035,0.632c0,0.005,0,0.008,0.001,0.011c0.002,0.027,0.007,0.052,0.009,0.079
			c0.019,0.145,0.043,0.291,0.074,0.439c0.438,0.111,3.049,0.72,5.968,0.314c1.829-0.255,3.218-0.795,4.062-1.204
			c0.701-0.34,1.151-0.647,1.325-0.774c-0.173-0.643-0.651-1.65-1.089-2.279c-1.253-1.791-2.604-2.25-3.298-2.365
			c-0.265-0.043-0.477-0.068-0.777-0.068c-0.28,0-0.626,0.023-1.089,0.071c-0.465,0.048-0.982,0.17-1.583,0.372
			c-0.842,0.282-1.605,0.724-2.204,1.28l-0.02,0.019C246.115,482.788,245.929,482.961,245.716,483.232z M253.384,482.815
			c0.601,0,1.089,0.488,1.089,1.089c0,0.601-0.489,1.09-1.089,1.09c-0.601,0-1.089-0.489-1.089-1.09
			C252.295,483.304,252.783,482.815,253.384,482.815z M248.233,482.772c0.973,0,1.761,0.789,1.761,1.761
			c0,0.972-0.788,1.759-1.761,1.759c-0.972,0-1.76-0.787-1.76-1.759C246.473,483.561,247.262,482.772,248.233,482.772z"/>
	</g>
</g>
</svg>
